<svg xmlns="http://www.w3.org/2000/svg" width="441.527" height="307.355"><path d="M326.999 69.586a36.357 36.357 0 0 1 45.29-24.339 36.357 36.357 0 0 1 24.337 45.29 36.358 36.358 0 0 1-45.29 24.339 36.358 36.358 0 0 1-24.339-45.29m-11.905-1.4a48.26 48.26 0 0 0 34.848 58.593 48.259 48.259 0 0 0 58.592-34.847 48.26 48.26 0 0 0-34.847-58.593 48.259 48.259 0 0 0-58.593 34.847" fill="#f7cc7f"/><path d="M313.438 67.769A49.583 49.583 0 0 1 336.3 37.163a49.588 49.588 0 0 1 37.807-5.477 49.591 49.591 0 0 1 30.608 22.861 49.594 49.594 0 0 1 5.476 37.807 49.585 49.585 0 0 1-22.862 30.606 49.589 49.589 0 0 1-37.807 5.477 49.593 49.593 0 0 1-30.606-22.862 49.588 49.588 0 0 1-5.477-37.807m-31.747.494c.228 1.151 1.27 1.554 3.842 2.573 4.6 1.826 9.2 3.65 13.733 5.633a3.2 3.2 0 0 1 1.515 2.233c.523 4.816.756 9.666 1.33 14.473.177 1.49.032 2.282-1.308 3.123-5.352 3.363-10.611 6.877-15.845 10.3 1.308 5.613 7.9 18.232 11.427 21.761 5.552-2.337 11.26-4.638 16.871-7.158 1.746-.785 2.638-.634 4.093.757a126.662 126.662 0 0 0 10.774 8.993c1.5 1.15 2.308 2.05 1.821 4.12-1.265 5.367-2.2 10.81-3.378 16.2-.316 1.449-.041 2.354 1.389 2.8q10.094 3.123 20.188 6.236c1.654.511 1.909-.849 2.322-1.822 2.09-4.93 4.208-9.851 6.131-14.847.722-1.875 1.69-2.493 3.728-2.556 5.392-.17 10.774-.689 16.574-1.1l11.111 16.87a72.178 72.178 0 0 0 21.52-11.588l-7.607-18.28c3.991-5.058 7.794-9.66 11.314-14.468a2.723 2.723 0 0 1 3.347-1.284c5.309 1.167 10.656 2.167 15.973 3.3 1.148.244 1.992.289 2.582-.967a69.137 69.137 0 0 0 6.345-19.855 2.172 2.172 0 0 0-1.631-2.707c-5.171-2.137-10.3-4.372-15.485-6.486a2.522 2.522 0 0 1-1.894-2.576c-.4-5.311-1.021-10.611-1.78-15.883a2.145 2.145 0 0 1 1.182-2.5c5.282-3.478 10.538-7 15.937-10.589a77.439 77.439 0 0 0-11.24-21.4l-19.051 7.928c-5.183-4.3-10.2-8.463-15.572-12.916.951-4.749 2.087-10.21 3.132-15.689.856-4.5 1.5-3.906-3.018-5.8a7.635 7.635 0 0 1-1.192-.783L378.749.66a15.034 15.034 0 0 1-2.824-.35c-2.313-.734-3.616-.207-4.538 2.271-1.921 5.163-4.166 10.207-6.4 15.248a2.93 2.93 0 0 1-1.978 1.44c-4.729.6-9.523.788-14.2 1.63-2.29.413-3.252-.212-4.384-2-3.2-5.063-6.615-9.992-10.28-15.475l-21.467 11.272c.562 1.425.871 2.25 1.211 3.064 2.087 5.015 4.133 10.052 6.31 15.03.618 1.413.3 2.208-.664 3.358-3.325 3.951-6.4 8.115-9.694 12.089a3.23 3.23 0 0 1-2.578.91c-4.39-.763-8.74-1.768-13.116-2.619-3.541-.688-4.859-.931-5.98.226l-6.474 21.51" fill="#f7cc7f"/><path d="M28.361 117.981a39.83 39.83 0 0 1-2.207-30.6 39.829 39.829 0 0 1 20.079-23.2 39.826 39.826 0 0 1 30.6-2.208 39.827 39.827 0 0 1 23.2 20.08 39.825 39.825 0 0 1 2.207 30.6 39.819 39.819 0 0 1-20.079 23.2 39.821 39.821 0 0 1-30.6 2.208 39.824 39.824 0 0 1-23.2-20.078m-19.018 16.99c.743.579 1.587.275 3.685-.457 3.752-1.311 7.506-2.62 11.3-3.8a2.57 2.57 0 0 1 2.094.561c2.849 2.647 5.54 5.47 8.415 8.089a2.108 2.108 0 0 1 .849 2.583c-1.482 4.856-2.828 9.754-4.21 14.584 3.746 2.719 14.383 6.916 18.378 7.206 2.143-4.338 4.4-8.736 6.482-13.216.648-1.395 1.269-1.771 2.883-1.692a101.445 101.445 0 0 0 11.27-.2c1.518-.093 2.479.032 3.271 1.545 2.053 3.923 4.344 7.722 6.464 11.612.57 1.046 1.213 1.452 2.315.968q7.77-3.409 15.537-6.826c1.273-.559.713-1.518.452-2.327-1.322-4.093-2.623-8.194-4.081-12.238a2.781 2.781 0 0 1 .919-3.512c3.185-2.938 6.179-6.083 9.486-9.38l15.616 4.4a58 58 0 0 0 6.976-18.351l-14.23-7.1c-.234-5.17-.345-9.963-.734-14.733a2.186 2.186 0 0 1 1.358-2.541c3.837-2.082 7.608-4.285 11.431-6.395.826-.457 1.362-.873 1.059-1.944a55.462 55.462 0 0 0-6.585-15.392 1.744 1.744 0 0 0-2.412-.786c-4.264 1.422-8.556 2.761-12.814 4.2a2.027 2.027 0 0 1-2.5-.569c-3.032-3.016-6.2-5.907-9.43-8.709a1.721 1.721 0 0 1-.594-2.136c1.378-4.89 2.721-9.788 4.11-14.81a62.209 62.209 0 0 0-18.074-7.084l-7.4 14.828c-5.408.115-10.644.226-16.246.343-1.918-3.383-4.1-7.3-6.346-11.172-1.844-3.181-1.142-3.161-4.882-1.938a6.074 6.074 0 0 1-1.136.151l-9.279 4.157a12.143 12.143 0 0 1-1.9 1.274c-1.79.771-2.3 1.775-1.562 3.763 1.548 4.144 2.836 8.388 4.13 12.622a2.351 2.351 0 0 1-.444 1.914c-2.557 2.85-5.368 5.486-7.766 8.456-1.173 1.454-2.087 1.581-3.711 1.09-4.606-1.389-9.27-2.588-14.377-3.991L-.001 86.152c1.09.569 1.712.907 2.345 1.223 3.906 1.948 7.794 3.933 11.733 5.81a2.193 2.193 0 0 1 1.362 2.388c.058 4.147.383 8.29.469 12.437a2.6 2.6 0 0 1-1.087 1.909c-3.068 1.844-6.237 3.521-9.342 5.3-2.512 1.443-3.44 1.989-3.513 3.281l7.378 16.466" fill="#50bfa5"/><path d="m55.764 25.185 1.525-2.8-1.435-2.846a.438.438 0 0 1 .471-.628l3.126.589 2.256-2.249a.437.437 0 0 1 .741.255l.407 3.164 2.829 1.457a.439.439 0 0 1-.013.786l-2.874 1.365-.508 3.149a.437.437 0 0 1-.749.231l-2.183-2.32-3.143.489a.438.438 0 0 1-.451-.644" fill="#f7cc7f"/><path d="m226.869 36.755 1.163-1.9-1.851-.751-1.163 1.9Zm-4.718 1.695 1.3-2.114-1.046-.425a.449.449 0 0 1-.246-.583.449.449 0 0 1 .583-.246l1.206.489 1.163-1.9-1.116-.452a.447.447 0 0 1-.246-.583.446.446 0 0 1 .583-.246l1.277.518 1.352-2.175a.447.447 0 0 1 .547-.178l.2.08a.447.447 0 0 1 .212.647l-1.257 2.053 1.851.751 1.352-2.176a.447.447 0 0 1 .547-.178l.214.086a.447.447 0 0 1 .212.647l-1.257 2.053 1.046.423a.449.449 0 0 1 .246.582.446.446 0 0 1-.582.246l-1.206-.489-1.146 1.907 1.117.452a.449.449 0 0 1 .246.583.447.447 0 0 1-.583.246l-1.277-.518-1.381 2.244a.449.449 0 0 1-.548.18l-.228-.094a.448.448 0 0 1-.214-.649l1.3-2.115-1.851-.75-1.381 2.242a.445.445 0 0 1-.549.18l-.228-.092a.448.448 0 0 1-.214-.649" fill="#07345a"/><path d="M231.214 83.154a15.428 15.428 0 0 1 18.014-12.308 15.427 15.427 0 0 1 12.31 18.014 15.428 15.428 0 0 1-18.014 12.308 15.426 15.426 0 0 1-12.31-18.014m-17.417-7.885-1.761 9.368c.146.475.6.6 1.736.914 2.023.562 4.047 1.125 6.048 1.758a1.356 1.356 0 0 1 .741.875c.438 2.007.754 4.044 1.213 6.046a1.113 1.113 0 0 1-.411 1.377c-2.108 1.661-4.168 3.38-6.223 5.058.805 2.31 4.156 7.339 5.8 8.669 2.238-1.237 4.543-2.465 6.8-3.781a1.293 1.293 0 0 1 1.761.136 53.994 53.994 0 0 0 4.951 3.31c.688.416 1.067.761.954 1.656-.292 2.322-.443 4.66-.7 6.987-.068.625.09 1 .713 1.118q4.4.864 8.8 1.724c.72.141.766-.445.9-.875.661-2.174 1.333-4.346 1.919-6.54a1.47 1.47 0 0 1 1.457-1.247c2.269-.314 4.516-.776 6.944-1.211l5.448 6.618a30.612 30.612 0 0 0 8.558-5.859c-1.4-2.558-2.8-5.115-4.032-7.371 1.457-2.313 2.853-4.426 4.122-6.613a1.156 1.156 0 0 1 1.355-.693c2.293.253 4.594.435 6.889.671.5.053.853.032 1.045-.523a29.349 29.349 0 0 0 1.785-8.665.923.923 0 0 0-.81-1.068c-2.279-.669-4.545-1.381-6.826-2.04a1.07 1.07 0 0 1-.917-1 98.131 98.131 0 0 0-1.466-6.622.909.909 0 0 1 .387-1.105c2.072-1.705 4.13-3.427 6.248-5.187a32.866 32.866 0 0 0-5.707-8.522l-7.682 4.2c-2.381-1.581-4.686-3.111-7.152-4.75.187-2.045.42-4.4.613-6.761.16-1.936.459-1.715-1.534-2.312a3.279 3.279 0 0 1-.538-.277l-5.28-.993c-.126 0-.253.005-.38.01a3.413 3.413 0 0 1-.827-.031c-1.009-.205-1.535.077-1.812 1.164-.577 2.264-1.3 4.494-2.012 6.72a1.248 1.248 0 0 1-.771.7c-1.968.465-3.983.761-5.919 1.328a1.518 1.518 0 0 1-1.938-.647c-1.581-1.99-3.242-3.918-5.036-6.066l-8.551 5.723c.3.576.469.911.649 1.239 1.107 2.022 2.2 4.055 3.339 6.058a1.159 1.159 0 0 1-.129 1.447c-1.224 1.817-2.334 3.713-3.546 5.538a1.363 1.363 0 0 1-1.046.5c-1.887-.124-3.769-.351-5.654-.514-1.525-.131-2.092-.173-2.514.365" fill="#f47458"/><path d="m152.546 23.913 5.547.669-2.366-4.305Z" fill="#355389"/><path d="M172.92 71.715a3.879 3.879 0 0 0 3.225 3.9 3.8 3.8 0 0 0 4.137-2.588c1.257-3.365-2.425-6.019-4.421-3.983-1.863 1.9-1.274 4.723.737 4.725.759 0 1.98-.637 1.5-1.556a.306.306 0 0 0-.526 0c-.245.414-.224.43-.34.523a1.037 1.037 0 0 1-.659.19c-2.05-.036-.688-4.723 1.727-3.587a2.7 2.7 0 0 1 1.257 3.448 3.084 3.084 0 0 1-3.006 2.16 3.53 3.53 0 0 1-3.125-3.234.252.252 0 0 0-.5 0" fill="#f47458"/><path d="m274.24 2.294 1.66.713s2.768-.618 3.077-1.139.491-1.834.878-1.834a1.182 1.182 0 0 1 1.224 1.111c.074.669-1.048 2.476-.912 2.692a9.422 9.422 0 0 0 1.719.88 1.339 1.339 0 0 1 .795 1.14.717.717 0 0 1-.52.735l-.5.143.117.514a.716.716 0 0 1-.533.854l-.389.09.1.316a.717.717 0 0 1-.549.914l-.338.064.007.088a.716.716 0 0 1-.6.759l-.336.054-4.416-1.9a3.29 3.29 0 0 1-1.1-.766l-1.444-.924a.376.376 0 0 1-.139-.467l1.714-3.85a.371.371 0 0 1 .485-.192" fill="#50bfa5"/><path d="M227.625 81.318h-29.97a5.555 5.555 0 0 0-5.555 5.554v9.82a5.556 5.556 0 0 0 5.555 5.555h29.973a5.555 5.555 0 0 0 5.553-5.555v-9.82a5.553 5.553 0 0 0-5.553-5.554" fill="#5184ce"/><path d="m187.92 287.622-31.746 14.633v3.24h113.054v-3.24l-32.031-14.633h-49.278" fill="#466eb6"/><path d="M187.919 287.65h49.3v-62.742h-49.3Z" fill="#466eb6"/><path d="M361.743 244.589V103.104a12.172 12.172 0 0 0-12.172-12.172H75.245a12.172 12.172 0 0 0-12.172 12.172v141.485h298.67" fill="#466eb6"/><path d="M156.173 305.495h113.054v-3.24H156.173ZM187.919 287.623h49.278v-7.362h-49.278Z" fill="#335691"/><path d="M63.073 244.589v22.673c0 4.715 3.117 8.538 6.963 8.538H354.78c3.847 0 6.963-3.823 6.963-8.538v-22.673H63.073" fill="#5184ce"/><path d="M215.652 86.876a2.773 2.773 0 0 1-2.773 2.772 2.771 2.771 0 0 1-2.772-2.772 2.772 2.772 0 0 1 2.772-2.773 2.773 2.773 0 0 1 2.773 2.773" fill="#184655"/><path d="M354.75 238.446V103.485a6.524 6.524 0 0 0-6.635-6.406H76.7a6.525 6.525 0 0 0-6.637 6.406v134.961H354.75" fill="#cce6ff"/><path d="M82.566 227.368h171.111v-119.4H82.566Z" fill="#e9ffff"/><path d="M253.676 121.952H82.566v-13.979h171.11v13.979" fill="#5184ce"/><path d="M265.636 228.248v-51.779h7.86a39.527 39.527 0 0 0 3.82 8.251v3.684h-11.679v39.845" fill="#afd0fb"/><path d="M326.25 228.248h-11.679v-24.636a39.346 39.346 0 0 0 11.679-2.831v27.467M309.939 228.248H298.26v-26.664a39.643 39.643 0 0 0 11.679 2.15v24.514m-1.781-29.179a35.039 35.039 0 0 1-9.9-2.334 35.036 35.036 0 0 0 9.9 2.334M342.796 228.248h-11.68v-29.892q.446-.263.883-.535a35.749 35.749 0 0 1 2.68 2.4s4.384 5.012 8.116 9.146v18.877m0-25.22-5.508-4.392h-.005c-.083-.275-.99-3.24-1.034-3.77a.333.333 0 0 0-.022-.1c.263-.217.523-.44.781-.664l5.788 5.652v3.268m0-12.018-1.413-1.382q.736-.887 1.413-1.8v3.184m-6.917-2.111.032-.032-.032.032M293.628 228.248h-11.68v-37.389q.739.808 1.534 1.583a39.739 39.739 0 0 0 10.146 7.2v28.6m0-33.757a35.216 35.216 0 0 1-6.53-4.874 35.292 35.292 0 0 0 6.53 4.874M265.636 228.248h11.68V188.4h-11.68Z" fill="#9ac1f9"/><path d="M88.47 147.979h157.936v-20.272H88.47ZM144.752 158.932h101.65v-5.2h-101.65Z" fill="#badafb"/><path d="M138.479 213.693H88.47v-59.959h50.009v59.959" fill="#5184ce"/><path d="M246.402 169.884h-54.747a7.67 7.67 0 0 0-5.666-3.473 10.192 10.192 0 0 0-1.2-.075c-3.149 0-4.387 1.727-6.306 3.548h-33.731v-5.2h101.65v5.2M246.402 202.742h-101.65v-5.2h18.15a10.209 10.209 0 0 0 6.2 1.977 18.433 18.433 0 0 0 7.705-1.977h69.595v5.2M144.752 213.694h101.65v-5.2h-101.65Z" fill="#badafb"/><path d="m17.08 175.237 94.943-.172a2.583 2.583 0 0 1 2.586 2.578l.225 125.106a2.582 2.582 0 0 1-2.577 2.587l-94.943.172a2.583 2.583 0 0 1-2.586-2.578l-.225-125.106a2.582 2.582 0 0 1 2.577-2.587" fill="#f7cc7f"/><path d="m19.716 178.867 89.685-.161.22 122.281-89.685.161-.22-122.281" fill="#fff"/><path d="M83.992 173.39a1 1 0 0 0-1-.994l-37.657.068a.994.994 0 0 0-.994 1l.007 3.915 39.649-.071-.007-3.915" fill="#13375b"/><path d="M64.175 177.418a3.809 3.809 0 0 1-3.815-3.8 3.809 3.809 0 0 1 3.8-3.816 3.809 3.809 0 0 1 3.815 3.8 3.808 3.808 0 0 1-3.8 3.816Zm-.017-9.747a5.939 5.939 0 0 0-5.928 5.949 5.938 5.938 0 0 0 5.95 5.927 5.938 5.938 0 0 0 5.928-5.949 5.938 5.938 0 0 0-5.95-5.927" fill="#13375b"/><path d="M83.382 172.472a1 1 0 0 1 .61.917l.007 3.915-39.649.071a4.909 4.909 0 0 0 4.919 4.9l29.829-.053a4.91 4.91 0 0 0 4.9-4.918l-.007-3.915a1 1 0 0 0-.61-.917" fill="#355389"/><path d="M45.337 172.464a.994.994 0 0 0-.825.44.994.994 0 0 1 .825-.44M44.387 173.165a1.023 1.023 0 0 1 .075-.18 1.023 1.023 0 0 0-.075.18" fill="#9bc1f9"/><path d="m86.888 214.279 11.707-.02-.021-11.707-11.707.02Zm12.229.5-12.749.024-.023-12.75 12.749-.024.023 12.75M86.926 235.493l11.707-.02-.021-11.708-11.707.022Zm12.229.5-12.749.022-.023-12.748 12.749-.024.023 12.75M86.964 256.707l11.707-.02-.021-11.708-11.707.022Zm12.229.5-12.749.022-.023-12.748 12.749-.024.023 12.75M87.002 277.922l11.707-.022-.021-11.707-11.707.022Zm12.229.5-12.749.022-.023-12.75 12.749-.022.023 12.75" fill="#184655"/><path d="m26.443 204.255 54.563-.1v-1.834l-54.563.1v1.834M26.453 209.452l54.563-.1v-1.834l-54.564.1v1.836M26.462 214.646l54.564-.1v-1.836l-54.564.1v1.836M26.483 226.194l54.563-.1v-1.836l-54.564.1v1.836M26.489 231.39l54.563-.1v-1.836l-54.563.1v1.834M26.502 236.587l54.564-.1v-1.834l-54.563.1v1.834M26.521 246.98l54.563-.1v-1.836l-54.563.1v1.836M26.533 252.177l54.563-.1v-1.836l-54.564.1v1.834M26.539 257.373l54.563-.1v-1.834l-54.563.1v1.834M26.558 267.767l54.563-.1v-1.836l-54.563.1v1.836M26.567 272.963l54.563-.1v-1.836l-54.563.1v1.836M26.576 278.159l54.564-.1v-1.834l-54.563.1v1.834M26.601 291.595l62.947-.114v-1.834l-62.947.114v1.834M26.609 296.041l75.36-.136v-1.834l-75.361.136v1.834" fill="#9bc1f9"/><path d="m92.679 212.695-3.959-6.793 1.417-.825 2.3 3.944 3.752-9 1.514.632-5.021 12.045M92.718 234.189l-3.959-6.792 1.417-.825 2.3 3.942 3.751-9 1.514.63-5.023 12.045M92.793 276.206l-3.959-6.793 1.417-.825 2.3 3.942 3.752-9 1.514.63-5.021 12.046M97.205 247.627l-1.142-1.153-3.258 3.229-3.269-3.217-1.138 1.157 3.255 3.2-3.243 3.215 1.142 1.151 3.258-3.229 3.269 3.217 1.138-1.157-3.255-3.2 3.243-3.213" fill="#f47458"/><path d="m40.22 301.117 4.475-.008-4.475.008" fill="#dabd7e"/><path d="M40.22 301.113a20.987 20.987 0 0 0 5.461-5.105l3.3-.007a23.605 23.605 0 0 1-3.338 4.207q-.461.464-.944.9l-4.475.009M46.902 294.169a20.679 20.679 0 0 0 1.306-2.614l2.918-.005a23.174 23.174 0 0 1-1.119 2.614l-3.105.005m1.968-4.45a20.71 20.71 0 0 0 .912-6.133 20.758 20.758 0 0 0-.739-5.469l2.8-.005a23.7 23.7 0 0 1 .646 5.469 23.622 23.622 0 0 1-.793 6.133l-2.829.005m-.426-13.434a20.709 20.709 0 0 0-1.632-3.359l3.113-.005a23.224 23.224 0 0 1 1.4 3.359l-2.882.005m-2.873-5.192a20.982 20.982 0 0 0-3.184-3.356l3.914-.007a23.6 23.6 0 0 1 2.576 3.356l-3.307.007m-5.713-5.187a20.665 20.665 0 0 0-10.862-3.071h-.038a20.673 20.673 0 0 0-9.087 2.113V261.962a23.43 23.43 0 0 1 9.088-1.834h.043a23.326 23.326 0 0 1 15.425 5.771l-4.563.008" fill="#e1ecfd"/><path d="M42.387 267.738a21.028 21.028 0 0 0-2.529-1.831l4.563-.008q.594.52 1.158 1.08.37.369.722.752l-3.914.007M46.812 272.927a20.909 20.909 0 0 0-1.241-1.833l3.307-.007c.378.6.727 1.209 1.048 1.834l-3.113.005M49.042 278.118q-.257-.935-.6-1.833l2.882-.005q.3.9.519 1.833l-2.8.005M48.209 291.556q.372-.9.661-1.836l2.829-.005q-.248.93-.572 1.836l-2.918.005M45.681 296.007a20.8 20.8 0 0 0 1.222-1.838l3.105-.005q-.473.94-1.031 1.836l-3.3.007" fill="#89b3f7"/><path d="M19.93 298.145v-1.627 1.627m-.049-27.388v-1.627 1.627" fill="#dabd7e"/><path d="M28.994 300.749a17.012 17.012 0 0 1-9.064-2.6v-1.627a15.681 15.681 0 0 0 9.067 2.875h.029a15.694 15.694 0 0 0 9.712-3.376h2.069a17.059 17.059 0 0 1-11.779 4.733h-.032m11.707-6.568a15.848 15.848 0 0 0 1.915-2.616h1.55a17.1 17.1 0 0 1-1.693 2.615h-1.772m2.835-4.451a15.686 15.686 0 0 0 1.23-6.134 15.7 15.7 0 0 0-.987-5.467h1.437a17.042 17.042 0 0 1 .9 5.465 17.04 17.04 0 0 1-1.123 6.134h-1.461m-.578-13.436a15.869 15.869 0 0 0-2.373-3.356h1.782a17.122 17.122 0 0 1 2.1 3.358h-1.513m-4.373-5.194a15.7 15.7 0 0 0-9.584-3.254h-.029a15.694 15.694 0 0 0-9.086 2.908v-1.627a17 17 0 0 1 6.678-2.461v1.1l8.867-.017a17.206 17.206 0 0 1 5.242 3.353h-2.088" fill="#e1ecfd"/><path d="M26.558 267.767v-1.1a17.075 17.075 0 0 1 2.408-.173h.032a17.05 17.05 0 0 1 6.429 1.252l-8.867.017M40.584 272.938a16.029 16.029 0 0 0-2.005-1.833h2.088a17.414 17.414 0 0 1 1.7 1.833h-1.782M43.779 278.129a15.716 15.716 0 0 0-.821-1.834h1.513a17 17 0 0 1 .745 1.834h-1.437M42.617 291.566a15.776 15.776 0 0 0 .92-1.836h1.461a17.133 17.133 0 0 1-.831 1.836h-1.55M38.735 296.019a15.917 15.917 0 0 0 1.966-1.838h1.772a17.191 17.191 0 0 1-1.669 1.838h-2.069" fill="#89b3f7"/><path d="M45.511 196.409V190.3h-2.435v-.535h5.636v.535h-2.435v6.109h-.767M54.933 195.869v.535h-4.886v-6.644h4.714v.535h-3.955v2.327h2.861v.535h-2.861v2.712h4.124M55.711 194.819l.661-.221a2.451 2.451 0 0 0 .853 1.05 2.287 2.287 0 0 0 1.276.338 2.036 2.036 0 0 0 1.253-.355 1.109 1.109 0 0 0 .475-.934 1.009 1.009 0 0 0-.311-.761 2.858 2.858 0 0 0-1.056-.545q-.406-.13-1.076-.314a6.917 6.917 0 0 1-.859-.275 2.312 2.312 0 0 1-.845-.593 1.207 1.207 0 0 1-.25-.776 1.54 1.54 0 0 1 .628-1.3 2.812 2.812 0 0 1 1.729-.474 3.048 3.048 0 0 1 1.615.389 2.427 2.427 0 0 1 .97 1.192l-.645.166a2.153 2.153 0 0 0-.786-.917 2.228 2.228 0 0 0-1.187-.3 1.8 1.8 0 0 0-1.109.318 1 1 0 0 0-.425.832.869.869 0 0 0 .275.651 2.033 2.033 0 0 0 .853.431c.148.044.363.107.645.183a8.91 8.91 0 0 1 1.562.526 2.308 2.308 0 0 1 .814.649 1.4 1.4 0 0 1 .253.834 1.653 1.653 0 0 1-.681 1.388 2.976 2.976 0 0 1-1.843.516 3.254 3.254 0 0 1-1.72-.413 2.8 2.8 0 0 1-1.07-1.289M64.182 196.409V190.3h-2.435v-.535h5.635v.535h-2.435v6.109h-.765M68.835 196.409v-6.644h.762v6.644h-.762M72.659 190.245v6.163h-.739v-6.644h1.239l3.941 5.606v-5.606h.739v6.644h-.811l-4.369-6.163M84.817 195.663a2.588 2.588 0 0 1-.973.657 3.579 3.579 0 0 1-1.306.219 2.988 2.988 0 0 1-2.329-.883 3.686 3.686 0 0 1-.8-2.558 3.672 3.672 0 0 1 .817-2.558 2.962 2.962 0 0 1 2.313-.9 2.964 2.964 0 0 1 1.768.477 2.785 2.785 0 0 1 .978 1.5l-.717.121a2.4 2.4 0 0 0-.764-1.186 2.035 2.035 0 0 0-1.276-.382 2.089 2.089 0 0 0-1.718.744 3.26 3.26 0 0 0-.606 2.109 3.445 3.445 0 0 0 .614 2.223 2.225 2.225 0 0 0 1.826.751 2.361 2.361 0 0 0 1.468-.425 1.343 1.343 0 0 0 .556-1.121v-.71h-2.046v-.5h2.869v3.167h-.673v-.746" fill="#184655"/><path d="m181.335 31.885-1.731 6.749 5.3-2.976 15.822-5.834-11.661-.324s-6.046.725-6.4.975a14.245 14.245 0 0 0-1.33 1.41" fill="#50bfa5"/><path d="m176.722 27.132 24 2.694-19.388 2.06Z" fill="#96d9c9"/><path d="m188.218 39.706-5.681-5.8 18.186-4.083Z" fill="#96d9c9"/><path d="M167.516 37.231a12.679 12.679 0 0 1 3.095-2.1l.248.513a12.136 12.136 0 0 0-2.957 2.009Zm-7.116 1.291a12.99 12.99 0 0 1 2.434-.261c.469.032.9.08 1.308.141l-.085.562c-.4-.06-.81-.1-1.264-.136a11.742 11.742 0 0 0-2.293.255Zm7.067 1.622-.068-.042.3-.484.075.047a5.723 5.723 0 0 1 2.33 2.887l-.538.182a5.15 5.15 0 0 0-2.1-2.587Zm-3.057 2.551a6.837 6.837 0 0 1 .4-1.634 7.957 7.957 0 0 1 .392-.875l.5.262a7.78 7.78 0 0 0-.365.813 6.326 6.326 0 0 0-.37 1.5 5.337 5.337 0 0 0-.015 1.068l-.567.049a5.852 5.852 0 0 1 .024-1.18Zm-10.822-1.3a29.664 29.664 0 0 1 3.213-1.849l.251.509a29.492 29.492 0 0 0-3.149 1.814Zm12.551 5.977c-.031-.026-.061-.049-.09-.075l.369-.433.075.063a.261.261 0 0 0 .054.024 2.628 2.628 0 0 0 1.593-.007 2.415 2.415 0 0 0 1.036-.927l.479.309a3.018 3.018 0 0 1-1.284 1.138 3.17 3.17 0 0 1-2.024.021.731.731 0 0 1-.209-.112Zm-18.042-1.016a21.551 21.551 0 0 1 2.553-2.7l.379.425a21.051 21.051 0 0 0-2.486 2.627Zm-3.132 6.182a15.265 15.265 0 0 1 .506-1.6 15.265 15.265 0 0 1 .627-1.439l.51.251c-.226.455-.428.922-.6 1.388a15.045 15.045 0 0 0-.487 1.542 20.23 20.23 0 0 0-.11.458l-.554-.124c.036-.161.073-.321.114-.476M174.269 34.584a10.911 10.911 0 0 1 1.824-.122l.01-.569a11.491 11.491 0 0 0-1.919.129l.085.562" fill="#9bc1f9"/><path d="M131.956 43.044c.342.015 1.281.33 2.653 2.921 1.752 3.312 4.313 13.315 4.313 13.315l-7.644 2.848-.982-2.089-1.618-16.075s3.183-.924 3.278-.921" fill="#a34b3d"/><path d="M121.851 41.603a46.75 46.75 0 0 1 10.105 1.444s1.844 15.851-1.66 27.9c-.784 2.7.649 11.175.649 11.175l-22.651-.3s2.683-20.5 1.672-23.813-1.035-14.852-1.035-14.852.155-.025 5.089-.878a51.494 51.494 0 0 1 7.831-.672" fill="#b75742"/><path d="M119.212 111.537s.5 5.783 1.422 7.384-.048 4.326-.1 4.7-1.939.907-4.946.586-2.958-1.014-2.715-2.135 1.843-2.563 1.94-3.631a27.879 27.879 0 0 0-.921-4.912l5.318-1.992" fill="#f7a491"/><path d="M128.389 77.343s15.637-.868 19.129 1.247-2.481 12.493-2.481 12.493-10.88-.5-32.192.729c-5.047.292-5.482-13.159-4.538-14.271s20.082-.2 20.082-.2" fill="#e0973f"/><path d="M115.215 124.656c-3.1-.331-2.713-1.851-2.463-3.006a10.252 10.252 0 0 1 1.574-2.381 5.158 5.158 0 0 0 2.071 1.007c1.4.413 3.31-.4 4.53-.915a14.948 14.948 0 0 1 .414 3.995c-.05.384-3.029 1.63-6.125 1.3" fill="#dd513a"/><path d="M116.919 88.53c.625 4.727 3.718 28.261 3.718 28.261l-7.177.89s-8.826-30.717-8.373-35.414 3.756-5.093 3.756-5.093 6.422-1.157 8.076 11.357" fill="#f7cc7f"/><path d="M108.684 44.914c2.118-.795 3.154 18.288 3.44 26.143a92.725 92.725 0 0 0 11.915-.119c.766-.058 2.531-.7 3.292-.8a7.644 7.644 0 0 1 1.871-.088 35.3 35.3 0 0 1 4.384 1.973c.415.435 1.536 1.532 1.347 2.006s-2.156-1.321-2.156-1.321l-.961-.538c1.2 1.168 3.479 2.709 3.151 3.269s-2.38-1.016-3.847-2.081c1.259 1.136 2.823 3.171 2.462 3.488-.324.286-2.1-2.07-4-2.75-.7-.251-1.406.445-1.961.53a4.035 4.035 0 0 1-1.436.08l-2.058-.584c-.7.063-.719.479-1.427.629-.822.175-2.171.36-3.218.615-6.028 1.474-8.039 2.157-9.885 2.157-5.591 0-5.915-30.725-.91-32.6" fill="#f7a491"/><path d="M104.664 62.83c-.4-8.047-.339-17.962 4.171-19.655 1.78-.667 4.917 3.347 4.352 19.818a33.926 33.926 0 0 1-8.524-.163" fill="#a34b3d"/><path d="M140.948 117.145a3.91 3.91 0 0 0-.221 3.364c.815 1.535 5.093 3.793 5.54 4.625a2.015 2.015 0 0 1 .272 1.421l-12.707-3.115.974-3.83 1.188-2.648 4.954.182" fill="#f7a491"/><path d="M141.383 121.33s-3.572.618-4.988-.511-1.322-1.336-1.844-1.143c-.336.124-.847 1.649-1.17 2.724a1.045 1.045 0 0 0 .752 1.313l13.231 3.269c1.005.194 1.671-.433.994-1.24a11.856 11.856 0 0 0-1.365-1.27 45.928 45.928 0 0 0-5.608-3.142" fill="#dd513a"/><path d="M139.708 81.05c1.01-2.128 3.308-4.9 7.354-3.229 3.857 1.591 4.893 5.5 3.675 9.5s-9.229 27.539-9.509 30.776l-6.4.042s1.163-18.636 1.448-23.142a43.584 43.584 0 0 1 3.429-13.952" fill="#f7cc7f"/><path d="M150.089 59.372h-21.386a1.4 1.4 0 0 0-1.29.868l-6.585 16.116h-11.79a.6.6 0 0 0-.6.6.6.6 0 0 0 .6.6h33.557a2.343 2.343 0 0 0 2.136-1.387l6.63-14.822a1.4 1.4 0 0 0-1.272-1.972" fill="#184655"/><path d="M138.573 68.751a1.257 1.257 0 0 1-1.4 1.082 1.263 1.263 0 0 1-.883-1.54 1.258 1.258 0 0 1 1.406-1.08 1.26 1.26 0 0 1 .881 1.539" fill="#fff"/><path d="M126.933 22.241a16.121 16.121 0 0 1-1.892-.757 9.5 9.5 0 0 0-2.157-.812 5.2 5.2 0 0 0-4.376 1.167c-1.411 1.53-3.917.277-3.412 8.292.572 9.071 5.616 8.076 5.738 7.923s4.5-5.8 4.5-5.8 1.53 3.347 1.53 3.225 7.813-10.623.071-13.232" fill="#0e2e35"/><path d="m123.102 38.724.436 3.242s.975 4.669-.279 5.571-5.337-5.7-5.337-5.7l.431-8.214 4.75 5.105" fill="#f7a491"/><path d="M118.215 36.279a9.3 9.3 0 0 0 5.258 5.192l-.369-2.748-4.75-5.105-.139 2.661" fill="#f47458"/><path d="M122.846 24.68a4.322 4.322 0 0 1 4.978 4.372 32.85 32.85 0 0 1-.364 4.157c-.578 3.742-3.131 7.036-4.819 6.742s-5.935-3.522-5.188-8.847c.462-3.288 2.6-5.975 5.393-6.425" fill="#f7a491"/><path d="M118.623 31.739a1.392 1.392 0 0 1-1.472 1.279 1.4 1.4 0 0 1-.956-1.7 1.392 1.392 0 0 1 1.472-1.279 1.4 1.4 0 0 1 .956 1.7" fill="#f7a491"/><path d="M117.666 30.038s2.041.508 2.8-.8 3.466-4.146 6.909-2.97-3.03-2.857-3.305-2.857-3.581-.022-3.581-.022-2.548 2.094-2.639 2.325-.827 2.741-.827 2.741l.645 1.588" fill="#0e2e35"/><path d="m121.402 35.516 3.714.71a1.653 1.653 0 0 1-2 1.135c-2-.323-1.717-1.844-1.717-1.844" fill="#fff"/><path d="M164.608 291.216s-.681 4.742-1.849 6.272a12.1 12.1 0 0 0-1.579 2.091 6.18 6.18 0 0 0 .212 4.781c.277.608-.02.606.611.8a3.872 3.872 0 0 0 4.657-2.2 11.211 11.211 0 0 0 .914-4.04 14.717 14.717 0 0 1 1.53-6.495l-4.5-1.213M185.063 293.385a45.082 45.082 0 0 1 .08 7.084c-.183.931-1.2 2.846-.732 3.721a2.343 2.343 0 0 0 1 1.1l12.075.2c.657.01.223-.414-.307-.807a24.4 24.4 0 0 0-4.341-2.417c-.182-.087-.841-.508-1.077-.654a8.406 8.406 0 0 1-1.729-1.535c-.866-.97-.943-5.679-.943-5.679l-4.025-1" fill="#f7a491"/><path d="M194.506 222.317s1.52 8.68.521 14.371-5.79 58.442-5.79 58.442l-5.326.3s-1.118-22.036-.917-25.1a47.83 47.83 0 0 1 1.78-8.193l-.53-17.79 6.72-23.373 3.541 1.34" fill="#e25a44"/><path d="M178.85 220.491s-4.195 6.347-5.192 11.6.732 21.4-1.189 28.283c-1.039 3.726-4.979 9.482-5.579 14.3s-2.948 17.428-2.948 17.428l5.323 1.061 12.371-31.5 9.7-28.475 2.486-14.664-14.976 1.97" fill="#f47458"/><path d="M167.021 302.016a5.94 5.94 0 0 1-5.837-2.452c-.737 1.447-1.1 3.607-.554 4.8.477 1.048 1.873 1.017 2.972 1.058a2.867 2.867 0 0 0 2.638-1.624 9.71 9.71 0 0 0 .781-1.778M191.758 301.601a10.872 10.872 0 0 1-6.877-.272c-.34.971-.792 2.189-.552 2.891.294.861.712 1.055 1.08 1.065 2.916.076 10.684.182 12.909.211a.365.365 0 0 0 .282-.6c-.552-.662-6.6-3.147-6.843-3.293" fill="#f7cc7f"/><path d="M213.615 207.323c.223-.474-2.123-1.118-2.2-1.627s3.071-.222 3.227-.647c.29-.781-3.424-.526-3.314-.9s3.93-.82 3.594-1.506-3.911.881-3.967.433 3.454-1.16 3.493-2.125c.02-.516-5.849 1.977-6.464 1.632s.971-2.617.5-3.028-2.534 4.339-2.906 4.479-8.424 2.573-11.162 2.976c-.231-.927-2.291-6.029-2.488-6.9-1.608.91-3.657-.185-5.3.627.829 2.921 2.688 12.542 3.431 12.975 2.264 1.318 14.17-4.971 16.138-6.083s2.975-.582 4.259-.866 2.942 1.033 3.164.56" fill="#f38b80"/><path d="M192.43 178.976c.6-2.723 1.185-5.462-.394-8.453a7.68 7.68 0 0 0-6.043-4.117c-7.243-.859-5.695 5.9-15.818 7.366-3.146.455-6.068.894-8.7 2.458-4.742 2.824-6.532 7.355-3.387 14.738 7.7 18.077 26.129 2.369 28.94-.829 2.789-3.172 5.012-9.411 5.4-11.163" fill="#0e2e35"/><path d="M181.029 187.578a10.508 10.508 0 0 0-5.844 2.794c-2.187 2.379 3.536 21.508 3.933 24.538s-3.8 11.411-3.8 11.411 14.283 2.838 18 .387c0 0 .326-23.41-.073-25.574s-3.713-10.961-4.508-11.826-7.7-1.731-7.7-1.731" fill="#f7cc7f"/><path d="m182.87 180.2-.08.438a41.688 41.688 0 0 1-1.838 6.94c-.774 1.462 2.655 6.126 5.954 5.555.982-.168-.83-4.285-.744-4.72l.625-3.14.387-1.955.64-3.242-4.946.124" fill="#f7a491"/><path d="M186.79 185.261c.025-.132.053-.265.078-.4-.026.132-.053.265-.078.4m.171-.861c.071-.367.144-.73.214-1.082l.64-3.242-.64 3.242c-.07.351-.143.715-.214 1.082m-4.185-3.684c0-.027.008-.053.013-.078l.08-.433c-.007.032-.034.187-.08.433l-.013.078" fill="#815147"/><path d="M186.79 185.261a4.632 4.632 0 0 1-2.361-1.18 6.224 6.224 0 0 1-1.788-2.655c.053-.275.1-.516.136-.71l.014-.078.08-.433v-.005l4.946-.124-.64 3.242c-.07.352-.143.715-.214 1.082-.031.153-.061.307-.094.464-.026.132-.053.265-.078.4" fill="#f58c74"/><path d="M185.846 168.447a5.829 5.829 0 0 0-3.478 2.165c-1.461 1.885-3.037 7.717.593 10.888s7.216-.418 7.748-4.224.425-8.967-4.862-8.83" fill="#f7a491"/><path d="M191.766 176.337c-.229.917-.83 1.537-1.342 1.384s-.744-1.021-.515-1.938.83-1.537 1.343-1.384.742 1.021.513 1.938" fill="#f7a491"/><path d="M188.084 168.463s-4.738 5.442-6.967 5.7-2.52 3.2-2.52 3.2.8-6.79 3-8.1 6.484-.8 6.484-.8" fill="#0e2e35"/><path d="M181.842 175.482c.182.985-.183 1.889-.814 2.018s-1.289-.564-1.469-1.549.182-1.888.813-2.018 1.289.564 1.469 1.549" fill="#f7a491"/><path d="m181.778 203.097 15.316 2.24a.844.844 0 0 1 .712.956l-2.989 20.431a.843.843 0 0 1-.956.712l-15.314-2.24a.843.843 0 0 1-.712-.956l2.989-20.431a.841.841 0 0 1 .954-.712" fill="#184655"/><path d="M193.201 204.09a.171.171 0 0 0-.144-.194l-6.387-.934a.171.171 0 0 0-.194.144l-.1.664 6.725.983.1-.664" fill="#13375b"/><path d="M189.739 204.277a.655.655 0 0 1-.552-.742.652.652 0 0 1 .74-.55.652.652 0 0 1 .552.74.654.654 0 0 1-.74.552Zm.241-1.654a1.019 1.019 0 0 0-1.155.859 1.018 1.018 0 0 0 .861 1.155 1.019 1.019 0 0 0 1.155-.859 1.019 1.019 0 0 0-.861-1.155" fill="#13375b"/><path d="M193.121 203.921a.17.17 0 0 1 .08.17l-.1.664-6.725-.983a.841.841 0 0 0 .71.955l5.061.74a.842.842 0 0 0 .954-.712l.1-.664a.17.17 0 0 0-.08-.17" fill="#355389"/><path d="m188.439 179.162-3.446-.019a1.506 1.506 0 0 0 1.588 1.362c1.848.063 1.858-1.343 1.858-1.343" fill="#fff"/><path d="m171.035 208.322 5.549.567s-.09 4.71.005 5.251c0 0 9.489 2.631 13.454 3.344 0 0 1.807-1.024 2.537-1.349a17.571 17.571 0 0 1 3.128-.737c.435-.058.285.418-.087.584a3.609 3.609 0 0 0-1.612 1.179 3.011 3.011 0 0 0 1.2-.1c.414-.183.985-.576 1-.778s.1-.691.24-.666c.034.007.08.168.127.336s.09.323.129.484c.07.289.15.71.182.9a13.229 13.229 0 0 1-.231 2.048c-.068.774-.289 1.117-.7 1.315a10.136 10.136 0 0 1-2.384.482 16.06 16.06 0 0 1-4.38-.433c-.756-.085-12.84-1.284-12.84-1.284s-4.8-.691-5.122-1.518-.19-9.626-.19-9.626" fill="#f7a491"/><path d="M175.855 189.677s-1.751.83-3.29 4.417c-1.464 3.409-1.894 20.419-1.894 20.419l5.805-.968 2.95-7.931a14.542 14.542 0 0 0-1.5-14.465c-.817-1.119-1.569-1.793-2.067-1.472" fill="#f7cc7f"/><path d="M287.266 132.596h-19.883V107.96h24.636v21.6a38.951 38.951 0 0 0-4.754 3.039M296.38 111.308h48.066v-3.348h-48.062ZM296.38 118.404h32.435v-3.348H296.38ZM339.552 125.501h-21.625a39.647 39.647 0 0 0-7.2-.659 39.515 39.515 0 0 0-7.2.659h-7.148v-3.347h43.172v3.347" fill="#afd0fb"/><path d="M360.982 189.748c-1.007-.819-8.8 2.6-8.7 3.789s-5.435 12.722-5.435 12.722l-9.562-7.624h-.005c-.083-.275-.99-3.24-1.034-3.77-.046-.557-1.663-1.53-2.412-1.388s.64 1.085.732 1.257c.25.47-.713.647-.713.647s-2.731-.875-2.789-1.766-1.926 1.559-1.707 1.9 4.677 3.928 5.319 4.708c0 0 12.369 14.139 13.249 14.509.773.324 3.527-4.548 6.131-7.784s10.07-14.643 6.923-17.2" fill="#f7a491"/><path d="M385.937 293.715s1.7 1.659 1.739 2.267.149 7.13-.543 7.738-2.732 1.039-2.077 1.726c.494.516 4.305.406 6.831.267.737-.041 1.661-5.92 1.953-6.785.423-1.255 1.454-4.083 1.068-4.957a7.339 7.339 0 0 0-2.352-2.121 11.552 11.552 0 0 1-2.6-2.775l-4.013 4.642" fill="#f48c7f"/><path d="m368.331 297.577 1.523 4.309c.114.679.559 2.362.559 2.981 0 2.325-10.484-1.973-8.135-3a2.477 2.477 0 0 0 .949-1.629 5.433 5.433 0 0 0-.883-2.748l5.987.092" fill="#f7a491"/><path d="M351.883 217.567s-.764 7.7-.764 7.818c0 12.461-2.469 36.8-2 39.142 1.146 5.713 13.48 34.86 13.48 34.86l6.666-.8-7.155-35.222 1.665-13.723 4.524-27.765-16.415-4.314" fill="#50bfa5"/><path d="m374.257 224.377 1.264 7.3 3.422 30.046 13.033 29.366s-1.834 4.273-4.538 4.873l-20.742-30.149-12.885-38.576.453-8.572 19.993 5.715" fill="#96d9c9"/><path d="m349.226 199.228 9.242.943s.425-7.578.425-11.192c0-4.385-.374-10.034-.9-9.912a8.056 8.056 0 0 0-4.679 2.8c-4.124 5.666-4.084 17.362-4.084 17.362" fill="#b75742"/><path d="M353.768 188.206c-.194 1.337-3.748 37.685-3.748 37.685 16.831 8.13 26.117 1.449 26.117 1.449s-.55-25.525.109-29c.437-2.3.982-17.573-.508-18a37.158 37.158 0 0 0-6.491-1.381c-2.04-.212-9.961-.334-11.379.143a18.041 18.041 0 0 0-4.1 9.1M392.474 291.806s-3.918 11.029-5.45 11.561c-.407.143-2.362.5-2.731 1.365a3.768 3.768 0 0 0 0 1.129h8.166s1.033-4.861 1.44-7c0 0 2.162-5.217 1.92-5.691s-3.345-1.369-3.345-1.369M371.009 305.633l-1.2-3.792s-2.522 1.067-3.782.888-3.723-.888-3.723-.888c-5.032 1.656-9.154 2.459-8.4 3.792h17.109" fill="#f47458"/><path d="M347.928 214.734a2.135 2.135 0 0 1-.253-.188c.3-3.561.244-7.013-.873-8.178l.526-1.114c1.3 1 1.911 3.663 1.67 7.984a7.276 7.276 0 0 1-.172.893c-.375.413-.715.679-.9.6M366.996 171.934l1.083 7.15s-3.961 8.514-6.326 7.775c-1.984-.62-.763-8.152-.763-8.152s1.082-4.046.757-6.07 5.248-.7 5.248-.7" fill="#f7a491"/><path d="M361.748 172.637c-.324-2.024 5.248-.7 5.248-.7l.09.593a3.308 3.308 0 0 1-.6 1 7.339 7.339 0 0 1-4.873 2.2 11.068 11.068 0 0 0 .139-3.091" fill="#f47458"/><path d="M367.908 161.822c.158-.058 1.262 8.143-.834 10.4s-6.182 3-7.647 1.218c-1.622-1.965-1.54-10.779 1.72-13.1s6.761 1.482 6.761 1.482" fill="#f7a491"/><path d="M362.389 155.95a9.068 9.068 0 0 1 4.752 2.709c1.143.136 2.7.768 4.3 3.427a6.649 6.649 0 0 1-1.782 8.668 5.186 5.186 0 0 0-2.267 3.83l-.364-1.061a5.95 5.95 0 0 1-.287-2.5 4.866 4.866 0 0 1 .372-1.5c.552-1.187-1.187-1.975-1.677-2.962-.375-.761-.394-2.5-.985-3.757l-.708-.96a4.491 4.491 0 0 0-3.227-.912c-1.595.358-1.365-5.637 1.868-4.978" fill="#0e2e35"/><path d="M365.548 168.014c-.015 1 .438 1.819 1.017 1.829s1.058-.793 1.075-1.793-.438-1.821-1.016-1.829-1.06.793-1.077 1.794" fill="#f7a491"/><path d="m362.143 170.325-3.161-.163a1.385 1.385 0 0 0 1.4 1.316c1.692.136 1.761-1.153 1.761-1.153" fill="#fff"/><path d="M336.28 189.021a32.569 32.569 0 0 0 2.079-2.344l13.8 13.471c.848.827.555 2.5-.652 3.738s-2.873 1.569-3.723.74l-13.794-13.471a32.401 32.401 0 0 0 2.294-2.135" fill="#0e2e35"/><path d="M311.181 199.2c-.414 0-.829-.007-1.241-.022v-3.969l3.833 3.9q-1.294.094-2.592.1m-12.921-2.464a34.92 34.92 0 0 1-4.631-2.244v-15.863l4.631 4.708v13.4m-16.313-13.217a35.018 35.018 0 0 1-5.888-19.448q0-1.585.143-3.164l5.746 5.839v16.773" fill="#c8e1fb"/><path d="M281.948 183.529v-16.773l4.773 4.854h-4.773v11.919" fill="#bcd8fa"/><path d="M309.94 199.177c-.6-.02-1.187-.058-1.782-.109a35.043 35.043 0 0 1-9.9-2.333v-13.4l11.68 11.871v3.969M293.628 194.491a35.287 35.287 0 0 1-6.53-4.874c-.107-.1-.216-.2-.323-.307-.039-.037-.08-.078-.121-.115a35.35 35.35 0 0 1-4.706-5.664v-11.919h4.773l6.907 7.019v15.863" fill="#b4d2f9"/><path d="M326.25 195.78v-.075a34.7 34.7 0 0 0 4.866-2.964v.187a34.543 34.543 0 0 1-4.866 2.852m4.866-12.408-4.866-4.946v-11.7l4.866 4.946v11.7m11.68-4.529v-.795a35.191 35.191 0 0 0 2.578-9.971q.173-1.633.2-3.242l-2.775-2.819v-4.586h-4.51l-12.036-12.233v-7.354h-7.233l-8.31-8.446h.049a35 35 0 0 1 24.4 9.891l.056.054.061.061a35.021 35.021 0 0 1 10.6 25.112 34.763 34.763 0 0 1-3.077 14.326m-28.225-12.288-27.413-27.865a34.963 34.963 0 0 0-9.726 15.693 34.476 34.476 0 0 1 8.487-14.546 34.5 34.5 0 0 1 13.285-8.478 34.713 34.713 0 0 0-5.348 2.437l20.716 21.058v11.7" fill="#c8e1fb"/><path d="M314.571 166.556v-11.7l3.764 3.826h-3.764v7.875m11.679-21.359-7.233-7.354h7.233v7.354M331.116 183.373v-11.7l2.047 2.079h-2.047v9.621m11.68-21.357-4.509-4.586h4.509v4.586" fill="#bcd8fa"/><path d="M322.614 197.278a34.459 34.459 0 0 0 3.636-1.573v.075a34.485 34.485 0 0 1-3.636 1.5m3.636-18.852-11.679-11.871v-7.875h3.764l7.916 8.047v11.7M331.116 192.929v-.187a35.241 35.241 0 0 0 4.939-4.349l-4.939-5.02v-9.621h2.047l7.828 7.957a34.9 34.9 0 0 0 1.805-3.66v.795a34.554 34.554 0 0 1-6.781 9.918l-.1.105-.032.032a34.682 34.682 0 0 1-4.762 4.03" fill="#b4d2f9"/><path d="m313.769 199.105-3.833-3.9v-29.789h-11.679v17.918l-4.631-4.708v-23.983h-11.68v12.109l-5.745-5.839a34.7 34.7 0 0 1 1.228-6.534 34.965 34.965 0 0 1 9.726-15.693l27.413 27.865v32.479c-.267.027-.533.049-.8.07m12.478-3.4v-17.279l4.866 4.946v9.37a34.707 34.707 0 0 1-4.866 2.964" fill="#e2f0fd"/><path d="M298.26 183.337v-17.918h11.679v14.48H298.26v3.438M293.628 171.609h-6.907l-4.773-4.854v-12.109h11.68v16.963" fill="#dbebfc"/><path d="M314.571 199.034v-32.479l11.679 11.871v17.279a34.46 34.46 0 0 1-3.636 1.573 34.842 34.842 0 0 1-8.043 1.756M309.939 195.209l-11.679-11.871v-3.437h11.679v15.309M331.116 192.742v-9.37l4.939 5.02a35.225 35.225 0 0 1-4.939 4.349M293.628 178.628l-6.907-7.019h6.907v7.019" fill="#d6e7fc"/><path d="M342.796 178.048v-16.033l2.775 2.819q-.025 1.61-.2 3.242a35.184 35.184 0 0 1-2.578 9.971m-11.679-6.376-4.866-4.946v-21.53l12.036 12.233h-7.17v14.242m-16.545-16.819-20.717-21.058a34.722 34.722 0 0 1 5.348-2.437 34.969 34.969 0 0 1 11.5-1.962l8.31 8.446h-4.446v17.011" fill="#e2f0fd"/><path d="M326.25 158.681h-7.916l-3.764-3.826v-17.011h4.446l7.233 7.354v13.483M342.796 173.751h-9.633l-2.047-2.079V157.43h7.171l4.509 4.586v11.736" fill="#dbebfc"/><path d="m326.25 166.723-7.916-8.047h7.916v8.047M340.99 181.708l-7.828-7.957h9.633v4.3a34.944 34.944 0 0 1-1.805 3.66" fill="#d6e7fc"/><path d="M286.657 189.192a34.906 34.906 0 0 1-.737-49.356 34.9 34.9 0 0 1 49.359-.431 34.9 34.9 0 0 1 .737 49.356 34.905 34.905 0 0 1-49.359.431m-3.173 3.249a39.459 39.459 0 0 0 55.8-.489 39.458 39.458 0 0 0-.832-55.8 39.461 39.461 0 0 0-55.8.487 39.461 39.461 0 0 0 .834 55.8" fill="#184655"/><path d="M311.195 201.36a37.178 37.178 0 0 1-26.044-10.627 37.065 37.065 0 0 1-.783-52.411 36.73 36.73 0 0 1 26.372-11.085 37.178 37.178 0 0 1 26.043 10.626 37.064 37.064 0 0 1 .783 52.411 36.719 36.719 0 0 1-26.37 11.085m-35.134-37.279a35.018 35.018 0 0 0 10.594 25.112 35.011 35.011 0 0 0 24.526 10.007 34.591 34.591 0 0 0 24.833-10.438 34.572 34.572 0 0 0 9.859-24.244 35.02 35.02 0 0 0-10.6-25.112l-.061-.061-.056-.054a35 35 0 0 0-24.4-9.891h-.049a34.975 34.975 0 0 0-11.5 1.962 34.494 34.494 0 0 0-13.285 8.478 34.472 34.472 0 0 0-8.486 14.546 34.7 34.7 0 0 0-1.228 6.534q-.142 1.577-.143 3.164" fill="#103d46"/><path d="m395.001 248.142 2.144-2.223a5.587 5.587 0 0 0-.145-7.9l-39.828-38.615a5.59 5.59 0 0 0-7.9.144l-2.146 2.225a5.59 5.59 0 0 0 .145 7.9l39.828 38.614a5.589 5.589 0 0 0 7.9-.144" fill="#184655"/><path d="M392.805 226.276a1.06 1.06 0 0 0 0-.234c-.248-2.517-2.339-23.655-2.69-24.553-.318-.812-9.691-14.219-9.691-14.219l-4.607 6.277 9.015 12.026c.2.764 3.455 15.032 3.455 15.032s.667 2.6.965 4.159c-.136.375-.27.73-.387 1.021a9.432 9.432 0 0 1-.971 1.561 10.668 10.668 0 0 0-1.151 2.036c-.1.367-.268 1.129-.365 1.59s-.231 1-.253 1.247a2.37 2.37 0 0 1-.292.671.4.4 0 0 0 .476.579c.328-.109.582-.531.739-.8.445-.745.681-2.108.791-2.035s.5 2.381.56 2.643a28.4 28.4 0 0 0 .792 3.434c.261.491.611.408.7.1.08-.265-.29-4.018-.29-4.018s-.046-.479.163-.329.552 3.556.7 4.056.479.763.761.362c.343-.487-.246-4.1-.246-4.1s-.066-.453.127-.411.437 2.945.587 3.2a.383.383 0 0 0 .715-.076 17.83 17.83 0 0 0-.342-3.714s.028-.256.15-.172.5 2.546.754 2.773a.266.266 0 0 0 .386.005c.46-.314-.245-2.654-.238-3.818s-.532-2.471-.372-3.857c.01-.087.039-.3.057-.435" fill="#f8a492"/><path d="m387.751 195.762-8.008 5.375s-4.512-6.715-6.936-9.107c-3.035-2.994 1.106-12.169 3.06-11.651 4.375 1.162 11.884 15.382 11.884 15.382" fill="#f47458"/><path d="M404.228 304.977H5.795v2.378h398.433v-2.378" fill="#0e2e35"/></svg>