<svg xmlns="http://www.w3.org/2000/svg" width="471.807" height="338.941"><defs><clipPath id="a"><path data-name="Path 3951" d="M212.556 270.215s-31.814 6.751-58.328 21.693-47.236 26.992-47.236 32.762-10.612 97.373-10.612 97.373h241.033s-23.623-50.617-27.473-72.31-8.2-35.709-20.733-49.646-49.178-31.787-76.651-29.872Z" transform="translate(-96.38 -270.072)" fill="#fff" stroke="#263238" stroke-linecap="round" stroke-linejoin="round"/></clipPath><clipPath id="b"><path data-name="Path 3956" d="M193.112 273.279a31.758 31.758 0 0 0-14.953 25.063c-.96 17.352 0 35.2-.96 44.825s-7.711 17.363-2.41 16.872 17.352-19.762 21.693-19.762 5.78 9.161 7.711 12.052 8.7 4.106 8.7 4.106 6.238-7.476 6.238-9.887-1.93-10.612 3.348-9.641 16.861 19.283 17.352 13.491-5.312-14.507-5.312-28.433-6.7-30.375-16.381-40.5-15.162-8.933-25.026-8.186Z" transform="translate(-172.779 -272.805)" fill="#fff" stroke="#263238" stroke-linecap="round" stroke-linejoin="round"/></clipPath><clipPath id="c"><path data-name="Path 3962" d="M195.19 273.34a74.464 74.464 0 0 0-5.78 27.9c0 15.243 7.878 31.011 11.036 38.364s10.512 16.816 10.512 16.816-.536-19.439 4.2-28.9 8.927-16.292 8.927-16.292-5.78-5.78-14.194-18.914-14.701-18.974-14.701-18.974Z" transform="translate(-189.41 -273.34)" fill="#fff" stroke="#263238" stroke-linecap="round" stroke-linejoin="round"/></clipPath><clipPath id="d"><path data-name="Path 3977" d="M275.218 243.294s-1.462 21.592-3.794 29.181-5.579 30.944-12.554 41.154-16.046 18.971-26.27 19.561-23.923-17.519-31.812-29.19-8.749-23.344-11.382-34.727-3.2-24.55.882-34.738 24.55-22.764 41.734-21.3 38.811 10.512 43.2 17.218a11.728 11.728 0 0 1 0 12.844Z" transform="translate(-187.326 -213.116)" fill="#fff" stroke="#263238" stroke-linecap="round" stroke-linejoin="round"/></clipPath><clipPath id="e"><path data-name="Path 3987" d="M197.868 203.469s-18.97 6.137-20.432 13.725 8.179 34.146 7.889 37.349-3.214 5.847 0 10.512 9.039 11.672 11.382 7.878-.882-9.34 2.912-11.672 9.05-6.126 6.126-11.092-1.451-12.275 4.676-13.134 11.382-4.955 8.168-.29S206.047 252.8 211 253.673s24.55-12.275 24.55-12.275-6.7 13.391-3.214 14.295 30.944-17.218 30.944-17.218 13.134 17.218 15.756 16.047.882-10.791.882-10.791 2.042 12.844 6.126 13.391 9.63-6.428 7.878-10.8-4.7-10.489-4.7-10.489 5.836-1.462 8.168-4.1 2.042-2.912-2.924-3.794-8.749-6.416-13.391-11.382-12.275-11.671-12.275-11.671 8.749 3.794 4.084-.58S243.407 190 229.983 190s-18.423 7.019-18.423 7.019 2.332-8.76-.3-7.588-5.579 8.168-5.579 8.168-6.126-1.752-9.329.3-4.1 4.084-1.462 4.084a15.244 15.244 0 0 1 4.374.58Z" transform="translate(-177.285 -189.323)" fill="#263238" stroke="#263238" stroke-linecap="round" stroke-linejoin="round"/></clipPath><clipPath id="f"><path data-name="Path 3997" d="M197.59 271.407s-7-16.337-13.134-16.337-5.836 13.714-2.042 21.012 11.974 10.21 14.306 5.836" transform="translate(-179.682 -255.07)" fill="#fff" stroke="#263238" stroke-linecap="round" stroke-linejoin="round"/></clipPath></defs><path data-name="Path 3928" d="M436.779 333.952c3.27-12.275 13.96-53.462 21.2-95.2 8.659-49.813 16.236-118.441-18.4-147.208s-80.1 5.524-103.912-5.579-24.883-66.413-88.746-83.013-99.571 40.964-127.714 72-59.533 9.954-100.631 43.163c-40.685 32.845-6.182 181.537 23.903 215.837Z" fill="#478bca"/><path data-name="Path 3929" d="M436.779 333.952c3.27-12.275 13.96-53.462 21.2-95.2 8.659-49.813 16.236-118.441-18.4-147.208s-80.1 5.524-103.912-5.579-24.883-66.413-88.746-83.013-99.571 40.964-127.714 72-59.533 9.954-100.631 43.163c-40.685 32.845-6.182 181.537 23.903 215.837Z" fill="#fff" opacity=".7"/><g fill="#478bca"><path data-name="Path 3930" d="M292.55 106.894h-3.615a.893.893 0 0 1 0-1.785h3.615a.893.893 0 0 1 0 1.785Zm.893 3.236a.893.893 0 0 0-.893-.893h-3.616a.893.893 0 0 0 0 1.785h3.615a.893.893 0 0 0 .893-.893Zm0 4.129a.893.893 0 0 0-.893-.893h-3.616a.893.893 0 0 0 0 1.785h3.615a.893.893 0 0 0 .893-.937Zm0 4.129a.893.893 0 0 0-.893-.893h-3.616a.893.893 0 0 0 0 1.785h3.615a.893.893 0 0 0 .893-.893Zm0 4.129a.893.893 0 0 0-.893-.893h-3.616a.893.893 0 0 0 0 1.774h3.615a.882.882 0 0 0 .893-.882Zm0 4.118a.881.881 0 0 0-.893-.882h-3.616a.893.893 0 0 0 0 1.774h3.615a.893.893 0 0 0 .893-.893Zm0 4.129a.893.893 0 0 0-.893-.893h-3.616a.893.893 0 0 0 0 1.785h3.615a.893.893 0 0 0 .893-.893Zm0 4.129a.893.893 0 0 0-.893-.893h-3.616a.893.893 0 0 0 0 1.785h3.615a.893.893 0 0 0 .893-.893Zm13.5-28.89a.882.882 0 0 0-.882-.893h-9.485a.893.893 0 0 0 0 1.785h9.486a.882.882 0 0 0 .882-.893Zm0 4.129a.882.882 0 0 0-.882-.893h-9.485a.893.893 0 0 0 0 1.785h9.486a.882.882 0 0 0 .882-.893Zm0 4.129a.882.882 0 0 0-.882-.893h-9.485a.893.893 0 0 0 0 1.785h9.486a.882.882 0 0 0 .882-.937Zm0 4.129a.882.882 0 0 0-.882-.893h-9.485a.893.893 0 0 0 0 1.785h9.486a.882.882 0 0 0 .882-.893Zm0 4.129a.882.882 0 0 0-.882-.893h-9.485a.893.893 0 1 0 0 1.774h9.486a.882.882 0 0 0 .882-.882Zm11.36 4.118a.882.882 0 0 0-.893-.882h-9.485a.893.893 0 1 0 0 1.774h9.485a.893.893 0 0 0 .893-.893Zm0 4.129a.893.893 0 0 0-.893-.893h-9.485a.893.893 0 0 0 0 1.785h9.485a.893.893 0 0 0 .893-.893Zm0 4.129a.893.893 0 0 0-.893-.893h-9.485a.893.893 0 0 0 0 1.785h9.485a.893.893 0 0 0 .893-.893Zm-7.186-28.89a1.038 1.038 0 1 0-.483.988 1.038 1.038 0 0 0 .483-.988Zm3.1 0a1.038 1.038 0 1 0-1.038 1.038 1.038 1.038 0 0 0 1.038-1.038Zm3.091 0a1.038 1.038 0 1 0-.483.988 1.038 1.038 0 0 0 .483-.988Zm3.091 0a1.027 1.027 0 1 0-.3.733 1.027 1.027 0 0 0 .3-.733Zm3.1 0a1.038 1.038 0 1 0-1.038 1.038 1.038 1.038 0 0 0 1.038-1.038Zm3.091 0a1.038 1.038 0 1 0-.483.988 1.038 1.038 0 0 0 .483-.988Zm-15.477 8.213a1.038 1.038 0 1 0-1.027 1.027 1.038 1.038 0 0 0 1.027-1.027Zm3.1 0a1.038 1.038 0 1 0-1.032.93 1.038 1.038 0 0 0 1.032-.93Zm3.091 0a1.038 1.038 0 1 0-1.027 1.027 1.038 1.038 0 0 0 1.027-1.027Zm3.091 0a1.027 1.027 0 1 0-1.027 1.027 1.038 1.038 0 0 0 1.027-1.027Zm3.1 0a1.038 1.038 0 1 0-1.032.93 1.038 1.038 0 0 0 1.032-.93Zm3.091 0a1.01 1.01 0 1 1-.033 0Zm-4.9 11.862a1.038 1.038 0 1 0-.483.988 1.038 1.038 0 0 0 .483-.988Zm3.091 0a1.013 1.013 0 1 0 0 .045Zm3.1 0a1.014 1.014 0 1 0 0 .045Zm3.091 0a1.038 1.038 0 1 0-.483.988 1.038 1.038 0 0 0 .483-.988Zm3.1 0a1.014 1.014 0 1 0 0 .045Zm3.091 0a1.038 1.038 0 1 0-1.038 1.038 1.027 1.027 0 0 0 1.038-.993Zm-15.477 8.514a1.038 1.038 0 1 0-1.027 1.027 1.027 1.027 0 0 0 1.027-.982Zm3.091 0a1 1 0 1 0 0 .045Zm3.1 0a1 1 0 1 0 0 .045Zm3.091 0a1.038 1.038 0 1 0-1.027 1.027 1.027 1.027 0 0 0 1.071-.982Zm3.1 0a1 1 0 1 0 0 .045Zm3.091 0a1.038 1.038 0 1 0-1.038 1.027 1.027 1.027 0 0 0 1.038-.982Z"/><path data-name="Path 3931" d="M292.55 139.88h-3.615a.893.893 0 0 1 0-1.785h3.615a.893.893 0 0 1 0 1.785Zm.893 3.236a.893.893 0 0 0-.893-.893h-3.616a.893.893 0 0 0 0 1.774h3.615a.882.882 0 0 0 .893-.837Zm0 4.118a.881.881 0 0 0-.893-.882h-3.616a.893.893 0 0 0 0 1.774h3.615a.893.893 0 0 0 .893-.848Zm0 4.129a.893.893 0 0 0-.893-.893h-3.616a.893.893 0 0 0 0 1.785h3.615a.893.893 0 0 0 .893-.848Zm0 4.129a.893.893 0 0 0-.893-.893h-3.616a.893.893 0 0 0 0 1.785h3.615a.893.893 0 0 0 .893-.882Zm0 4.129a.893.893 0 0 0-.893-.893h-3.616a.893.893 0 0 0 0 1.785h3.615a.893.893 0 0 0 .893-.848Zm0 4.129a.893.893 0 0 0-.893-.893h-3.616a.893.893 0 0 0 0 1.785h3.615a.893.893 0 0 0 .893-.848Zm0 4.129a.893.893 0 0 0-.893-.893h-3.616a.887.887 0 0 0 0 1.774h3.615a.882.882 0 0 0 .893-.837Zm13.5-28.89a.882.882 0 0 0-.882-.893h-9.485a.893.893 0 0 0 0 1.785h9.486a.882.882 0 0 0 .882-.848Zm0 4.129a.882.882 0 0 0-.882-.893h-9.485a.893.893 0 1 0 0 1.774h9.486a.882.882 0 0 0 .882-.837Zm0 4.118a.881.881 0 0 0-.882-.882h-9.485a.893.893 0 1 0 0 1.774h9.486a.882.882 0 0 0 .882-.848Zm0 4.129a.882.882 0 0 0-.882-.893h-9.485a.893.893 0 0 0 0 1.785h9.486a.882.882 0 0 0 .882-.848Zm0 4.129a.882.882 0 0 0-.882-.893h-9.485a.893.893 0 0 0 0 1.785h9.486a.882.882 0 0 0 .882-.882Zm11.36 4.129a.893.893 0 0 0-.893-.893h-9.485a.893.893 0 0 0 0 1.785h9.485a.893.893 0 0 0 .893-.848Zm0 4.129a.893.893 0 0 0-.893-.893h-9.485a.893.893 0 0 0 0 1.785h9.485a.893.893 0 0 0 .893-.848Zm0 4.129a.893.893 0 0 0-.893-.893h-9.485a.893.893 0 0 0-.893.893.882.882 0 0 0 .893.882h9.485a.882.882 0 0 0 .893-.837Zm-7.186-28.89a1 1 0 1 0 0 .045Zm3.1 0a1.038 1.038 0 1 0-1.032.93 1.038 1.038 0 0 0 1.032-.93Zm3.091 0a1 1 0 1 0 0 .045Zm3.091 0a1.027 1.027 0 1 0-1.027 1.027 1.038 1.038 0 0 0 1.027-.982Zm3.1 0a1.038 1.038 0 1 0-1.032.93 1.038 1.038 0 0 0 1.032-.93Zm3.091 0a4.89 4.89 0 1 0-.033.045Zm-15.477 8.246a1.038 1.038 0 1 0-.483.988 1.038 1.038 0 0 0 .483-.988Zm3.1 0a1.014 1.014 0 1 0 0 .045Zm3.091 0a1.038 1.038 0 1 0-.483.988 1.038 1.038 0 0 0 .483-.988Zm3.091 0a1.013 1.013 0 1 0 0 .045Zm3.1 0a1.014 1.014 0 1 0 0 .045Zm3.091 0a1.038 1.038 0 1 0-.483.988 1.038 1.038 0 0 0 .483-.988Zm-4.9 11.873a1 1 0 1 0 0 .045Zm3.091 0a1.027 1.027 0 1 0-1.027 1.027 1.038 1.038 0 0 0 1.027-.982Zm3.1 0a1.038 1.038 0 1 0-1.032.93 1.038 1.038 0 0 0 1.032-.93Zm3.091 0a.727.727 0 1 0 .045.045Zm3.1 0a1.038 1.038 0 1 0-1.032.93 1.038 1.038 0 0 0 1.032-.93Zm3.091 0a1.038 1.038 0 1 0-1.032.93 1.038 1.038 0 0 0 1.032-.93Zm-15.477 8.514a1.038 1.038 0 1 0-1.027 1.027 1.027 1.027 0 0 0 1.027-.982Zm3.091 0a1 1 0 1 0 0 .045Zm3.1 0a1.038 1.038 0 1 0-1.032.93 1.038 1.038 0 0 0 1.032-.93Zm3.091 0a1.038 1.038 0 1 0-1.027 1.027 1.027 1.027 0 0 0 1.071-.982Zm3.1 0a1.038 1.038 0 1 0-1.032.93 1.038 1.038 0 0 0 1.032-.93Zm3.091 0a1.038 1.038 0 1 0-1.038 1.027 1.027 1.027 0 0 0 1.038-.982Z"/><path data-name="Path 3932" d="M292.55 173.747h-3.615a.893.893 0 0 1 0-1.785h3.615a.893.893 0 0 1 0 1.785Zm.893 3.236a.893.893 0 0 0-.893-.893h-3.616a.893.893 0 0 0 0 1.774h3.615a.882.882 0 0 0 .893-.882Zm0 4.118a.882.882 0 0 0-.893-.882h-3.616a.893.893 0 0 0 0 1.774h3.615a.893.893 0 0 0 .893-.893Zm0 4.129a.893.893 0 0 0-.893-.893h-3.616a.893.893 0 0 0 0 1.785h3.615a.893.893 0 0 0 .893-.893Zm0 4.129a.893.893 0 0 0-.893-.893h-3.616a.893.893 0 0 0 0 1.785h3.615a.893.893 0 0 0 .893-.893Zm0 4.129a.893.893 0 0 0-.893-.893h-3.616a.893.893 0 0 0 0 1.785h3.615a.893.893 0 0 0 .893-.937Zm0 4.129a.893.893 0 0 0-.893-.893h-3.616a.893.893 0 0 0 0 1.785h3.615a.893.893 0 0 0 .893-.893Zm0 4.129a.893.893 0 0 0-.893-.893h-3.616a.887.887 0 0 0 0 1.774h3.616a.882.882 0 0 0 .893-.882Zm13.5-28.89a.882.882 0 0 0-.882-.893h-9.485a.893.893 0 0 0 0 1.785h9.486a.882.882 0 0 0 .882-.893Zm0 4.129a.882.882 0 0 0-.882-.893h-9.485a.893.893 0 1 0 0 1.774h9.486a.882.882 0 0 0 .882-.882Zm0 4.118a.882.882 0 0 0-.882-.882h-9.485a.893.893 0 1 0 0 1.774h9.486a.882.882 0 0 0 .882-.893Zm0 4.129a.882.882 0 0 0-.882-.893h-9.485a.893.893 0 0 0 0 1.785h9.486a.882.882 0 0 0 .882-.893Zm0 4.129a.882.882 0 0 0-.882-.893h-9.485a.893.893 0 0 0 0 1.785h9.486a.882.882 0 0 0 .882-.893Zm11.36 4.084a.893.893 0 0 0-.893-.893h-9.485a.893.893 0 0 0 0 1.785h9.485a.893.893 0 0 0 .893-.893Zm0 4.129a.893.893 0 0 0-.893-.893h-9.485a.893.893 0 0 0 0 1.785h9.485a.893.893 0 0 0 .893-.848Zm0 4.129a.893.893 0 0 0-.893-.893h-9.485a.893.893 0 0 0-.893.893.882.882 0 0 0 .893.882h9.485a.882.882 0 0 0 .893-.837Zm-7.186-28.89a1 1 0 1 0 0 .045Zm3.1 0a1.038 1.038 0 1 0-1.032.93 1.038 1.038 0 0 0 1.036-.933Zm3.091 0a1 1 0 1 0 0 .045Zm3.091 0a1.027 1.027 0 1 0-1.027 1.027 1.038 1.038 0 0 0 1.027-.982Zm3.1 0a1.038 1.038 0 1 0-1.032.93 1.038 1.038 0 0 0 1.032-.93Zm3.091 0a4.891 4.891 0 1 0-.033.045Zm-15.477 8.246a1.038 1.038 0 1 0-.483.988 1.038 1.038 0 0 0 .483-.988Zm3.1 0a1.015 1.015 0 1 0 0 .045Zm3.091 0a1.038 1.038 0 1 0-.483.988 1.038 1.038 0 0 0 .483-.988Zm3.091 0a1.014 1.014 0 1 0 0 .045Zm3.1 0a1.014 1.014 0 1 0 0 .045Zm3.091 0a1.038 1.038 0 1 0-.483.988 1.038 1.038 0 0 0 .483-.988Zm-4.9 11.873a1 1 0 1 0 0 .045Zm3.091 0a1.027 1.027 0 1 0-1.027 1.027 1.038 1.038 0 0 0 1.027-.982Zm3.1 0a1.038 1.038 0 1 0-1.032.93 1.038 1.038 0 0 0 1.032-.93Zm3.091 0a.727.727 0 1 0 .045.045Zm3.1 0a1.038 1.038 0 1 0-1.032.93 1.038 1.038 0 0 0 1.032-.93Zm3.091 0a1.038 1.038 0 1 0-1.032.93 1.038 1.038 0 0 0 1.032-.93Zm-15.477 8.514a1.038 1.038 0 1 0-1.027 1.027 1.027 1.027 0 0 0 1.027-.982Zm3.091 0a1 1 0 1 0 0 .045Zm3.1 0a1.038 1.038 0 1 0-1.032.93 1.038 1.038 0 0 0 1.032-.93Zm3.091 0a1.038 1.038 0 1 0-1.027 1.027 1.027 1.027 0 0 0 1.071-.982Zm3.1 0a1.038 1.038 0 1 0-1.032.93 1.038 1.038 0 0 0 1.032-.93Zm3.091 0a1.038 1.038 0 1 0-1.038 1.027 1.026 1.026 0 0 0 1.038-.982Z"/><path data-name="Path 3933" d="M347.987 106.894h-3.574a.893.893 0 0 1 0-1.785h3.6a.893.893 0 0 1 0 1.785Zm.893 3.236a.893.893 0 0 0-.893-.893h-3.574a.893.893 0 0 0 0 1.785h3.6a.893.893 0 0 0 .867-.892Zm0 4.129a.893.893 0 0 0-.893-.893h-3.574a.893.893 0 0 0 0 1.785h3.6a.893.893 0 0 0 .859-.937Zm0 4.129a.893.893 0 0 0-.893-.893h-3.574a.893.893 0 0 0 0 1.785h3.6a.893.893 0 0 0 .859-.893Zm0 4.129a.882.882 0 0 0-.893-.893h-3.574a.893.893 0 1 0 0 1.774h3.6a.882.882 0 0 0 .859-.882Zm0 4.118a.881.881 0 0 0-.893-.882h-3.574a.893.893 0 1 0 0 1.774h3.6a.882.882 0 0 0 .859-.893Zm0 4.129a.893.893 0 0 0-.893-.893h-3.574a.893.893 0 0 0 0 1.785h3.6a.893.893 0 0 0 .859-.893Zm0 4.129a.893.893 0 0 0-.893-.893h-3.574a.893.893 0 0 0 0 1.785h3.6a.893.893 0 0 0 .859-.893Zm13.513-28.89a.893.893 0 0 0-.893-.893h-9.474a.893.893 0 0 0 0 1.785h9.474a.893.893 0 0 0 .893-.893Zm0 4.129a.893.893 0 0 0-.893-.893h-9.474a.893.893 0 0 0 0 1.785h9.474a.893.893 0 0 0 .893-.893Zm0 4.129a.893.893 0 0 0-.893-.893h-9.474a.893.893 0 0 0 0 1.785h9.474a.893.893 0 0 0 .893-.937Zm0 4.129a.893.893 0 0 0-.893-.893h-9.474a.893.893 0 0 0 0 1.785h9.474a.893.893 0 0 0 .893-.893Zm0 4.129a.893.893 0 0 0-.893-.893h-9.474a.893.893 0 1 0 0 1.774h9.474a.882.882 0 0 0 .893-.882Zm11.349 4.118a.882.882 0 0 0-.893-.882h-9.463a.893.893 0 1 0 0 1.774h9.474a.893.893 0 0 0 .882-.893Zm0 4.129a.893.893 0 0 0-.893-.893h-9.463a.893.893 0 0 0 0 1.785h9.474a.893.893 0 0 0 .882-.893Zm0 4.129a.893.893 0 0 0-.893-.893h-9.463a.893.893 0 0 0 0 1.785h9.474a.893.893 0 0 0 .882-.893Zm-7.175-28.89a1.038 1.038 0 1 0-1.038 1.038 1.038 1.038 0 0 0 1.038-1.038Zm3.091 0a1.038 1.038 0 1 0-.483.988 1.038 1.038 0 0 0 .483-.988Zm3.1 0a1.038 1.038 0 1 0-1.038 1.038 1.038 1.038 0 0 0 1.038-1.038Zm3.091 0a1.038 1.038 0 1 0-1.038 1.038 1.027 1.027 0 0 0 1.038-1.038Zm3.091 0a1.038 1.038 0 1 0-.483.988 1.038 1.038 0 0 0 .483-.988Zm3.1 0a1.038 1.038 0 1 0-1.038 1.038 1.038 1.038 0 0 0 1.038-1.038Zm-15.477 8.213a1.038 1.038 0 1 0-1.032.93 1.038 1.038 0 0 0 1.032-.93Zm3.091 0a1.038 1.038 0 1 0-1.027 1.027 1.038 1.038 0 0 0 1.027-1.027Zm3.1 0a1.038 1.038 0 1 0-1.032.93 1.038 1.038 0 0 0 1.032-.93Zm3.091 0a1.038 1.038 0 1 0-1.032.93 1.038 1.038 0 0 0 1.032-.93Zm3.091 0a1.038 1.038 0 1 0-1.027 1.027 1.038 1.038 0 0 0 1.027-1.027Zm3.1 0a1.038 1.038 0 1 0-1.032.93 1.038 1.038 0 0 0 1.032-.93Zm-4.9 11.862a1.014 1.014 0 1 0 0 .045Zm3.091 0a1.014 1.014 0 1 0 0 .045Zm3.091 0a1.038 1.038 0 1 0-.483.988 1.038 1.038 0 0 0 .483-.988Zm3.1 0a1.014 1.014 0 1 0 0 .045Zm3.091 0a1.038 1.038 0 1 0-.483.988 1.038 1.038 0 0 0 .483-.988Zm3.091 0a1.038 1.038 0 1 0-.482.988 1.038 1.038 0 0 0 .482-.988Zm-15.466 8.514a1 1 0 1 0 0 .045Zm3.091 0a1 1 0 1 0 0 .045Zm3.091 0a1.038 1.038 0 1 0-1.027 1.027 1.027 1.027 0 0 0 1.027-.982Zm3.1 0a1 1 0 1 0 0 .045Zm3.091 0a1.038 1.038 0 1 0-1.027 1.027 1.027 1.027 0 0 0 1.027-.982Zm3.091 0a1.038 1.038 0 1 0-1.027 1.027 1.027 1.027 0 0 0 1.027-.982Z"/><path data-name="Path 3934" d="M347.987 140.717h-3.574a.893.893 0 0 1 0-1.785h3.6a.893.893 0 0 1 0 1.785Zm.893 3.236a.893.893 0 0 0-.893-.893h-3.574a.893.893 0 0 0 0 1.785h3.6a.893.893 0 0 0 .867-.892Zm0 4.129a.893.893 0 0 0-.893-.893h-3.574a.893.893 0 0 0 0 1.785h3.6a.893.893 0 0 0 .867-.892Zm0 4.129a.893.893 0 0 0-.893-.893h-3.574a.893.893 0 0 0 0 1.785h3.6a.893.893 0 0 0 .859-.893Zm0 4.129a.882.882 0 0 0-.893-.893h-3.574a.893.893 0 1 0 0 1.774h3.6a.882.882 0 0 0 .859-.882Zm0 4.118a.882.882 0 0 0-.893-.882h-3.574a.893.893 0 1 0 0 1.774h3.6a.882.882 0 0 0 .859-.893Zm0 4.129a.893.893 0 0 0-.893-.893h-3.574a.893.893 0 0 0 0 1.785h3.6a.893.893 0 0 0 .867-.893Zm0 4.129a.893.893 0 0 0-.893-.893h-3.574a.893.893 0 0 0 0 1.785h3.6a.893.893 0 0 0 .867-.894Zm13.513-28.835a.893.893 0 0 0-.893-.893h-9.474a.893.893 0 0 0 0 1.785h9.474a.893.893 0 0 0 .893-.893Zm0 4.129a.893.893 0 0 0-.893-.893h-9.474a.893.893 0 0 0 0 1.785h9.474a.893.893 0 0 0 .893-.948Zm0 4.129a.893.893 0 0 0-.893-.893h-9.474a.893.893 0 0 0 0 1.785h9.474a.893.893 0 0 0 .893-.949Zm0 4.129a.893.893 0 0 0-.893-.893h-9.474a.893.893 0 0 0 0 1.785h9.474a.893.893 0 0 0 .893-.948Zm0 4.129a.893.893 0 0 0-.893-.893h-9.474a.893.893 0 1 0 0 1.774h9.474a.882.882 0 0 0 .893-.937Zm11.349 4.118a.882.882 0 0 0-.893-.882h-9.463a.893.893 0 1 0 0 1.774h9.474a.893.893 0 0 0 .882-.949Zm0 4.129a.893.893 0 0 0-.893-.893h-9.463a.893.893 0 0 0 0 1.785h9.474a.893.893 0 0 0 .882-.948Zm0 4.129a.893.893 0 0 0-.893-.893h-9.463a.893.893 0 0 0 0 1.785h9.474a.893.893 0 0 0 .882-.949Zm-7.175-28.89a1.038 1.038 0 1 0-1.038 1.038 1.038 1.038 0 0 0 1.038-1.038Zm3.091 0a1.038 1.038 0 1 0-.483.988 1.038 1.038 0 0 0 .483-.988Zm3.1 0a1.038 1.038 0 1 0-1.038 1.038 1.038 1.038 0 0 0 1.038-1.038Zm3.091 0a1.038 1.038 0 1 0-1.038 1.038 1.027 1.027 0 0 0 1.038-1.038Zm3.091 0a1.038 1.038 0 1 0-.483.988 1.038 1.038 0 0 0 .483-.988Zm3.1 0a1.038 1.038 0 1 0-1.038 1.038 1.038 1.038 0 0 0 1.038-1.038Zm-15.477 8.258a1.038 1.038 0 1 0-1.032.93 1.038 1.038 0 0 0 1.032-.93Zm3.091 0a1.085 1.085 0 1 1 0-.056Zm3.1 0a1.038 1.038 0 1 0-1.032.93 1.038 1.038 0 0 0 1.032-.93Zm3.091 0a1.038 1.038 0 1 0-1.032.93 1.038 1.038 0 0 0 1.032-.93Zm3.091 0a1.085 1.085 0 1 1 0-.056Zm3.1 0a1.038 1.038 0 1 0-1.032.93 1.038 1.038 0 0 0 1.032-.93Zm-4.9 11.828a1.038 1.038 0 1 0-1.038 1.038 1.038 1.038 0 0 0 1.038-1.038Zm3.091 0a1.038 1.038 0 1 0-1.038 1.038 1.038 1.038 0 0 0 1.038-1.038Zm3.091 0a1.038 1.038 0 1 0-.483.988 1.038 1.038 0 0 0 .483-.988Zm3.1 0a1.038 1.038 0 1 0-1.038 1.038 1.038 1.038 0 0 0 1.038-1.038Zm3.091 0a1.038 1.038 0 1 0-.483.988 1.038 1.038 0 0 0 .483-.988Zm3.091 0a1.038 1.038 0 1 0-.483.988 1.038 1.038 0 0 0 .483-.988Zm-15.466 8.514a1.041 1.041 0 1 1 0-.022Zm3.091 0a1.045 1.045 0 1 1 0-.022Zm3.091 0a1.038 1.038 0 1 0-1.027 1.027 1.027 1.027 0 0 0 1.027-1.049Zm3.1 0a1.041 1.041 0 1 1 0-.022Zm3.091 0a1.038 1.038 0 1 0-1.027 1.027 1.027 1.027 0 0 0 1.027-1.049Zm3.091 0a1.038 1.038 0 1 0-1.027 1.027 1.027 1.027 0 0 0 1.027-1.049Z"/><path data-name="Path 3935" d="M170.984 31.873h-3.615a.893.893 0 1 1 0-1.785h3.615a.893.893 0 1 1 0 1.785Zm.893 3.236a.893.893 0 0 0-.893-.893h-3.615a.893.893 0 0 0 0 1.785h3.615a.893.893 0 0 0 .893-.892Zm0 4.129a.893.893 0 0 0-.893-.893h-3.615a.893.893 0 0 0 0 1.785h3.615a.893.893 0 0 0 .893-.893Zm0 4.129a.893.893 0 0 0-.893-.893h-3.615a.887.887 0 0 0 0 1.774h3.616a.882.882 0 0 0 .893-.882Zm0 4.118a.882.882 0 0 0-.893-.882h-3.615a.893.893 0 0 0 0 1.774h3.615a.893.893 0 0 0 .893-.893Zm0 4.129a.882.882 0 0 0-.893-.882h-3.615a.887.887 0 0 0 0 1.774h3.615a.893.893 0 0 0 .893-.893Zm0 4.129a.893.893 0 0 0-.893-.893h-3.615a.893.893 0 0 0 0 1.785h3.615a.893.893 0 0 0 .893-.893Zm0 4.129a.893.893 0 0 0-.893-.893h-3.615a.893.893 0 1 0 0 1.785h3.615a.893.893 0 0 0 .893-.893Zm13.513-28.89a.893.893 0 0 0-.893-.893h-9.485a.893.893 0 0 0 0 1.785h9.485a.893.893 0 0 0 .893-.893Zm0 4.129a.893.893 0 0 0-.893-.893h-9.485a.893.893 0 0 0 0 1.785h9.485a.893.893 0 0 0 .893-.893Zm0 4.129a.893.893 0 0 0-.893-.893h-9.485a.893.893 0 1 0 0 1.785h9.485a.893.893 0 0 0 .893-.893Zm0 4.129a.893.893 0 0 0-.893-.893h-9.485a.893.893 0 0 0-.893.893.882.882 0 0 0 .893.882h9.485a.882.882 0 0 0 .893-.882Zm0 4.118a.882.882 0 0 0-.893-.882h-9.485a.893.893 0 1 0 0 1.774h9.485a.893.893 0 0 0 .893-.893Zm11.349 4.129a.882.882 0 0 0-.893-.882h-9.485a.882.882 0 0 0-.893.882.893.893 0 0 0 .893.893h9.485a.893.893 0 0 0 .893-.893Zm0 4.129a.893.893 0 0 0-.893-.893h-9.485a.893.893 0 1 0 0 1.785h9.485a.893.893 0 0 0 .893-.893Zm0 4.129a.893.893 0 0 0-.893-.893h-9.485a.893.893 0 0 0 0 1.785h9.485a.893.893 0 0 0 .893-.893Zm-7.186-28.89a1.038 1.038 0 1 0-.483.988 1.038 1.038 0 0 0 .483-.988Zm3.1 0a1.038 1.038 0 1 0-1.038 1.038 1.038 1.038 0 0 0 1.038-1.038Zm3.091 0a1.038 1.038 0 1 0-.483.988 1.038 1.038 0 0 0 .485-.992Zm3.1 0a1.038 1.038 0 1 0-1.038 1.038 1.038 1.038 0 0 0 1.038-1.038Zm3.091 0a1.038 1.038 0 1 0-1.038 1.038 1.027 1.027 0 0 0 1.039-1.042Zm3.091 0a1.038 1.038 0 1 0-.482.988 1.038 1.038 0 0 0 .482-.988Zm-15.477 8.258a1.038 1.038 0 1 0-1.027 1.027 1.038 1.038 0 0 0 1.027-1.027Zm3.1 0a1.038 1.038 0 1 0-1.032.93 1.038 1.038 0 0 0 1.032-.93Zm3.091 0a1.038 1.038 0 1 0-1.027 1.027 1.038 1.038 0 0 0 1.027-1.027Zm3.1 0a1.038 1.038 0 1 0-1.032.93 1.038 1.038 0 0 0 1.032-.93Zm3.091 0a1.038 1.038 0 1 0-1.032.93 1.038 1.038 0 0 0 1.032-.93Zm3.091 0a1.038 1.038 0 1 0-1.027 1.027 1.038 1.038 0 0 0 1.027-1.027Zm-4.9 11.862a1.038 1.038 0 1 0-.483.988 1.038 1.038 0 0 0 .483-.988Zm3.1 0a1.038 1.038 0 1 0-1.038 1.038 1.038 1.038 0 0 0 1.038-1.038Zm3.091 0a1.038 1.038 0 1 0-1.038 1.038 1.038 1.038 0 0 0 1.038-1.038Zm3.091 0a1.038 1.038 0 1 0-.483.988 1.038 1.038 0 0 0 .483-.988Zm3.1 0a1.038 1.038 0 1 0-1.038 1.038 1.038 1.038 0 0 0 1.038-1.038Zm3.091 0a1.038 1.038 0 1 0-.483.988 1.038 1.038 0 0 0 .483-.988Zm-15.459 8.51a1.038 1.038 0 1 0-1.027 1.027 1.038 1.038 0 0 0 1.027-1.027Zm3.1 0a1.038 1.038 0 1 0-1.032.93 1.038 1.038 0 0 0 1.032-.93Zm3.091 0a1.038 1.038 0 1 0-1.032.93 1.038 1.038 0 0 0 1.032-.93Zm3.091 0a1.018 1.018 0 1 1-.022 0Zm3.1 0a1.038 1.038 0 1 0-1.032.93 1.038 1.038 0 0 0 1.032-.93Zm3.091 0a1.038 1.038 0 1 0-1.027 1.027 1.038 1.038 0 0 0 1.027-1.027Z"/><path data-name="Path 3936" d="M170.984 64.892h-3.615a.887.887 0 0 1 0-1.774h3.615a.893.893 0 0 1 .893.893.882.882 0 0 1-.893.882Zm.893 3.236a.882.882 0 0 0-.893-.882h-3.615a.893.893 0 0 0 0 1.774h3.615a.893.893 0 0 0 .893-.892Zm0 4.129a.882.882 0 0 0-.893-.882h-3.615a.887.887 0 0 0 0 1.774h3.615a.893.893 0 0 0 .893-.893Zm0 4.129a.893.893 0 0 0-.893-.893h-3.615a.893.893 0 0 0 0 1.785h3.615a.893.893 0 0 0 .893-.893Zm0 4.129a.893.893 0 0 0-.893-.893h-3.615a.893.893 0 1 0 0 1.785h3.615a.893.893 0 0 0 .893-.893Zm0 4.129a.893.893 0 0 0-.893-.893h-3.615a.893.893 0 1 0 0 1.785h3.615a.893.893 0 0 0 .893-.893Zm0 4.129a.893.893 0 0 0-.893-.893h-3.615a.893.893 0 1 0 0 1.785h3.615a.893.893 0 0 0 .893-.893Zm0 4.129a.893.893 0 0 0-.893-.893h-3.615a.893.893 0 0 0 0 1.774h3.615a.882.882 0 0 0 .893-.882Zm13.513-28.9a.893.893 0 0 0-.893-.893h-9.485a.893.893 0 0 0-.893.893.882.882 0 0 0 .893.882h9.485a.882.882 0 0 0 .893-.882Zm0 4.118a.882.882 0 0 0-.893-.882h-9.485a.893.893 0 1 0 0 1.774h9.485a.893.893 0 0 0 .893-.882Zm0 4.129a.882.882 0 0 0-.893-.882h-9.485a.882.882 0 0 0-.893.882.893.893 0 0 0 .893.893h9.485a.893.893 0 0 0 .893-.882Zm0 4.129a.893.893 0 0 0-.893-.893h-9.485a.893.893 0 0 0 0 1.785h9.485a.893.893 0 0 0 .893-.882Zm0 4.129a.893.893 0 0 0-.893-.893h-9.485a.893.893 0 0 0 0 1.785h9.485a.893.893 0 0 0 .893-.882Zm11.349 4.129a.893.893 0 0 0-.893-.893h-9.485a.893.893 0 0 0 0 1.785h9.485a.893.893 0 0 0 .893-.882Zm0 4.129a.893.893 0 0 0-.893-.893h-9.485a.893.893 0 0 0 0 1.785h9.485a.893.893 0 0 0 .893-.882Zm0 4.129a.893.893 0 0 0-.893-.893h-9.485a.893.893 0 1 0 0 1.774h9.485a.882.882 0 0 0 .893-.87Zm-7.186-28.89a1.038 1.038 0 1 0-1.027 1.027 1.038 1.038 0 0 0 1.027-1.027Zm3.1 0a1.038 1.038 0 1 0-1.032.93 1.038 1.038 0 0 0 1.034-.935Zm3.091 0a1.038 1.038 0 1 0-1.027 1.027 1.038 1.038 0 0 0 1.027-1.027Zm3.1 0a1.038 1.038 0 1 0-1.032.93 1.038 1.038 0 0 0 1.032-.93Zm3.091 0a1.038 1.038 0 1 0-1.032.93 1.038 1.038 0 0 0 1.032-.93Zm3.091 0a1.038 1.038 0 1 0-1.027 1.027 1.038 1.038 0 0 0 1.031-1.032Zm-15.477 8.246a1.038 1.038 0 1 0-.482.988 1.038 1.038 0 0 0 .482-.988Zm3.1 0a1.034 1.034 0 1 0 0 .011Zm3.091 0a1.038 1.038 0 1 0-.482.988 1.038 1.038 0 0 0 .482-.988Zm3.1 0a1.032 1.032 0 1 0 0 .011Zm3.091 0a1.038 1.038 0 1 0-1.038 1.038 1.027 1.027 0 0 0 1.043-1.031Zm3.091 0a1.038 1.038 0 1 0-.482.988 1.038 1.038 0 0 0 .482-.988Zm-4.9 11.84a1.038 1.038 0 1 0-1.027 1.027 1.038 1.038 0 0 0 1.027-1.027Zm3.1 0a1.038 1.038 0 1 0-1.032.93 1.038 1.038 0 0 0 1.032-.93Zm3.091 0a1.038 1.038 0 1 0-1.032.93 1.038 1.038 0 0 0 1.032-.93Zm3.091 0a1.016 1.016 0 1 1-.022 0Zm3.1 0a1.038 1.038 0 1 0-1.032.93 1.038 1.038 0 0 0 1.032-.93Zm3.091 0a1.038 1.038 0 1 0-1.027 1.027 1.038 1.038 0 0 0 1.027-1.027Zm-15.477 8.5a1.038 1.038 0 1 0-.482.988 1.038 1.038 0 0 0 .482-.988Zm3.1 0a1.016 1.016 0 1 0 0 .045Zm3.091 0a1.016 1.016 0 1 0 0 .045Zm3.091 0a1.038 1.038 0 1 0-.482.988 1.038 1.038 0 0 0 .482-.988Zm3.1 0a1.016 1.016 0 1 0 0 .045Zm3.091 0a1.038 1.038 0 1 0-.483.988 1.038 1.038 0 0 0 .483-.988Z"/><path data-name="Path 3937" d="M170.984 98.714h-3.615a.887.887 0 0 1 0-1.774h3.615a.893.893 0 0 1 .893.893.882.882 0 0 1-.893.882Zm.893 3.236a.882.882 0 0 0-.893-.882h-3.615a.893.893 0 0 0 0 1.774h3.615a.893.893 0 0 0 .893-.9Zm0 4.129a.893.893 0 0 0-.893-.893h-3.615a.893.893 0 1 0 0 1.785h3.615a.893.893 0 0 0 .893-.892Zm0 4.129a.893.893 0 0 0-.893-.893h-3.615a.893.893 0 1 0 0 1.785h3.615a.893.893 0 0 0 .893-.893Zm0 4.129a.893.893 0 0 0-.893-.893h-3.615a.893.893 0 1 0 0 1.785h3.615a.893.893 0 0 0 .893-.893Zm0 4.129a.893.893 0 0 0-.893-.893h-3.615a.893.893 0 1 0 0 1.785h3.615a.893.893 0 0 0 .893-.893Zm0 4.129a.893.893 0 0 0-.893-.893h-3.615a.893.893 0 1 0 0 1.785h3.615a.893.893 0 0 0 .893-.893Zm0 4.129a.893.893 0 0 0-.893-.893h-3.615a.893.893 0 0 0 0 1.774h3.615a.882.882 0 0 0 .893-.882Zm13.513-28.89a.893.893 0 0 0-.893-.893h-9.485a.893.893 0 0 0-.893.893.882.882 0 0 0 .893.882h9.485a.882.882 0 0 0 .893-.882Zm0 4.118a.881.881 0 0 0-.893-.882h-9.485a.893.893 0 1 0 0 1.774h9.485a.893.893 0 0 0 .893-.9Zm0 4.129a.893.893 0 0 0-.893-.893h-9.485a.893.893 0 1 0 0 1.785h9.485a.893.893 0 0 0 .893-.893Zm0 4.129a.893.893 0 0 0-.893-.893h-9.485a.893.893 0 1 0 0 1.785h9.485a.893.893 0 0 0 .893-.893Zm0 4.129a.893.893 0 0 0-.893-.893h-9.485a.893.893 0 1 0 0 1.785h9.485a.893.893 0 0 0 .893-.893Zm11.349 4.129a.893.893 0 0 0-.893-.893h-9.485a.893.893 0 1 0 0 1.785h9.485a.893.893 0 0 0 .893-.893Zm0 4.129a.893.893 0 0 0-.893-.893h-9.485a.893.893 0 1 0 0 1.785h9.485a.893.893 0 0 0 .893-.893Zm0 4.129a.893.893 0 0 0-.893-.893h-9.485a.893.893 0 1 0 0 1.774h9.485a.882.882 0 0 0 .893-.882Zm-7.186-28.89a1.038 1.038 0 1 0-1.027 1.027 1.038 1.038 0 0 0 1.027-1.027Zm3.1 0a1.038 1.038 0 1 0-1.032.93 1.038 1.038 0 0 0 1.032-.93Zm3.091 0a1.038 1.038 0 1 0-1.027 1.027 1.038 1.038 0 0 0 1.027-1.027Zm3.1 0a1.038 1.038 0 1 0-1.032.93 1.038 1.038 0 0 0 1.032-.93Zm3.091 0a1.038 1.038 0 1 0-1.032.93 1.038 1.038 0 0 0 1.032-.93Zm3.091 0a1.038 1.038 0 1 0-1.027 1.027 1.038 1.038 0 0 0 1.027-1.027Zm-15.477 8.246a1.038 1.038 0 1 0-.482.988 1.038 1.038 0 0 0 .486-.991Zm3.1 0a1.038 1.038 0 1 0-1.038 1.038 1.038 1.038 0 0 0 1.038-1.038Zm3.091 0a1.038 1.038 0 1 0-.482.988 1.038 1.038 0 0 0 .488-.991Zm3.1 0a1.038 1.038 0 1 0-1.038 1.038 1.038 1.038 0 0 0 1.038-1.038Zm3.091 0a1.038 1.038 0 1 0-1.038 1.038 1.027 1.027 0 0 0 1.043-1.041Zm3.091 0a1.038 1.038 0 1 0-.482.988 1.038 1.038 0 0 0 .482-.988Zm-4.9 11.873a1.038 1.038 0 1 0-1.027 1.027 1.038 1.038 0 0 0 1.027-1.027Zm3.1 0a1.038 1.038 0 1 0-1.032.93 1.038 1.038 0 0 0 1.032-.93Zm3.091 0a1.038 1.038 0 1 0-1.032.93 1.038 1.038 0 0 0 1.032-.93Zm3.091 0a1.018 1.018 0 1 1-.022 0Zm3.1 0a1.038 1.038 0 1 0-1.032.93 1.038 1.038 0 0 0 1.032-.93Zm3.091 0a1.038 1.038 0 1 0-1.027 1.027 1.038 1.038 0 0 0 1.027-1.027Zm-15.459 8.539a1.038 1.038 0 1 0-.483.988 1.038 1.038 0 0 0 .483-.988Zm3.1 0a1.038 1.038 0 1 0-1.038 1.038 1.038 1.038 0 0 0 1.038-1.038Zm3.091 0a1.038 1.038 0 1 0-1.038 1.038 1.038 1.038 0 0 0 1.036-1.038Zm3.091 0a1.038 1.038 0 1 0-.482.988 1.038 1.038 0 0 0 .48-.988Zm3.1 0a1.038 1.038 0 1 0-1.038 1.038 1.038 1.038 0 0 0 1.038-1.038Zm3.091 0a1.038 1.038 0 1 0-.483.988 1.038 1.038 0 0 0 .483-.988Z"/><path data-name="Path 3938" d="M226.433 31.873h-3.652a.893.893 0 0 1 0-1.785h3.616a.893.893 0 0 1 0 1.785Zm.882 3.236a.882.882 0 0 0-.882-.893h-3.652a.893.893 0 0 0 0 1.785h3.616a.882.882 0 0 0 .915-.893Zm0 4.129a.881.881 0 0 0-.882-.893h-3.652a.893.893 0 0 0 0 1.785h3.616a.882.882 0 0 0 .915-.893Zm0 4.129a.881.881 0 0 0-.882-.893h-3.652a.893.893 0 0 0-.893.893.882.882 0 0 0 .893.882h3.616a.882.882 0 0 0 .915-.882Zm0 4.118a.882.882 0 0 0-.882-.882h-3.652a.893.893 0 1 0 0 1.774h3.616a.882.882 0 0 0 .915-.893Zm0 4.129a.882.882 0 0 0-.882-.882h-3.652a.882.882 0 0 0-.893.882.893.893 0 0 0 .893.893h3.616a.882.882 0 0 0 .915-.893Zm0 4.129a.882.882 0 0 0-.882-.893h-3.652a.893.893 0 0 0 0 1.785h3.616a.882.882 0 0 0 .915-.893Zm0 4.129a.881.881 0 0 0-.882-.893h-3.652a.893.893 0 0 0 0 1.785h3.616a.882.882 0 0 0 .915-.893Zm13.513-28.89a.893.893 0 0 0-.893-.893h-9.474a.893.893 0 1 0 0 1.785h9.474a.893.893 0 0 0 .893-.893Zm0 4.129a.893.893 0 0 0-.893-.893h-9.474a.893.893 0 1 0 0 1.785h9.474a.893.893 0 0 0 .893-.893Zm0 4.129a.893.893 0 0 0-.893-.893h-9.474a.893.893 0 1 0 0 1.785h9.474a.893.893 0 0 0 .893-.893Zm0 4.129a.893.893 0 0 0-.893-.893h-9.474a.893.893 0 0 0-.893.893.882.882 0 0 0 .893.882h9.474a.881.881 0 0 0 .893-.882Zm0 4.118a.882.882 0 0 0-.893-.882h-9.474a.893.893 0 1 0 0 1.774h9.474a.893.893 0 0 0 .893-.893Zm11.349 4.129a.882.882 0 0 0-.893-.882h-9.474a.882.882 0 0 0-.893.882.893.893 0 0 0 .893.893h9.471a.893.893 0 0 0 .893-.893Zm0 4.129a.893.893 0 0 0-.893-.893h-9.474a.893.893 0 0 0 0 1.785h9.471a.893.893 0 0 0 .893-.893Zm0 4.129a.893.893 0 0 0-.893-.893h-9.474a.893.893 0 0 0 0 1.785h9.471a.893.893 0 0 0 .893-.893Zm-7.175-28.89a1.038 1.038 0 1 0-1.038 1.038 1.038 1.038 0 0 0 1.038-1.038Zm3.091 0a1.038 1.038 0 1 0-.483.988 1.038 1.038 0 0 0 .483-.988Zm3.1 0a1.038 1.038 0 1 0-1.038 1.038 1.038 1.038 0 0 0 1.038-1.038Zm3.091 0a1.038 1.038 0 1 0-.483.988 1.038 1.038 0 0 0 .483-.988Zm3.091 0a1.038 1.038 0 1 0-.482.988 1.038 1.038 0 0 0 .482-.988Zm3.1 0a1.038 1.038 0 1 0-1.038 1.038 1.038 1.038 0 0 0 1.038-1.038Zm-15.477 8.258a1.038 1.038 0 1 0-1.032.93 1.038 1.038 0 0 0 1.032-.93Zm3.091 0a1.038 1.038 0 1 0-1.027 1.027 1.038 1.038 0 0 0 1.027-1.027Zm3.1 0a1.038 1.038 0 1 0-1.032.93 1.038 1.038 0 0 0 1.032-.93Zm3.091 0a1.038 1.038 0 1 0-1.027 1.027 1.038 1.038 0 0 0 1.027-1.027Zm3.091 0a1.038 1.038 0 1 0-1.027 1.027 1.038 1.038 0 0 0 1.027-1.027Zm3.1 0a1.038 1.038 0 1 0-1.032.93 1.038 1.038 0 0 0 1.042-.935Zm-4.9 11.862a1.038 1.038 0 1 0-1.038 1.038 1.038 1.038 0 0 0 1.038-1.038Zm3.091 0a1.038 1.038 0 1 0-.483.988 1.038 1.038 0 0 0 .483-.988Zm3.091 0a1.038 1.038 0 1 0-.483.988 1.038 1.038 0 0 0 .483-.988Zm3.1 0a1.038 1.038 0 1 0-1.038 1.038 1.038 1.038 0 0 0 1.038-1.038Zm3.091 0a1.038 1.038 0 1 0-.483.988 1.038 1.038 0 0 0 .483-.988Zm3.091 0a1.026 1.026 0 1 0-.3.733 1.027 1.027 0 0 0 .3-.733Zm-15.454 8.51a1.038 1.038 0 1 0-1.032.93 1.038 1.038 0 0 0 1.032-.93Zm3.091 0a1.038 1.038 0 1 0-1.027 1.027 1.038 1.038 0 0 0 1.027-1.027Zm3.091 0a1.038 1.038 0 1 0-1.027 1.027 1.038 1.038 0 0 0 1.027-1.027Zm3.1 0a1.038 1.038 0 1 0-1.032.93 1.038 1.038 0 0 0 1.033-.93Zm3.091 0a1.038 1.038 0 1 0-1.027 1.027 1.038 1.038 0 0 0 1.027-1.027Zm3.091 0a1.027 1.027 0 1 0-1.027 1.027 1.038 1.038 0 0 0 1.027-1.027Z"/><path data-name="Path 3939" d="M226.433 65.696h-3.652a.893.893 0 0 1 0-1.785h3.616a.893.893 0 0 1 0 1.785Zm.882 3.236a.882.882 0 0 0-.882-.893h-3.652a.893.893 0 0 0 0 1.785h3.616a.882.882 0 0 0 .915-.893Zm0 4.129a.881.881 0 0 0-.882-.893h-3.652a.893.893 0 0 0 0 1.785h3.616a.882.882 0 0 0 .915-.893Zm0 4.129a.881.881 0 0 0-.882-.893h-3.652a.893.893 0 1 0 0 1.774h3.616a.881.881 0 0 0 .915-.882Zm0 4.118a.882.882 0 0 0-.882-.882h-3.652a.893.893 0 1 0 0 1.774h3.616a.882.882 0 0 0 .915-.893Zm0 4.129a.882.882 0 0 0-.882-.882h-3.652a.882.882 0 0 0-.893.882.893.893 0 0 0 .893.893h3.616a.882.882 0 0 0 .915-.893Zm0 4.129a.881.881 0 0 0-.882-.893h-3.652a.893.893 0 0 0 0 1.785h3.616a.882.882 0 0 0 .915-.893Zm0 4.129a.881.881 0 0 0-.882-.893h-3.652a.893.893 0 0 0 0 1.785h3.616a.882.882 0 0 0 .915-.893Zm13.513-28.89a.893.893 0 0 0-.893-.893h-9.474a.893.893 0 1 0 0 1.785h9.474a.893.893 0 0 0 .893-.893Zm0 4.129a.893.893 0 0 0-.893-.893h-9.474a.893.893 0 1 0 0 1.785h9.474a.893.893 0 0 0 .893-.893Zm0 4.129a.893.893 0 0 0-.893-.893h-9.474a.893.893 0 1 0 0 1.785h9.474a.893.893 0 0 0 .893-.893Zm0 4.129a.893.893 0 0 0-.893-.893h-9.474a.893.893 0 1 0 0 1.774h9.474a.882.882 0 0 0 .893-.882Zm0 4.118a.882.882 0 0 0-.893-.882h-9.474a.893.893 0 1 0 0 1.774h9.474a.893.893 0 0 0 .893-.893Zm11.349 4.129a.882.882 0 0 0-.893-.882h-9.474a.882.882 0 0 0-.893.882.893.893 0 0 0 .893.893h9.471a.893.893 0 0 0 .893-.893Zm0 4.129a.893.893 0 0 0-.893-.893h-9.474a.893.893 0 0 0 0 1.785h9.471a.893.893 0 0 0 .893-.893Zm0 4.129a.893.893 0 0 0-.893-.893h-9.474a.893.893 0 0 0 0 1.785h9.471a.893.893 0 0 0 .893-.893Zm-7.175-28.89a1.038 1.038 0 1 0-1.038 1.038 1.038 1.038 0 0 0 1.038-1.038Zm3.091 0a1.038 1.038 0 1 0-.483.988 1.038 1.038 0 0 0 .483-.988Zm3.1 0a1.038 1.038 0 1 0-1.038 1.038 1.038 1.038 0 0 0 1.038-1.038Zm3.091 0a1.038 1.038 0 1 0-.483.988 1.038 1.038 0 0 0 .483-.988Zm3.091 0a1.038 1.038 0 1 0-.482.988 1.038 1.038 0 0 0 .482-.988Zm3.1 0a1.038 1.038 0 1 0-1.038 1.038 1.038 1.038 0 0 0 1.038-1.038Zm-15.477 8.258a1.038 1.038 0 1 0-1.032.93 1.038 1.038 0 0 0 1.032-.93Zm3.091 0a1.038 1.038 0 1 0-1.027 1.027 1.038 1.038 0 0 0 1.027-1.027Zm3.1 0a1.038 1.038 0 1 0-1.032.93 1.038 1.038 0 0 0 1.032-.93Zm3.091 0a1.038 1.038 0 1 0-1.027 1.027 1.038 1.038 0 0 0 1.027-1.027Zm3.091 0a1.038 1.038 0 1 0-1.027 1.027 1.038 1.038 0 0 0 1.027-1.027Zm3.1 0a1.038 1.038 0 1 0-1.032.93 1.038 1.038 0 0 0 1.032-.93Zm-4.9 11.862a1.038 1.038 0 1 0-1.038 1.038 1.038 1.038 0 0 0 1.038-1.038Zm3.091 0a1.038 1.038 0 1 0-.483.988 1.038 1.038 0 0 0 .483-.988Zm3.091 0a1.038 1.038 0 1 0-.483.988 1.038 1.038 0 0 0 .483-.988Zm3.1 0a1.038 1.038 0 1 0-1.038 1.038 1.038 1.038 0 0 0 1.038-1.038Zm3.091 0a1.038 1.038 0 1 0-.483.988 1.038 1.038 0 0 0 .483-.988Zm3.091 0a1.026 1.026 0 1 0-.3.733 1.027 1.027 0 0 0 .3-.733Zm-15.454 8.51a1.038 1.038 0 1 0-1.032.93 1.038 1.038 0 0 0 1.032-.93Zm3.091 0a1.038 1.038 0 1 0-1.027 1.027 1.038 1.038 0 0 0 1.027-1.027Zm3.091 0a1.038 1.038 0 1 0-1.027 1.027 1.038 1.038 0 0 0 1.027-1.027Zm3.1 0a1.038 1.038 0 1 0-1.032.93 1.038 1.038 0 0 0 1.033-.93Zm3.091 0a1.038 1.038 0 1 0-1.027 1.027 1.038 1.038 0 0 0 1.027-1.027Zm3.091 0a1.027 1.027 0 1 0-1.027 1.027 1.038 1.038 0 0 0 1.027-1.027Z"/><path data-name="Path 3940" d="M48.906 106.894H45.29a.893.893 0 0 1 0-1.785h3.615a.893.893 0 1 1 0 1.785Zm.893 3.236a.893.893 0 0 0-.893-.893H45.29a.893.893 0 0 0 0 1.785h3.615a.893.893 0 0 0 .915-.893Zm0 4.129a.893.893 0 0 0-.893-.893H45.29a.893.893 0 0 0 0 1.785h3.615a.893.893 0 0 0 .915-.937Zm0 4.129a.893.893 0 0 0-.893-.893H45.29a.893.893 0 0 0 0 1.785h3.615a.893.893 0 0 0 .915-.893Zm0 4.129a.893.893 0 0 0-.893-.893H45.29a.893.893 0 1 0 0 1.774h3.615a.882.882 0 0 0 .915-.882Zm0 4.118a.882.882 0 0 0-.893-.882H45.29a.893.893 0 1 0 0 1.774h3.615a.893.893 0 0 0 .915-.893Zm0 4.129a.893.893 0 0 0-.893-.893H45.29a.893.893 0 0 0 0 1.785h3.615a.893.893 0 0 0 .915-.893Zm0 4.129a.893.893 0 0 0-.893-.893H45.29a.893.893 0 0 0 0 1.785h3.615a.893.893 0 0 0 .915-.893Zm13.5-28.89a.893.893 0 0 0-.893-.893h-9.472a.893.893 0 1 0 0 1.785h9.474a.893.893 0 0 0 .893-.893Zm0 4.129a.893.893 0 0 0-.893-.893h-9.472a.893.893 0 1 0 0 1.785h9.474a.893.893 0 0 0 .893-.893Zm0 4.129a.893.893 0 0 0-.893-.893h-9.472a.893.893 0 1 0 0 1.785h9.474a.893.893 0 0 0 .893-.937Zm0 4.129a.893.893 0 0 0-.893-.893h-9.472a.893.893 0 0 0 0 1.785h9.474a.893.893 0 0 0 .893-.893Zm0 4.129a.893.893 0 0 0-.893-.893h-9.472a.893.893 0 1 0 0 1.774h9.474a.882.882 0 0 0 .893-.882Zm11.349 4.118a.882.882 0 0 0-.893-.882h-9.428a.893.893 0 1 0 0 1.774h9.474a.882.882 0 0 0 .848-.893Zm0 4.129a.893.893 0 0 0-.893-.893h-9.428a.893.893 0 0 0 0 1.785h9.474a.893.893 0 0 0 .848-.893Zm0 4.129a.893.893 0 0 0-.893-.893h-9.428a.893.893 0 0 0 0 1.785h9.474a.893.893 0 0 0 .848-.893Zm-7.175-28.89a1.038 1.038 0 1 0-.483.988 1.038 1.038 0 0 0 .483-.988Zm3.091 0a1.038 1.038 0 1 0-.483.988 1.038 1.038 0 0 0 .483-.988Zm3.1 0a1.038 1.038 0 1 0-1.038 1.038 1.038 1.038 0 0 0 1.038-1.038Zm3.091 0a1.038 1.038 0 1 0-.483.988 1.038 1.038 0 0 0 .483-.988Zm3.1 0a1.038 1.038 0 1 0-1.038 1.038 1.038 1.038 0 0 0 1.038-1.038Zm3.091 0a1.038 1.038 0 1 0-1.038 1.038 1.027 1.027 0 0 0 1.038-1.038Zm-15.477 8.213a1.038 1.038 0 1 0-1.027 1.027 1.038 1.038 0 0 0 1.027-1.027Zm3.091 0a1.038 1.038 0 1 0-1.027 1.027 1.038 1.038 0 0 0 1.032-1.031Zm3.1 0a1.038 1.038 0 1 0-1.032.93 1.038 1.038 0 0 0 1.032-.93Zm3.091 0a1.038 1.038 0 1 0-1.027 1.027 1.038 1.038 0 0 0 1.027-1.027Zm3.1 0a1.038 1.038 0 1 0-1.032.93 1.038 1.038 0 0 0 1.032-.93Zm3.091 0a1.038 1.038 0 1 0-1.032.93 1.038 1.038 0 0 0 1.032-.93Zm-4.9 11.862a1.015 1.015 0 1 0 0 .045Zm3.091 0a1.038 1.038 0 1 0-.483.988 1.038 1.038 0 0 0 .483-.988Zm3.1 0a1.015 1.015 0 1 0 0 .045Zm3.091 0a1.015 1.015 0 1 0 0 .045Zm3.091 0a1.038 1.038 0 1 0-.483.988 1.038 1.038 0 0 0 .483-.988Zm3.1 0a1.015 1.015 0 1 0 0 .045Zm-15.477 8.559A1.038 1.038 0 1 0 77 135.666a1.038 1.038 0 0 0 1.038-1.027Zm3.091 0a1.038 1.038 0 1 0-1.027 1.027 1.027 1.027 0 0 0 1.027-1.027Zm3.1 0a1.038 1.038 0 1 0-1.038 1.027 1.038 1.038 0 0 0 1.056-1.031Zm3.091 0a1.038 1.038 0 1 0-1.038 1.027 1.038 1.038 0 0 0 1.038-1.027Zm3.091 0a1.038 1.038 0 1 0-1.027 1.027 1.027 1.027 0 0 0 1.044-1.031Zm3.1 0a1.038 1.038 0 1 0-1.038 1.027 1.038 1.038 0 0 0 1.038-1.027Z"/><path data-name="Path 3941" d="M48.906 139.88H45.29a.893.893 0 0 1 0-1.785h3.615a.893.893 0 0 1 0 1.785Zm.893 3.236a.893.893 0 0 0-.893-.893H45.29a.893.893 0 1 0 0 1.774h3.615a.882.882 0 0 0 .915-.837Zm0 4.118a.882.882 0 0 0-.893-.882H45.29a.893.893 0 1 0 0 1.774h3.615a.893.893 0 0 0 .915-.848Zm0 4.129a.893.893 0 0 0-.893-.893H45.29a.893.893 0 1 0 0 1.785h3.615a.893.893 0 0 0 .915-.848Zm0 4.129a.893.893 0 0 0-.893-.893H45.29a.893.893 0 1 0 0 1.785h3.615a.893.893 0 0 0 .915-.882Zm0 4.129a.893.893 0 0 0-.893-.893H45.29a.893.893 0 0 0 0 1.785h3.615a.893.893 0 0 0 .915-.848Zm0 4.129a.893.893 0 0 0-.893-.893H45.29a.893.893 0 1 0 0 1.785h3.615a.893.893 0 0 0 .915-.848Zm0 4.129a.893.893 0 0 0-.893-.893H45.29a.893.893 0 0 0-.893.893.882.882 0 0 0 .893.882h3.615a.882.882 0 0 0 .915-.837Zm13.5-28.89a.893.893 0 0 0-.893-.893h-9.472a.893.893 0 0 0 0 1.785h9.474a.893.893 0 0 0 .893-.848Zm0 4.129a.893.893 0 0 0-.893-.893h-9.472a.893.893 0 1 0 0 1.774h9.474a.882.882 0 0 0 .893-.837Zm0 4.118a.882.882 0 0 0-.893-.882h-9.472a.893.893 0 1 0 0 1.774h9.474a.893.893 0 0 0 .893-.848Zm0 4.129a.893.893 0 0 0-.893-.893h-9.472a.893.893 0 1 0 0 1.785h9.474a.893.893 0 0 0 .893-.848Zm0 4.129a.893.893 0 0 0-.893-.893h-9.472a.893.893 0 1 0 0 1.785h9.474a.893.893 0 0 0 .893-.882Zm11.349 4.129a.893.893 0 0 0-.893-.893h-9.428a.893.893 0 0 0 0 1.785h9.474a.893.893 0 0 0 .846-.847Zm0 4.129a.893.893 0 0 0-.893-.893h-9.428a.893.893 0 1 0 0 1.785h9.474a.893.893 0 0 0 .848-.848Zm0 4.129a.893.893 0 0 0-.893-.893h-9.428a.893.893 0 0 0-.893.893.882.882 0 0 0 .893.882h9.474a.882.882 0 0 0 .848-.837Zm-7.175-28.89a1 1 0 1 0 0 .045Zm3.091 0a1 1 0 1 0 0 .045Zm3.1 0a1.038 1.038 0 1 0-1.032.93 1.038 1.038 0 0 0 1.032-.93Zm3.091 0a1 1 0 1 0 0 .045Zm3.1 0a1.038 1.038 0 1 0-1.032.93 1.038 1.038 0 0 0 1.032-.93Zm3.091 0a1.038 1.038 0 1 0-1.032.93 1.038 1.038 0 0 0 1.032-.93Zm-15.477 8.246a1.038 1.038 0 1 0-1.022 1.031 1.027 1.027 0 0 0 1.027-.993Zm3.091 0a1.038 1.038 0 1 0-.483.988 1.038 1.038 0 0 0 .488-.992Zm3.1 0a1.015 1.015 0 1 0 0 .045Zm3.091 0a1.038 1.038 0 1 0-.483.988 1.038 1.038 0 0 0 .483-.988Zm3.1 0a1.015 1.015 0 1 0 0 .045Zm3.091 0a1.038 1.038 0 1 0-1.038 1.038 1.027 1.027 0 0 0 1.038-.993Zm-4.9 11.873a1.038 1.038 0 1 0-1.032.93 1.038 1.038 0 0 0 1.043-.934Zm3.091 0a1 1 0 1 0 0 .045Zm3.1 0a1.038 1.038 0 1 0-1.032.93 1.038 1.038 0 0 0 1.032-.93Zm3.091 0a1.038 1.038 0 1 0-1.032.93 1.038 1.038 0 0 0 1.045-.934Zm3.091 0a1 1 0 1 0 0 .045Zm3.1 0a1.038 1.038 0 1 0-1.032.93 1.038 1.038 0 0 0 1.047-.934Zm-15.462 8.558a1.038 1.038 0 1 0-1.032.93 1.038 1.038 0 0 0 1.032-.93Zm3.091 0a1.038 1.038 0 1 0-1.027 1.027 1.027 1.027 0 0 0 1.03-1.027Zm3.1 0a1.038 1.038 0 1 0-1.032.93 1.038 1.038 0 0 0 1.035-.93Zm3.091 0a1.038 1.038 0 1 0-1.032.93 1.038 1.038 0 0 0 1.032-.93Zm3.091 0a1.038 1.038 0 1 0-1.027 1.027 1.027 1.027 0 0 0 1.029-1.027Zm3.1 0a1.038 1.038 0 1 0-1.032.93 1.038 1.038 0 0 0 1.036-.93Z"/><path data-name="Path 3942" d="M48.906 173.747H45.29a.893.893 0 1 1 0-1.785h3.615a.893.893 0 1 1 0 1.785Zm.893 3.236a.893.893 0 0 0-.893-.893H45.29a.893.893 0 1 0 0 1.774h3.615a.881.881 0 0 0 .915-.882Zm0 4.118a.882.882 0 0 0-.893-.882H45.29a.893.893 0 1 0 0 1.774h3.615a.893.893 0 0 0 .915-.893Zm0 4.129a.893.893 0 0 0-.893-.893H45.29a.893.893 0 1 0 0 1.785h3.615a.893.893 0 0 0 .915-.893Zm0 4.129a.893.893 0 0 0-.893-.893H45.29a.893.893 0 1 0 0 1.785h3.615a.893.893 0 0 0 .915-.893Zm0 4.129a.893.893 0 0 0-.893-.893H45.29a.893.893 0 1 0 0 1.785h3.615a.893.893 0 0 0 .915-.937Zm0 4.129a.893.893 0 0 0-.893-.893H45.29a.893.893 0 1 0 0 1.785h3.615a.893.893 0 0 0 .915-.893Zm0 4.129a.893.893 0 0 0-.893-.893H45.29a.893.893 0 0 0-.893.893.882.882 0 0 0 .893.882h3.615a.882.882 0 0 0 .915-.882Zm13.5-28.89a.893.893 0 0 0-.893-.893h-9.472a.893.893 0 1 0 0 1.785h9.474a.893.893 0 0 0 .893-.893Zm0 4.129a.893.893 0 0 0-.893-.893h-9.472a.893.893 0 1 0 0 1.774h9.474a.882.882 0 0 0 .893-.882Zm0 4.118a.882.882 0 0 0-.893-.882h-9.472a.893.893 0 1 0 0 1.774h9.474a.893.893 0 0 0 .893-.893Zm0 4.129a.893.893 0 0 0-.893-.893h-9.472a.893.893 0 1 0 0 1.785h9.474a.893.893 0 0 0 .893-.893Zm0 4.129a.893.893 0 0 0-.893-.893h-9.472a.893.893 0 1 0 0 1.785h9.474a.893.893 0 0 0 .893-.893Zm11.348 4.124a.893.893 0 0 0-.893-.893h-9.427a.893.893 0 1 0 0 1.785h9.474a.893.893 0 0 0 .848-.937Zm0 4.129a.893.893 0 0 0-.893-.893h-9.427a.893.893 0 1 0 0 1.785h9.474a.893.893 0 0 0 .848-.893Zm0 4.129a.893.893 0 0 0-.893-.893h-9.427a.893.893 0 0 0-.893.893.882.882 0 0 0 .893.882h9.474a.882.882 0 0 0 .848-.882Zm-7.175-28.89a1.038 1.038 0 1 0-1.025 1.032 1.038 1.038 0 0 0 1.027-1.027Zm3.091 0a1.038 1.038 0 1 0-1.027 1.027 1.038 1.038 0 0 0 1.027-1.027Zm3.1 0a1.038 1.038 0 1 0-1.032.93 1.038 1.038 0 0 0 1.032-.93Zm3.091 0a1.038 1.038 0 1 0-1.027 1.027 1.038 1.038 0 0 0 1.027-1.027Zm3.1 0a1.038 1.038 0 1 0-1.032.93 1.038 1.038 0 0 0 1.032-.93Zm3.091 0a1.038 1.038 0 1 0-1.032.93 1.038 1.038 0 0 0 1.032-.93Zm-15.477 8.246a1.038 1.038 0 1 0-.482.988 1.038 1.038 0 0 0 .482-.988Zm3.091 0a1.038 1.038 0 1 0-.483.988 1.038 1.038 0 0 0 .483-.988Zm3.1 0a1.038 1.038 0 1 0-1.038 1.038 1.038 1.038 0 0 0 1.038-1.038Zm3.091 0a1.038 1.038 0 1 0-.482.988 1.038 1.038 0 0 0 .482-.988Zm3.1 0a1.038 1.038 0 1 0-1.038 1.038 1.038 1.038 0 0 0 1.038-1.038Zm3.091 0a1.038 1.038 0 1 0-1.038 1.038 1.027 1.027 0 0 0 1.038-1.038Zm-4.9 11.873a1.038 1.038 0 1 0-1.032.93 1.038 1.038 0 0 0 1.044-.928Zm3.091 0a1.038 1.038 0 1 0-1.027 1.027 1.038 1.038 0 0 0 1.027-1.027Zm3.1 0a1.038 1.038 0 1 0-1.032.93 1.038 1.038 0 0 0 1.032-.93Zm3.091 0a1.038 1.038 0 1 0-1.032.93 1.038 1.038 0 0 0 1.046-.928Zm3.091 0a1.038 1.038 0 1 0-1.027 1.027 1.038 1.038 0 0 0 1.027-1.027Zm3.1 0a1.038 1.038 0 1 0-1.032.93 1.038 1.038 0 0 0 1.048-.928Zm-15.461 8.513a1.038 1.038 0 1 0-1.032.93 1.038 1.038 0 0 0 1.032-.93Zm3.091 0a1.038 1.038 0 1 0-1.027 1.027 1.027 1.027 0 0 0 1.03-1.027Zm3.1 0a1.038 1.038 0 1 0-1.032.93 1.038 1.038 0 0 0 1.035-.93Zm3.091 0a1.038 1.038 0 1 0-1.032.93 1.038 1.038 0 0 0 1.034-.93Zm3.091 0a1.038 1.038 0 1 0-1.027 1.027 1.027 1.027 0 0 0 1.027-1.027Zm3.1 0a1.038 1.038 0 1 0-1.032.93 1.038 1.038 0 0 0 1.032-.93Z"/><path data-name="Path 3943" d="M104.343 106.894h-3.6a.893.893 0 0 1 0-1.785h3.6a.893.893 0 0 1 0 1.785Zm.893 3.236a.893.893 0 0 0-.893-.893h-3.6a.893.893 0 0 0 0 1.785h3.6a.893.893 0 0 0 .893-.893Zm0 4.129a.893.893 0 0 0-.893-.893h-3.6a.893.893 0 0 0 0 1.785h3.6a.893.893 0 0 0 .893-.937Zm0 4.129a.893.893 0 0 0-.893-.893h-3.6a.893.893 0 0 0 0 1.785h3.6a.893.893 0 0 0 .893-.893Zm0 4.129a.893.893 0 0 0-.893-.893h-3.6a.893.893 0 1 0 0 1.774h3.6a.882.882 0 0 0 .893-.882Zm0 4.118a.882.882 0 0 0-.893-.882h-3.6a.893.893 0 1 0 0 1.774h3.6a.893.893 0 0 0 .893-.893Zm0 4.129a.893.893 0 0 0-.893-.893h-3.6a.893.893 0 0 0 0 1.785h3.6a.893.893 0 0 0 .893-.893Zm0 4.129a.893.893 0 0 0-.893-.893h-3.6a.893.893 0 0 0 0 1.785h3.6a.893.893 0 0 0 .893-.893Zm13.513-28.89a.893.893 0 0 0-.893-.893h-9.485a.893.893 0 1 0 0 1.785h9.519a.893.893 0 0 0 .859-.893Zm0 4.129a.893.893 0 0 0-.893-.893h-9.485a.893.893 0 1 0 0 1.785h9.519a.893.893 0 0 0 .859-.893Zm0 4.129a.893.893 0 0 0-.893-.893h-9.485a.893.893 0 0 0 0 1.785h9.519a.893.893 0 0 0 .859-.937Zm0 4.129a.893.893 0 0 0-.893-.893h-9.485a.893.893 0 0 0 0 1.785h9.519a.893.893 0 0 0 .859-.893Zm0 4.129a.893.893 0 0 0-.893-.893h-9.485a.893.893 0 0 0 0 1.774h9.519a.882.882 0 0 0 .859-.882Zm11.349 4.118a.882.882 0 0 0-.893-.882h-9.485a.893.893 0 0 0 0 1.774h9.486a.893.893 0 0 0 .893-.893Zm0 4.129a.893.893 0 0 0-.893-.893h-9.485a.893.893 0 0 0 0 1.785h9.486a.893.893 0 0 0 .893-.893Zm0 4.129a.893.893 0 0 0-.893-.893h-9.485a.893.893 0 0 0 0 1.785h9.486a.893.893 0 0 0 .893-.893Zm-7.186-28.89a1.027 1.027 0 1 0-.3.733 1.027 1.027 0 0 0 .3-.733Zm3.1 0a1.038 1.038 0 1 0-1.038 1.038 1.038 1.038 0 0 0 1.038-1.038Zm3.091 0a1.038 1.038 0 1 0-.483.988 1.038 1.038 0 0 0 .483-.988Zm3.1 0a1.038 1.038 0 1 0-1.038 1.038 1.038 1.038 0 0 0 1.038-1.038Zm3.091 0a1.038 1.038 0 1 0-.482.988 1.038 1.038 0 0 0 .482-.988Zm3.091 0a1.038 1.038 0 1 0-.482.988 1.038 1.038 0 0 0 .482-.988Zm-15.477 8.213a1.027 1.027 0 1 0-1.027 1.027 1.038 1.038 0 0 0 1.027-1.027Zm3.1 0a1.038 1.038 0 1 0-1.032.93 1.038 1.038 0 0 0 1.032-.93Zm3.091 0a1.038 1.038 0 1 0-1.027 1.027 1.038 1.038 0 0 0 1.034-1.031Zm3.1 0a1.038 1.038 0 1 0-1.032.93 1.038 1.038 0 0 0 1.032-.93Zm3.091 0a1.038 1.038 0 1 0-1.027 1.027 1.038 1.038 0 0 0 1.027-1.027Zm3.091 0a1.038 1.038 0 1 0-1.027 1.027 1.038 1.038 0 0 0 1.027-1.027Zm-4.876 11.907a1.038 1.038 0 1 0-.483.988 1.038 1.038 0 0 0 .491-.993Zm3.1 0a1.027 1.027 0 1 1-.022 0Zm3.091 0a1.038 1.038 0 1 0-.483.988 1.038 1.038 0 0 0 .493-.993Zm3.091 0a1.038 1.038 0 1 0-.483.988 1.038 1.038 0 0 0 .493-.993Zm3.1 0a1.027 1.027 0 1 1-.022 0Zm3.091 0a1.038 1.038 0 1 0-.483.988 1.038 1.038 0 0 0 .495-.993Zm-15.477 8.514a1.038 1.038 0 1 0-1.027 1.027 1.027 1.027 0 0 0 1.027-1.027Zm3.1 0a1.027 1.027 0 1 1-.022 0Zm3.091 0a1.038 1.038 0 1 0-1.027 1.027 1.027 1.027 0 0 0 1-1.027Zm3.091 0a1.038 1.038 0 1 0-1.027 1.027 1.027 1.027 0 0 0 1-1.027Zm3.1 0a1.027 1.027 0 1 1-.022 0Zm3.091 0a1.038 1.038 0 1 0-1.027 1.027 1.027 1.027 0 0 0 1-1.027Z"/><path data-name="Path 3944" d="M104.343 140.717h-3.6a.893.893 0 0 1 0-1.785h3.6a.893.893 0 1 1 0 1.785Zm.893 3.236a.893.893 0 0 0-.893-.893h-3.6a.893.893 0 0 0 0 1.785h3.6a.893.893 0 0 0 .893-.893Zm0 4.129a.893.893 0 0 0-.893-.893h-3.6a.893.893 0 0 0 0 1.785h3.6a.893.893 0 0 0 .893-.893Zm0 4.129a.893.893 0 0 0-.893-.893h-3.6a.893.893 0 0 0 0 1.785h3.6a.893.893 0 0 0 .893-.893Zm0 4.129a.893.893 0 0 0-.893-.893h-3.6a.893.893 0 1 0 0 1.774h3.6a.881.881 0 0 0 .893-.882Zm0 4.118a.882.882 0 0 0-.893-.882h-3.6a.893.893 0 1 0 0 1.774h3.6a.893.893 0 0 0 .893-.893Zm0 4.129a.893.893 0 0 0-.893-.893h-3.6a.893.893 0 0 0 0 1.785h3.6a.893.893 0 0 0 .893-.893Zm0 4.129a.893.893 0 0 0-.893-.893h-3.6a.893.893 0 1 0 0 1.785h3.6a.893.893 0 0 0 .893-.893Zm13.513-28.835a.893.893 0 0 0-.893-.893h-9.485a.893.893 0 0 0 0 1.785h9.519a.893.893 0 0 0 .859-.893Zm0 4.129a.893.893 0 0 0-.893-.893h-9.485a.893.893 0 0 0 0 1.785h9.519a.893.893 0 0 0 .859-.948Zm0 4.129a.893.893 0 0 0-.893-.893h-9.485a.893.893 0 1 0 0 1.785h9.519a.893.893 0 0 0 .859-.949Zm0 4.129a.893.893 0 0 0-.893-.893h-9.485a.893.893 0 1 0 0 1.785h9.519a.893.893 0 0 0 .859-.948Zm0 4.129a.893.893 0 0 0-.893-.893h-9.485a.893.893 0 0 0 0 1.774h9.519a.882.882 0 0 0 .859-.937Zm11.349 4.118a.882.882 0 0 0-.893-.882h-9.485a.893.893 0 0 0 0 1.774h9.486a.893.893 0 0 0 .893-.949Zm0 4.129a.893.893 0 0 0-.893-.893h-9.485a.893.893 0 1 0 0 1.785h9.486a.893.893 0 0 0 .893-.949Zm0 4.129a.893.893 0 0 0-.893-.893h-9.485a.893.893 0 1 0 0 1.785h9.486a.893.893 0 0 0 .893-.949Zm-7.186-28.89a1.027 1.027 0 1 0-.3.733 1.027 1.027 0 0 0 .3-.736Zm3.1 0a1.038 1.038 0 1 0-1.038 1.038 1.038 1.038 0 0 0 1.038-1.038Zm3.091 0a1.038 1.038 0 1 0-.483.988 1.038 1.038 0 0 0 .486-.991Zm3.1 0a1.038 1.038 0 1 0-1.038 1.038 1.038 1.038 0 0 0 1.041-1.041Zm3.091 0a1.038 1.038 0 1 0-.482.988 1.038 1.038 0 0 0 .482-.988Zm3.091 0a1.038 1.038 0 1 0-.482.988 1.038 1.038 0 0 0 .486-.991Zm-15.477 8.258a1.027 1.027 0 1 0-1.027 1.027 1.038 1.038 0 0 0 1.027-1.082Zm3.1 0a1.038 1.038 0 1 0-1.032.93 1.038 1.038 0 0 0 1.032-.93Zm3.091 0a1.081 1.081 0 1 1 0-.056Zm3.1 0a1.038 1.038 0 1 0-1.032.93 1.038 1.038 0 0 0 1.032-.93Zm3.091 0a1.082 1.082 0 1 1 0-.056Zm3.091 0a1.081 1.081 0 1 1 0-.056Zm-4.876 11.828a1.038 1.038 0 1 0-.483.988 1.038 1.038 0 0 0 .483-.988Zm3.1 0a1.028 1.028 0 1 1-.022 0Zm3.091 0a1.038 1.038 0 1 0-.483.988 1.038 1.038 0 0 0 .483-.988Zm3.091 0a1.038 1.038 0 1 0-.483.988 1.038 1.038 0 0 0 .483-.988Zm3.1 0a1.028 1.028 0 1 1-.022 0Zm3.091 0a1.038 1.038 0 1 0-.483.988 1.038 1.038 0 0 0 .483-.988Zm-15.477 8.492a1.038 1.038 0 1 0-1.027 1.027 1.027 1.027 0 0 0 1.039-1.03Zm3.1 0a1.027 1.027 0 1 1-.022 0Zm3.091 0a1.038 1.038 0 1 0-1.027 1.027 1.027 1.027 0 0 0 1-1.027Zm3.091 0a1.038 1.038 0 1 0-1.027 1.027 1.027 1.027 0 0 0 1-1.027Zm3.1 0a1.027 1.027 0 1 1-.022 0Zm3.091 0a1.038 1.038 0 1 0-1.027 1.027 1.027 1.027 0 0 0 1-1.027Z"/></g><path data-name="Path 3945" d="M48.147 333.241s-7.811-106.013-13.949-132.234 23.992-31.8 67.511-35.151 63.606-.558 73.091 5.579 13.692 78.592 20.086 104.336 11.159 59.142 11.159 59.142Z" fill="#263238" stroke="#263238" stroke-linecap="round" stroke-linejoin="round"/><path data-name="Path 3946" d="M432.873 245.387c-5.97 7.465-8.927 11.628-10.155 13.513a143.654 143.654 0 0 1 6.818-24.092 71.015 71.015 0 0 0 4.151-18.836l-.558.3-.513-.993c.2-.112 20.555-10.913 26.313-21.1l.971.558c-5.2 9.195-21.269 18.513-25.665 20.934 4.173-.4 17.207-2.377 24.962-11.962 9.318-11.5 7.677-25.766 7.677-25.766s-17.564 12.063-24.684 21.38a66.337 66.337 0 0 0-8.3 13.848 96.791 96.791 0 0 0-1.73-22.664c5.858-4.609 27.406-22.318 29.772-35.6 2.745-15.344-1.116-41.667-1.116-41.667a135.522 135.522 0 0 1-7.677 15.9c-4.932 8.771-20.287 22.485-23.032 37.282a64.641 64.641 0 0 0-1.116 11.226 219.823 219.823 0 0 0-8.86-24.271 46.2 46.2 0 0 1-2.232-6.528l-.48-.29c.1-.167 9.987-16.839 9.987-21.626h1.116c0 4.464-7.543 17.743-9.63 21.314 3.448-2.076 9.072-6.327 11.159-12.933 3.147-9.809-1.506-18.647-1.506-18.647s-8.336 12.275-10.612 20.086a46.322 46.322 0 0 0-1.908 10.992c-1.6-4.062-4.039-9.574-6.852-13.313-4.932-6.584-8.224-16.448-8.224-16.448s-6.026 10.411-1.64 21.381c3.6 9.005 13.859 12.465 17.408 13.391a41.253 41.253 0 0 0 1.306 3.47 187.9 187.9 0 0 1 11.226 33.745c-2.555-3.4-7.376-9.4-11.94-12.743-6.628-4.865-12.643-13.391-12.643-13.391s-2.745 11.717 4.631 20.945c6.026 7.532 16.738 7.9 20.488 7.811 2.533 13.279 2.823 27.138-1.473 40.529-.279-2.6-1.841-9.675-10.456-17.586-10.869-10.043-32.618-41.958-32.618-41.958s1.73 37.728 12.152 50.126c9.552 11.371 27.585 10.7 30.553 10.512-.2.591-.4 1.183-.625 1.774-6.863 18.446-8.313 31.379-8.481 38.219h-12.834v59.767h35.642v-59.73h-20.421a84.813 84.813 0 0 1 1.205-11.628l-.368.1-.3-1.116c.223-.056 22.552-6.349 38.164-22.407l.8.77c-12.6 12.967-29.493 19.64-35.976 21.849 6.45-.792 22.2-3.169 29.5-7.9 9.329-6.026 17.553-24.126 17.553-24.126s-30.158 6.625-38.929 17.599Zm-16.962-97.083a28.02 28.02 0 0 1-14.306-19.149l1.116-.223a26.781 26.781 0 0 0 13.67 18.356Zm15.779 42.582-.234.324-.424-.179c-.625-.246-15.21-6.249-21.146-14.919l.926-.636c5.189 7.6 17.754 13.29 20.22 14.35 1.886-2.9 13.737-21.291 17.854-32.852l1.049.379c-4.508 12.654-18.1 33.3-18.245 33.51Zm-5.189 40.92c-.167-.056-17.553-6.606-25.3-21.626l.993-.5c7.543 14.629 24.55 21.023 24.695 21.09Z" fill="#263238"/><path data-name="Path 3947" d="M183.16 181.391s-31.814 6.751-58.328 21.693-47.236 26.992-47.236 32.762-10.612 97.373-10.612 97.373h241.033s-23.623-50.617-27.473-72.31-8.2-35.709-20.733-49.646-49.178-31.787-76.651-29.872Z" fill="#fff"/><g data-name="Group 923" transform="translate(66.984 181.248)" clip-path="url(#a)"><path data-name="Path 3948" d="M22.731 88.465c3.571-2.544 10.713 16.828 12.743 12.275S22.731 73.211 21.715 65.031s8.659-9.184 19.885-16.828 21.414-13.77 21.414-3.571 4.586 29.013 8.157 21.414 11.215-17.33 11.717-4.084 0 26.514 1.54 26.514 15.288-14.272 18.859-21.414-4.084-25.487-4.084-33.644 7.142-19.372 7.142-19.372l.458-11.549c-11.416 3.124-31.345 9.429-48.954 19.35-26.514 14.9-47.236 26.982-47.236 32.751S0 151.971 0 151.971h13.19c2.455-22.684 7.019-61.664 9.541-63.506Z" fill="#478bca"/><path data-name="Path 3949" d="M22.731 88.465c3.571-2.544 10.713 16.828 12.743 12.275S22.731 73.211 21.715 65.031s8.659-9.184 19.885-16.828 21.414-13.77 21.414-3.571 4.586 29.013 8.157 21.414 11.215-17.33 11.717-4.084 0 26.514 1.54 26.514 15.288-14.272 18.859-21.414-4.084-25.487-4.084-33.644 7.142-19.372 7.142-19.372l.458-11.549c-11.416 3.124-31.345 9.429-48.954 19.35-26.514 14.9-47.236 26.982-47.236 32.751S0 151.971 0 151.971h13.19c2.455-22.684 7.019-61.664 9.541-63.506Z" fill="#fff" opacity=".5"/><path data-name="Path 3950" d="M176.367 22.65s16.738 8.179 23.065 16.37a49.534 49.534 0 0 0-21.95-20.086Z" fill="#263238" stroke="#263238" stroke-linecap="round" stroke-linejoin="round"/></g><path data-name="Path 3952" d="M183.16 181.391s-31.814 6.751-58.328 21.693-47.236 26.992-47.236 32.762-10.612 97.373-10.612 97.373h241.033s-23.623-50.617-27.473-72.31-8.2-35.709-20.733-49.646-49.178-31.787-76.651-29.872Z" fill="none" stroke="#263238" stroke-linecap="round" stroke-linejoin="round"/><path data-name="Path 3953" d="M172.57 184.772a31.758 31.758 0 0 0-14.953 25.063c-.96 17.352 0 35.2-.96 44.825s-7.711 17.363-2.41 16.872 17.352-19.762 21.693-19.762 5.78 9.161 7.711 12.052 8.7 4.106 8.7 4.106 6.238-7.476 6.238-9.887-1.93-10.612 3.348-9.641 16.861 19.283 17.352 13.491-5.312-14.507-5.312-28.433-6.7-30.375-16.381-40.5-15.162-8.933-25.026-8.186Z" fill="#fff"/><g data-name="Group 924" transform="translate(152.237 184.298)" clip-path="url(#b)"><path data-name="Path 3954" d="m21.516.374-1.194.1a31.758 31.758 0 0 0-14.953 25.06c-.96 17.352 0 35.2-.96 44.825-.625 6.2-3.627 11.605-4.285 14.507 3.537-2.6 14.741-14.562 17.91-20.9 3.571-7.131-4.084-25.487-4.084-33.644s7.142-19.372 7.142-19.372Z" fill="#478bca"/><path data-name="Path 3955" d="m21.516.374-1.194.1a31.758 31.758 0 0 0-14.953 25.06c-.96 17.352 0 35.2-.96 44.825-.625 6.2-3.627 11.605-4.285 14.507 3.537-2.6 14.741-14.562 17.91-20.9 3.571-7.131-4.084-25.487-4.084-33.644s7.142-19.372 7.142-19.372Z" fill="#fff" opacity=".5"/></g><path data-name="Path 3957" d="M172.57 184.772a31.758 31.758 0 0 0-14.953 25.063c-.96 17.352 0 35.2-.96 44.825s-7.711 17.363-2.41 16.872 17.352-19.762 21.693-19.762 5.78 9.161 7.711 12.052 8.7 4.106 8.7 4.106 6.238-7.476 6.238-9.887-1.93-10.612 3.348-9.641 16.861 19.283 17.352 13.491-5.312-14.507-5.312-28.433-6.7-30.375-16.381-40.5-15.162-8.933-25.026-8.186Z" fill="none" stroke="#263238" stroke-linecap="round" stroke-linejoin="round"/><path data-name="Path 3958" d="M176.575 184.895a74.464 74.464 0 0 0-5.78 27.9c0 15.243 7.878 31.011 11.036 38.364s10.512 16.816 10.512 16.816-.536-19.439 4.2-28.9 8.927-16.292 8.927-16.292-5.78-5.78-14.194-18.914-14.701-18.974-14.701-18.974Z" fill="#fff"/><g data-name="Group 925" transform="translate(170.795 184.895)" clip-path="url(#c)"><path data-name="Path 3959" d="m31.022 44.145-1.975-12.994c-2.31-2.991-5.222-7.03-8.559-12.275C12.088 5.731 5.781-.094 5.781-.094a74.464 74.464 0 0 0-5.78 27.9A62.981 62.981 0 0 0 2.89 45.451l27.9-.893Z" fill="#478bca"/><path data-name="Path 3960" d="m31.022 44.145-1.975-12.994c-2.31-2.991-5.222-7.03-8.559-12.275C12.088 5.731 5.781-.094 5.781-.094a74.464 74.464 0 0 0-5.78 27.9A62.981 62.981 0 0 0 2.89 45.451l27.9-.893Z" fill="#fff" opacity=".5"/><path data-name="Path 3961" d="M20.49 18.925C12.09 5.78 5.783-.045 5.783-.045a74.464 74.464 0 0 0-5.78 27.9 54.19 54.19 0 0 0 .893 9.374l23.523.725 5.747-5.367a165.823 165.823 0 0 1-9.676-13.662Z" fill="#263238" stroke="#263238" stroke-linecap="round" stroke-linejoin="round"/></g><path data-name="Path 3963" d="M176.575 184.895a74.464 74.464 0 0 0-5.78 27.9c0 15.243 7.878 31.011 11.036 38.364s10.512 16.816 10.512 16.816-.536-19.439 4.2-28.9 8.927-16.292 8.927-16.292-5.78-5.78-14.194-18.914-14.701-18.974-14.701-18.974Z" fill="none" stroke="#263238" stroke-linecap="round" stroke-linejoin="round"/><path data-name="Path 3964" d="M141.224 218.516s10.6-25.554 27.953-31.814" fill="none" stroke="#263238" stroke-linecap="round" stroke-linejoin="round"/><path data-name="Path 3965" d="M95.428 239.718s14.507 23.623 16.392 43.866" fill="none" stroke="#263238" stroke-linecap="round" stroke-linejoin="round"/><path data-name="Path 3966" d="M113.26 261.411s4.821 30.375 4.821 45.752a129.565 129.565 0 0 0 2.41 26.034" fill="none" stroke="#263238" stroke-linecap="round" stroke-linejoin="round"/><path data-name="Path 3967" d="M117.601 300.456a152.421 152.421 0 0 0 3.86-36.155" fill="none" stroke="#263238" stroke-linecap="round" stroke-linejoin="round"/><path data-name="Path 3968" d="M249.678 261.891s1.451 17.363 4.821 38.565 5.3 31.814 5.3 31.814" fill="none" stroke="#263238" stroke-linecap="round" stroke-linejoin="round"/><path data-name="Path 3969" d="M171.052 303.011s-10.21 20.789-11.717 23.813-3.783 8.313-3.783 8.313h18.133s10.2-6.807 11.337-7.186 7.555 0 12.085-1.886 9.072-6.807 13.6-7.934 10.579-3.024 12.476-3.024 8.313 1.886 12.465 1.886 9.452-4.151 6.1-6.037-6.048-.759-10.579-3.024-6.048-3.024-10.579-2.232-8.313-1.886-19.271-4.151-23.471-3.069-30.267 1.462Z" fill="#fff" stroke="#263238" stroke-linecap="round" stroke-linejoin="round"/><path data-name="Path 3970" d="M202.699 291.407s5.948-5.066 10.835-2.622 2.622 18.178 3.85 24.471 2.622 9.608-.524 9.965-4.374-2.1-6.818-7.689-7.343-24.125-7.343-24.125Z" fill="#fff" stroke="#263238" stroke-linecap="round" stroke-linejoin="round"/><path data-name="Path 3971" d="M188.192 294.554s7.867-7 11.36-7 6.294 12.409 8.927 17.854 6.495 11.9 4.888 13.614-4.9 2.444-7.7-.524-8.927-16.08-10.657-18.178a53.8 53.8 0 0 0-6.818-5.766Z" fill="#fff" stroke="#263238" stroke-linecap="round" stroke-linejoin="round"/><path data-name="Path 3972" d="M180.147 296.997s.524-2.444 8.046-2.444 13.982 10.489 18.524 12.933 3.147 3.493-.167 5.066-5.423-.167-12.063-3.839-14.34-11.716-14.34-11.716Z" fill="#fff" stroke="#263238" stroke-linecap="round" stroke-linejoin="round"/><path data-name="Path 3973" d="m171.802 314.349 5.3-8.693a16.739 16.739 0 0 1 6.8 3.024c2.645 2.232 7.555 6.807 13.6 6.807s7.934-1.886 5.669-3.783-9.072-5.289-13.982-8.693-8.693-9.061-12.465-7.934-6.383 8.313-10.579 17.765" fill="#fff" stroke="#263238" stroke-linecap="round" stroke-linejoin="round"/><path data-name="Path 3974" d="M256.362 147.869s-1.462 21.592-3.794 29.181-5.579 30.944-12.554 41.154-16.046 18.971-26.27 19.561-23.923-17.519-31.812-29.19-8.749-23.344-11.382-34.727-3.2-24.55.882-34.738 24.55-22.764 41.734-21.3 38.811 10.512 43.2 17.218a11.728 11.728 0 0 1 0 12.844Z" fill="#fff"/><g data-name="Group 926" transform="translate(168.47 117.69)" clip-path="url(#d)"><path data-name="Path 3975" d="M2.983 21.419c-4.084 10.222-3.5 23.356-.882 34.738s3.5 23.054 11.382 34.727 21.6 29.772 31.814 29.192a23.768 23.768 0 0 0 11.683-4.24l-5.189.5c-10.713 1.015-15.812-6.115-22.441-19.885s-2.544-21.916-5.1-24.471-2.544-20.9-2.544-20.9 2.042-8.157 3.058-11.159 11.728-7.142 11.728-7.142 0 7.644 7.343 7.086 12.543-8.615 12.543-8.615L55.351 1.869a78.983 78.983 0 0 0-10.634-1.7C27.533-1.346 7.045 11.208 2.983 21.419Z" fill="#478bca"/><path data-name="Path 3976" d="M2.983 21.419c-4.084 10.222-3.5 23.356-.882 34.738s3.5 23.054 11.382 34.727 21.6 29.772 31.814 29.192a23.768 23.768 0 0 0 11.683-4.24l-5.189.5c-10.713 1.015-15.812-6.115-22.441-19.885s-2.544-21.916-5.1-24.471-2.544-20.9-2.544-20.9 2.042-8.157 3.058-11.159 11.728-7.142 11.728-7.142 0 7.644 7.343 7.086 12.543-8.615 12.543-8.615L55.351 1.869a78.983 78.983 0 0 0-10.634-1.7C27.533-1.346 7.045 11.208 2.983 21.419Z" fill="#fff" opacity=".5"/></g><path data-name="Path 3978" d="M256.362 147.869s-1.462 21.592-3.794 29.181-5.579 30.944-12.554 41.154-16.046 18.971-26.27 19.561-23.923-17.519-31.812-29.19-8.749-23.344-11.382-34.727-3.2-24.55.882-34.738 24.55-22.764 41.734-21.3 38.811 10.512 43.2 17.218a11.728 11.728 0 0 1 0 12.844Z" fill="none" stroke="#263238" stroke-linecap="round" stroke-linejoin="round"/><path data-name="Path 3979" d="M226.88 176.76s.29 14.886 7.878 18.68a1.774 1.774 0 0 1 .882 2.634c-.882 2.042-7.588 3.2-12.275-.3" fill="none" stroke="#263238" stroke-linecap="round" stroke-linejoin="round"/><path data-name="Path 3980" d="M233.33 164.117a1.674 1.674 0 0 1-1.06-2.968c.268-.223 6.7-5.4 16.917-1.819a1.675 1.675 0 1 1-1.116 3.158c-8.447-2.968-13.625 1.205-13.67 1.25a1.673 1.673 0 0 1-1.071.379Z" fill="#263238"/><path data-name="Path 3981" d="M215.743 162.074a1.663 1.663 0 0 1-1.451-.826c-.179-.3-4.2-6.907-12.1-5.814a1.674 1.674 0 0 1-1.886-1.428 1.7 1.7 0 0 1 1.428-1.9c10.177-1.406 15.232 7.086 15.444 7.454a1.674 1.674 0 0 1-.6 2.288 1.651 1.651 0 0 1-.837.223Z" fill="#263238"/><path data-name="Line 147" fill="none" stroke="#263238" stroke-linecap="round" stroke-linejoin="round" d="M220.72 213.807h4.72"/><path data-name="Path 3982" d="M177.848 105.287s-18.97 6.137-20.432 13.725 8.179 34.146 7.889 37.349-3.214 5.847 0 10.512 9.039 11.672 11.382 7.878-.882-9.34 2.912-11.672 9.05-6.126 6.126-11.092-1.451-12.275 4.676-13.134 11.382-4.955 8.168-.29-12.542 16.055-7.589 16.928 24.55-12.275 24.55-12.275-6.7 13.391-3.214 14.295 30.944-17.218 30.944-17.218 13.134 17.218 15.756 16.047.882-10.791.882-10.791 2.042 12.844 6.126 13.391 9.63-6.428 7.878-10.8-4.7-10.489-4.7-10.489 5.836-1.462 8.168-4.1 2.042-2.912-2.924-3.794-8.749-6.416-13.391-11.382-12.275-11.671-12.275-11.671 8.749 3.794 4.084-.58-29.477-14.306-42.901-14.306-18.423 7.019-18.423 7.019 2.332-8.76-.3-7.588-5.579 8.168-5.579 8.168-6.126-1.752-9.329.3-4.1 4.084-1.462 4.084a15.244 15.244 0 0 1 4.374.58Z" fill="#263238"/><g data-name="Group 928" transform="translate(157.265 91.141)" clip-path="url(#e)"><g data-name="Group 927" opacity=".2" fill="#fff"><path data-name="Path 3983" d="M19.422 83.576c2.332-3.794-.882-9.34 2.912-11.672s9.05-6.126 6.126-11.092-1.451-12.275 4.676-13.134c4.609-.658 8.726-3.136 9.117-2.321 1.975-2.723 2.823-4.8 0-3.961-5.423 1.629-22.229 4.341-20.611 9.764s2.712 8.124-1.618 9.753-4.341 5.423-4.341 9.764c0 3.7-1.752 9.853-2.232 11.561 2.356 2.209 4.688 3.425 5.971 1.338Z"/><path data-name="Path 3984" d="m102.601 54.396.379 5.434s.078.324.179.859a36.82 36.82 0 0 0-.513-5.992c.346 1.93 2.366 12.587 6.082 13.123 4.084.58 9.63-6.428 7.878-10.8-.379-.937-.815-1.964-1.25-2.991-1.35 2.109-3.2 4.173-5.323 4.173-4.341-.001-7.432-3.806-7.432-3.806Z"/><path data-name="Path 3985" d="M96.831 61.917c-3.593-8.079-7.532-18.557-9.574-21.6-3.247-4.876-14.641 13.011-24.393 18.97-3.984 2.433-6.852 3.493-8.67 3.515-.357 1.864-.234 3.348.826 3.56 3.5.882 30.944-17.218 30.944-17.218a159.332 159.332 0 0 0 10.869 12.777Z"/><path data-name="Path 3986" d="M32.569 61.158c-.536 1.685-.335 2.89 1.116 3.158 3.749.658 15.8-6.7 21.492-10.289 3.225-3.961 7.22-6.405 7.655-9.92.536-4.341-20.086 13.011-27.105 16.27a6.026 6.026 0 0 1-3.158.781Z"/></g></g><path data-name="Path 3988" d="M177.848 105.287s-18.97 6.137-20.432 13.725 8.179 34.146 7.889 37.349-3.214 5.847 0 10.512 9.039 11.672 11.382 7.878-.882-9.34 2.912-11.672 9.05-6.126 6.126-11.092-1.451-12.275 4.676-13.134 11.382-4.955 8.168-.29-12.542 16.055-7.589 16.928 24.55-12.275 24.55-12.275-6.7 13.391-3.214 14.295 30.944-17.218 30.944-17.218 13.134 17.218 15.756 16.047.882-10.791.882-10.791 2.042 12.844 6.126 13.391 9.63-6.428 7.878-10.8-4.7-10.489-4.7-10.489 5.836-1.462 8.168-4.1 2.042-2.912-2.924-3.794-8.749-6.416-13.391-11.382-12.275-11.671-12.275-11.671 8.749 3.794 4.084-.58-29.477-14.306-42.901-14.306-18.423 7.019-18.423 7.019 2.332-8.76-.3-7.588-5.579 8.168-5.579 8.168-6.126-1.752-9.329.3-4.1 4.084-1.462 4.084a15.244 15.244 0 0 1 4.374.58Z" fill="none" stroke="#263238" stroke-linecap="round" stroke-linejoin="round"/><path data-name="Path 3989" d="M220.988 165.232s-4.263-4.586-15.734-4.263-19.673 2.3-21.961 3.616-.982 2.946-.335 5.245 2.3 13.1 4.921 17.363 9.507 7.867 14.094 7.867 7.209-.982 12.13-4.586 8.191-16.738 8.525-17.7 0-2.946 3.27-1.964 3.6 15.4 4.6 18.356 7.532 6.874 12.777 6.874 10.166-2.622 14.428-10.155a23.913 23.913 0 0 0 2.946-14.763s4.586-3.6.982-4.921-16-4.754-23.925-2.288c-9.509 2.955-14.43 2.301-16.718 1.319Z" fill="#263238"/><path data-name="Path 3990" d="m184.934 164.909-21.972 2.946v2.624l21.637-1.306s-1.986-3.282.335-4.264Z" fill="#263238"/><path data-name="Path 3991" d="M243.262 192.85c-6.428 0-9.708-3.415-10.422-9.34-.859-7.1-1.618-12.04-3.85-14.417a50.674 50.674 0 0 0 9.664-2.12 19.728 19.728 0 0 1 5.658-.714 54.131 54.131 0 0 1 14.362 2.354l-1.506 1.205.335 1.886a20.956 20.956 0 0 1-2.589 12.61c-4.321 7.655-8.695 8.536-11.652 8.536Zm-41.288-.982c-3.348 0-9.273-2.935-11.371-6.349-1.685-2.723-3.091-9.619-3.85-13.313-.3-1.5-.524-2.578-.714-3.258s-.346-1.06-.524-1.551l-.1-.279c2.578-1.116 9.876-2.656 19.93-2.946h1.116c8.8 0 12.2 3.214 12.275 3.247l.458.5.625.268a13.765 13.765 0 0 0 1.306.458 5.58 5.58 0 0 0-1.417 2.979v.212c0 .056-.1.324-.212.725-3.258 11.5-6.082 14.562-7.153 15.344-4.767 3.383-6.754 3.963-10.369 3.963Z" fill="#478bca"/><path data-name="Path 3992" d="M194.252 169.507h-1.685a.424.424 0 0 1-.413-.413.413.413 0 0 1 .413-.413h1.685a.413.413 0 0 1 .413.413.424.424 0 0 1-.413.413Zm.413 1.506a.413.413 0 0 0-.413-.413h-1.685a.413.413 0 0 0-.413.413.424.424 0 0 0 .413.413h1.685a.424.424 0 0 0 .413-.413Zm0 1.919a.424.424 0 0 0-.413-.413h-1.685a.424.424 0 0 0-.413.413.413.413 0 0 0 .413.413h1.685a.413.413 0 0 0 .413-.413Zm0 1.919a.424.424 0 0 0-.413-.413h-1.685a.424.424 0 0 0-.413.413.413.413 0 0 0 .413.413h1.685a.413.413 0 0 0 .413-.413Zm0 1.919a.424.424 0 0 0-.413-.413h-1.685a.424.424 0 0 0-.413.413.413.413 0 0 0 .413.413h1.685a.413.413 0 0 0 .413-.413Zm0 1.919a.424.424 0 0 0-.413-.413h-1.685a.424.424 0 0 0-.413.413.413.413 0 0 0 .413.413h1.685a.413.413 0 0 0 .413-.413Zm0 1.919a.424.424 0 0 0-.413-.413h-1.685a.424.424 0 0 0 0 .837h1.685a.424.424 0 0 0 .413-.424Zm0 1.919a.424.424 0 0 0-.413-.413h-1.685a.424.424 0 0 0 0 .837h1.685a.424.424 0 0 0 .413-.424Zm6.282-13.391a.4.4 0 0 0-.413-.413h-4.408a.4.4 0 0 0-.413.413.413.413 0 0 0 .413.413h4.408a.413.413 0 0 0 .413-.458Zm0 1.919a.4.4 0 0 0-.413-.413h-4.408a.4.4 0 0 0-.413.413.413.413 0 0 0 .413.413h4.408a.413.413 0 0 0 .413-.457Zm0 1.919a.413.413 0 0 0-.413-.413h-4.408a.413.413 0 0 0-.413.413.4.4 0 0 0 .413.413h4.408a.4.4 0 0 0 .413-.458Zm0 1.919a.413.413 0 0 0-.413-.413h-4.408a.413.413 0 0 0-.413.413.4.4 0 0 0 .413.413h4.408a.4.4 0 0 0 .413-.458Zm0 1.919a.413.413 0 0 0-.413-.413h-4.408a.413.413 0 0 0-.413.413.4.4 0 0 0 .413.413h4.408a.4.4 0 0 0 .413-.458Zm5.289 1.919a.424.424 0 0 0-.424-.413h-4.408a.424.424 0 0 0-.413.413.413.413 0 0 0 .413.413h4.408a.413.413 0 0 0 .424-.458Zm0 1.919a.424.424 0 0 0-.424-.413h-4.408a.424.424 0 0 0 0 .837h4.408a.424.424 0 0 0 .424-.469Zm0 1.919a.424.424 0 0 0-.424-.413h-4.408a.424.424 0 0 0 0 .837h4.408a.424.424 0 0 0 .424-.469Zm-3.348-13.391a.643.643 0 1 1 0-.089Zm1.439 0a.644.644 0 1 1 0-.089Zm1.439 0a.644.644 0 1 1 0-.089Zm1.451 0a.605.605 0 1 1 0-.089Zm1.439 0a.645.645 0 1 1 0-.089Zm1.439 0a.644.644 0 1 1 0-.089Zm-7.209 3.839a.644.644 0 1 1 0-.089Zm1.439 0a.645.645 0 1 1 0-.089Zm1.439 0a.645.645 0 1 1 0-.089Zm1.451 0a.606.606 0 1 1 0-.089Zm1.439 0a.645.645 0 1 1 0-.089Zm1.439 0a.645.645 0 1 1 0-.089Zm-2.232 5.524a.228.228 0 1 1-.056-.089Zm1.439 0a.228.228 0 1 1-.056-.089Zm1.439 0a.228.228 0 1 1-.056-.089Zm1.439 0a.228.228 0 1 1-.056-.089Zm1.451 0a.491.491 0 1 0-.48.48.48.48 0 0 0 .424-.569Zm1.439 0a.188.188 0 1 1-.1-.089Zm-7.209 3.961a.48.48 0 1 0-.48.48.48.48 0 0 0 .48-.48Zm1.439 0a.48.48 0 0 0-.96 0 .491.491 0 0 0 .48.48.48.48 0 0 0 .424-.569Zm1.439 0a.48.48 0 1 0-.96 0 .491.491 0 0 0 .48.48.48.48 0 0 0 .424-.569Zm1.439 0a.48.48 0 1 0-.96 0 .491.491 0 0 0 .48.48.48.48 0 0 0 .424-.569Zm1.451 0a.491.491 0 1 0-.485.417.491.491 0 0 0 .485-.417Zm1.439 0a.48.48 0 1 0-.48.48.491.491 0 0 0 .38-.569Z" fill="#263238"/><path data-name="Path 3993" d="M235.294 169.507h-1.674a.424.424 0 0 1-.424-.413.413.413 0 0 1 .424-.413h1.674a.4.4 0 0 1 .413.413.413.413 0 0 1-.413.413Zm.413 1.506a.4.4 0 0 0-.413-.413h-1.674a.413.413 0 0 0-.424.413.424.424 0 0 0 .424.413h1.674a.413.413 0 0 0 .413-.413Zm0 1.919a.413.413 0 0 0-.413-.413h-1.674a.424.424 0 0 0-.424.413.413.413 0 0 0 .424.413h1.674a.4.4 0 0 0 .413-.413Zm0 1.919a.413.413 0 0 0-.413-.413h-1.674a.424.424 0 0 0-.424.413.413.413 0 0 0 .424.413h1.674a.4.4 0 0 0 .413-.413Zm0 1.919a.413.413 0 0 0-.413-.413h-1.674a.424.424 0 0 0-.424.413.413.413 0 0 0 .424.413h1.674a.4.4 0 0 0 .413-.413Zm0 1.919a.413.413 0 0 0-.413-.413h-1.674a.424.424 0 0 0-.424.413.413.413 0 0 0 .424.413h1.674a.4.4 0 0 0 .413-.413Zm0 1.919a.413.413 0 0 0-.413-.413h-1.674a.424.424 0 1 0 0 .837h1.674a.413.413 0 0 0 .413-.424Zm0 1.919a.413.413 0 0 0-.413-.413h-1.674a.424.424 0 1 0 0 .837h1.674a.413.413 0 0 0 .413-.424Zm6.294-13.391a.413.413 0 0 0-.424-.413h-4.464a.413.413 0 0 0-.413.413.424.424 0 0 0 .413.413h4.464a.424.424 0 0 0 .424-.458Zm0 1.919a.413.413 0 0 0-.424-.413h-4.464a.413.413 0 0 0-.413.413.424.424 0 0 0 .413.413h4.464a.424.424 0 0 0 .424-.458Zm0 1.919a.424.424 0 0 0-.424-.413h-4.464a.424.424 0 0 0-.413.413.413.413 0 0 0 .413.413h4.464a.413.413 0 0 0 .424-.457Zm0 1.919a.424.424 0 0 0-.424-.413h-4.464a.424.424 0 0 0-.413.413.413.413 0 0 0 .413.413h4.464a.413.413 0 0 0 .424-.457Zm0 1.919a.424.424 0 0 0-.424-.413h-4.464a.424.424 0 0 0-.413.413.413.413 0 0 0 .413.413h4.464a.413.413 0 0 0 .424-.457Zm5.278 1.919a.424.424 0 0 0-.413-.413h-4.464a.424.424 0 0 0-.413.413.413.413 0 0 0 .413.413h4.464a.413.413 0 0 0 .469-.458Zm0 1.919a.424.424 0 0 0-.413-.413h-4.464a.424.424 0 0 0 0 .837h4.464a.424.424 0 0 0 .469-.469Zm0 1.919a.424.424 0 0 0-.413-.413h-4.464a.424.424 0 0 0 0 .837h4.464a.424.424 0 0 0 .469-.469Zm-3.348-13.391a.617.617 0 1 0 .056-.089Zm1.451 0a.645.645 0 1 1 0-.089Zm1.44 0a.644.644 0 1 1 0-.089Zm1.44 0a.643.643 0 1 1 0-.089Zm1.44 0a.643.643 0 1 1 0-.089Zm1.44 0a.643.643 0 1 1 0-.089Zm-7.153 3.749a.48.48 0 1 0-.48.48.48.48 0 0 0 .478-.474Zm1.451 0a.453.453 0 1 1-.056 0Zm1.44 0a.453.453 0 1 1-.056 0Zm1.44 0a.453.453 0 1 1-.056 0Zm1.44 0a.453.453 0 1 1-.056 0Zm1.44 0a.453.453 0 1 1-.056 0Zm-2.288 5.524a.453.453 0 1 1-.056 0Zm1.451 0a.463.463 0 1 1-.056 0Zm1.439 0a.48.48 0 1 0-.48.48.48.48 0 0 0 .476-.475Zm1.44 0a.453.453 0 1 1-.056 0Zm1.44 0a.453.453 0 1 1-.056 0Zm1.44 0a.453.453 0 1 1-.056 0Zm-7.209 3.961a.48.48 0 0 0-.96 0 .491.491 0 0 0 .48.48.48.48 0 0 0 .424-.48Zm1.451 0a.491.491 0 1 0-.485.417.491.491 0 0 0 .485-.417Zm1.439 0a.48.48 0 1 0-.48.48.491.491 0 0 0 .48-.48Zm1.44 0a.48.48 0 1 0-.48.48.491.491 0 0 0 .424-.48Zm1.44 0a.48.48 0 1 0-.48.48.491.491 0 0 0 .424-.48Zm1.44 0a.48.48 0 1 0-.48.48.48.48 0 0 0 .48-.48Z" fill="#263238"/><path data-name="Path 3994" d="M177.848 180.844s-7-16.337-13.134-16.337-5.836 13.714-2.042 21.012 11.974 10.21 14.306 5.836" fill="#fff"/><g data-name="Group 929" transform="translate(159.94 164.507)" clip-path="url(#f)"><path data-name="Path 3995" d="M17.908 16.337S10.908 0 4.774 0s-5.836 13.714-2.042 21.012 11.974 10.21 14.306 5.836" fill="#478bca"/><path data-name="Path 3996" d="M17.908 16.337S10.908 0 4.774 0s-5.836 13.714-2.042 21.012 11.974 10.21 14.306 5.836" fill="#fff" opacity=".5"/></g><path data-name="Path 3998" d="M177.848 180.844s-7-16.337-13.134-16.337-5.836 13.714-2.042 21.012 11.974 10.21 14.306 5.836" fill="none" stroke="#263238" stroke-linecap="round" stroke-linejoin="round"/><path data-name="Path 3999" d="M162.683 174.472s-.893-7.108 2.488-5.858 7.287 12.442 7.287 12.442-2.846-3.024-2.488-.179a3.225 3.225 0 0 0 2.846 3.013" fill="none" stroke="#263238" stroke-linecap="round" stroke-linejoin="round"/><g transform="translate(180.57 231.527)"><path data-name="Path 4000" d="M231.369 0H93.031L69.408 94.962h138.348Z" fill="#263238" stroke="#263238" stroke-linecap="round" stroke-linejoin="round"/><path data-name="Rectangle 2546" fill="#263238" stroke="#263238" stroke-linecap="round" stroke-linejoin="round" d="M0 94.962h206.306v6.751H0z"/><path data-name="Rectangle 2547" fill="#478bca" stroke="#263238" stroke-linecap="round" stroke-linejoin="round" d="M69.408 94.962h138.348v6.751H69.408z"/><path data-name="Path 4001" d="M232.909 0H94.56L70.937 94.962h138.348Z" fill="#478bca" stroke="#263238" stroke-linecap="round" stroke-linejoin="round"/><ellipse data-name="Ellipse 64" cx="19.729" cy="19.539" rx="19.729" ry="19.539" transform="translate(131.407 29.75)" fill="#263238"/><path data-name="Path 4002" d="M135.101 52.302a1.674 1.674 0 0 1-.893-.971 1.919 1.919 0 0 1 0-1.428 1.986 1.986 0 0 1 1.116-1.116l8.358-3.348c.279-.123.569 0 .882.368a1.908 1.908 0 0 1 .48 1.116 1.049 1.049 0 0 1-.569.971l-7.008 2.723 7.03 2.823a.993.993 0 0 1 .435.915 1.93 1.93 0 0 1-.4 1.116c-.268.357-.536.48-.815.368Z" fill="#fff"/><path data-name="Path 4003" d="M148.146 56.977a.949.949 0 0 1-.357-.77 6.115 6.115 0 0 1 .268-1.183l4.642-13.387q.435-1.507 1.239-1.506a1.2 1.2 0 0 1 .8.29 1.116 1.116 0 0 1 .324.837 3.794 3.794 0 0 1-.257 1.116l-4.851 14.163a.993.993 0 0 1-1.015.759 1.227 1.227 0 0 1-.792-.324Z" fill="#fff"/><path data-name="Path 4004" d="M157.262 55.527a1.931 1.931 0 0 1-.4-1.116.993.993 0 0 1 .435-.915l7.03-2.823-7.008-2.723a1.049 1.049 0 0 1-.569-.971 1.908 1.908 0 0 1 .48-1.116c.312-.368.6-.491.882-.368l8.358 3.348a2.087 2.087 0 0 1 .982.8 1.83 1.83 0 0 1 .324 1.049 2.132 2.132 0 0 1-.29.993 1.529 1.529 0 0 1-.736.67l-8.67 3.6a.844.844 0 0 1-.818-.428Z" fill="#fff"/></g><path data-name="Rectangle 2548" fill="#fff" stroke="#263238" stroke-linecap="round" stroke-linejoin="round" d="M17.092 331.746h447.841v6.695H17.092z"/></svg>