<svg xmlns="http://www.w3.org/2000/svg" width="432.629" height="435.532"><defs><clipPath id="h"><path data-name="Path 4054" d="M190.093 318.206s-9.451 5.316-12.7 11.223 10.727 15.748 25.495 15.157 41.845-16.634 41.845-16.634.3 25.991 5.316 35.442 28.058 32.489 37.214 38.4 39.872 28.058 44.6 31.6 13.586 10.042 15.654 10.337 23.628-25.991 28.649-34.852 9.451-27.468 7.679-31.6-5.316-.591-8.861 2.363S338.95 404.154 336 405.63a32.416 32.416 0 0 1-5.021 2.067s-26.582-25.4-40.759-44.893-15.358-44.6-20.675-54.049-13-13.586-24.514-12.4-35.445 7.379-54.938 21.851Z" transform="translate(-176.918 -296.153)" fill="#fff" stroke="#263238" stroke-linecap="round" stroke-linejoin="round"/></clipPath><clipPath id="a"><path data-name="Path 4012" d="M223.888 232.3s-30.776-3.651-51.025 12.145S135.2 326.241 135.6 357.856s12.157 47.386 41.715 60.334 84.624 8.1 115.4-1.618 40.9-43.712 40.5-61.953-20.651-39.282-27.539-43.712-26.322-13.763-36.033-28.354-23.899-46.205-45.755-50.253Z" transform="translate(-135.594 -231.931)" fill="#478bca" stroke="#263238" stroke-linecap="round" stroke-linejoin="round"/></clipPath><clipPath id="c"><path data-name="Path 4025" d="M192.707 304.215s-6.793-9.747-15.063-10.633-18.312 5.907-18.607 8.27-2.363 15.063-.886 16.835 7.088 3.249 18.016-.3 15.359-7.97 16.54-14.172Z" transform="translate(-157.624 -293.503)" fill="#fff" stroke="#263238" stroke-linecap="round" stroke-linejoin="round"/></clipPath><clipPath id="d"><path data-name="Path 4030" d="M169.59 307.813s-11.082 4.395-11.519 13c-.248 4.726 7.679 6.793 15.949 6.793s20.084-10.337 27.763-14.768 25.4-14.768 27.468-15.654 9.156 1.477 12.109 2.363a39.94 39.94 0 0 0 8.565.886s4.135 6.5 6.2 6.5-4.43-9.747-5.316-11.814-15.358-6.793-17.13-6.793-43.121 10.337-49.324 12.7-14.765 6.787-14.765 6.787Z" transform="translate(-158.065 -288.32)" fill="#fff" stroke="#263238" stroke-linecap="round" stroke-linejoin="round"/></clipPath><clipPath id="e"><path data-name="Path 4036" d="m238.178 292.07-31.638 22.376 72.361-2.067 24.254-20.013Z" transform="translate(-206.54 -292.07)" fill="#fff" stroke="#263238" stroke-linecap="round" stroke-linejoin="round"/></clipPath><clipPath id="f"><path data-name="Path 4041" d="M253.57 316.24s25.991-22.742 51.687-30.421 31.012-6.5 30.421 5.021-13 71.77-21.265 87.129-18.608 43.416-18.313 48.731 10.337 20.97 19.2 26.582 7.974 12.4 2.363 13.586-12.109 3.249-31.307-9.156-27.172-30.126-25.991-34.556 13.586-10.337 18.607-19.2 13.291-41.94 13.882-57a89.5 89.5 0 0 1 5.907-27.763s-32.489 5.907-41.94 11.814Z" transform="translate(-253.57 -280.942)" fill="#fff" stroke="#263238" stroke-linecap="round" stroke-linejoin="round"/></clipPath><clipPath id="g"><path data-name="Path 4048" d="M278.97 403.96c-.378.662-.8 1.3-1.252 1.938a30.351 30.351 0 0 1 16.611 6.923 52.19 52.19 0 0 1 4.04 3.91c5.659-7.608 12.027-31.6 19.21-41.479 18.56-25.507 17.508-72.893 18.1-84.411s-4.726-12.7-30.421-5.021-51.688 30.42-51.688 30.42l3.249 14.768c9.451-5.907 41.94-11.814 41.94-11.814a89.5 89.5 0 0 0-5.907 27.763c-.591 15.063-8.861 48.143-13.882 57.003Z" transform="translate(-253.57 -280.942)" fill="#263238" stroke="#263238" stroke-linecap="round" stroke-linejoin="round"/></clipPath><clipPath id="b"><path data-name="Path 4020" d="M211.462 235.123s-11.023 3.544-12.606 6.3-.39 22.057-.39 24.42 1.382-1.382 2.564-4.135 5.316-6.9 6.687-6.5 2.174 1.961 2.174 4.525 3.143 6.108 5.907 8.069 5.316 3.946 5.316 3.946 5.706-8.27 7.088-10.444 1.181-6.687 1.37-8.27 3.745 4.336 4.537 2.764-1.772-2.954-4.537-7.289-1.961-8.861-6.1-12.015-8.856-2.174-12.01-1.371Z" transform="translate(-198.035 -234.321)" fill="#fff" stroke="#263238" stroke-linecap="round" stroke-linejoin="round"/></clipPath><clipPath id="i"><path data-name="Path 4059" d="M329.706 405.961c-6.25-6.1-29.677-37.533-38.927-55.609-13.551-26.487-15.016-35.513-20.332-44.964s-13.338-10.184-24.81-9-32.134 3.32-57.416 17.662c0 0-10.633 5.765-13.87 11.672s8.589 20.781 29.145 18.9c14.72-1.347 41.845-16.634 41.845-16.634s.3 25.991 5.316 35.442 28.058 32.489 37.214 38.4c5.8 3.745 20.273 14.023 31.3 21.939 2.714-9.892 7.594-15.303 10.535-17.808Z" transform="translate(-173.821 -295.957)" fill="#263238" stroke="#263238" stroke-linecap="round" stroke-linejoin="round"/></clipPath><clipPath id="j"><path data-name="Path 4065" d="M350.74 396.709c5.021-8.861 9.451-27.468 7.679-31.6-1.028-2.363-2.646-2.209-4.525-1.051 1.24 5.517 0 16.162-6.108 27.633-5.446 10.231-22.269 28.354-30.717 37.12a19.827 19.827 0 0 0 5.045 2.753c2.044.292 23.605-25.994 28.626-34.855Z" transform="translate(-317.07 -363.239)" fill="#fff" stroke="#263238" stroke-linecap="round" stroke-linejoin="round"/></clipPath><clipPath id="k"><path data-name="Path 4071" d="M314.273 431.95a38.6 38.6 0 0 1-7.868-7.088c-6.1-2.6-14.236-5.907-21.372-10.349-7.679-4.726-5.907-7.679-10.337-12.109-3.4-3.4-10.089-3.84-13-3.863a8.163 8.163 0 0 0-2.363 3.272c-1.181 4.43 6.793 22.151 25.991 34.556s25.7 10.337 31.307 9.156 6.502-7.963-2.358-13.575Z" transform="translate(-259.224 -398.54)" fill="#fff" stroke="#263238" stroke-linecap="round" stroke-linejoin="round"/></clipPath><clipPath id="l"><path data-name="Path 4075" d="M315.746 433.652c-7.679-4.43-23.333-7.384-33.375-14.177s-7.384-12.7-14.768-17.426a7.5 7.5 0 0 0-8.27-.473c-1.028 4.607 6.97 22.128 25.991 34.438s25.7 10.337 31.307 9.156c3.733-.792 5.352-4.052 3.426-7.8a16.115 16.115 0 0 0-4.311-3.718Z" transform="translate(-259.246 -400.556)" fill="#263238" stroke="#263238" stroke-linecap="round" stroke-linejoin="round"/></clipPath><clipPath id="m"><path data-name="Path 4086" d="M206.72 222.055s1.382 14.921 1.961 19.635 1.89 18.253 3.249 22.73 8.766 12.263 9.451 10.467 4.371-13.976 2.906-21.265-1.914-13.515-1-15.358 4.182-3.91 4.182-3.91a118.643 118.643 0 0 1-11.093-6.462c-5.226-3.474-8.924-7.409-9.656-5.837Z" transform="translate(-206.72 -221.699)" fill="#fff" stroke="#263238" stroke-linecap="round" stroke-linejoin="round"/></clipPath><clipPath id="n"><path data-name="Path 4091" d="M207.256 229.411s8.506 7.088 15.027 9.688 16.54 2.434 17.969-.957-2.481-30.244-5.848-37.309-6.958-7.183-12.9-7.726-17.827 4.3-19.919 10.042.3 13.87 2.02 18.69a35.44 35.44 0 0 0 3.651 7.572Z" transform="translate(-200.769 -193.065)" fill="#fff" stroke="#263238" stroke-linecap="round" stroke-linejoin="round"/></clipPath><clipPath id="o"><path data-name="Path 4108" d="M209.909 218.456s-3.816-5.505-7.833-3.3-.9 10.066 1.524 12.795 7.088-2.363 7.573-3.639" transform="translate(-200.145 -214.637)" fill="#fff" stroke="#263238" stroke-linecap="round" stroke-linejoin="round"/></clipPath></defs><path data-name="Path 4005" d="M406.73 309.886c8.837-72.125-33.954-168-78.327-207.573-80.087-71.475-146.625-57.653-198.37-32.051S70.88 181.312 35.154 219.981s-56.07 90.673-1.843 142.454 97.95 25.459 154.634 22.187 131.833 22.565 172.485.083c28.413-15.693 42.401-42.933 46.3-74.819Z" fill="#478bca"/><path data-name="Path 4006" d="M406.73 309.886c8.837-72.125-33.954-168-78.327-207.573-80.087-71.475-146.625-57.653-198.37-32.051S70.88 181.312 35.154 219.981s-56.07 90.673-1.843 142.454 97.95 25.459 154.634 22.187 131.833 22.565 172.485.083c28.413-15.693 42.401-42.933 46.3-74.819Z" fill="#fff" opacity=".7"/><path data-name="Line 149" fill="none" stroke="#263238" stroke-linecap="round" stroke-linejoin="round" d="M182.44 307.347V41.601"/><path data-name="Path 4007" d="M9.695 309.981h167.63l254.676 82.2" fill="none" stroke="#263238" stroke-linecap="round" stroke-linejoin="round"/><path data-name="Path 4008" d="M86.026 303.744H74.448V112.285h23.9L88.035 75.059H57.082l-10.314 37.226h23.9v191.459H59.055a11.341 11.341 0 0 0-11.33 11.129s0 .059 0 .083v.094c.343 2.67 11.306 4.82 24.81 4.82s24.467-2.15 24.81-4.82a11.341 11.341 0 0 0-11.319-11.306Z" fill="#263238"/><path data-name="Path 4009" d="M240.306 28.428v225.436l169.733 27.928V.5ZM405.632 92.98l-86.243 4.891V19.544l86.243-13.728Zm-86.243 13.125 86.243-3.958V180.9l-86.243-4.029Zm-6.994 70.435-69.242-3.225v-63.712l69.183-3.166Zm0-155.887v77.642l-69.242 3.885V31.665Zm-69.242 160.082 69.183 3.981v76.921l-69.183-11.011Zm76.177 82.013v-77.63l86.243 4.962v86.4Z" fill="#263238" stroke="#263238" stroke-linecap="round" stroke-linejoin="round"/><g transform="translate(29.105 125.083)"><ellipse data-name="Ellipse 65" cx="135.803" cy="42.306" rx="135.803" ry="42.306" transform="translate(16.859 209.885)" fill="#478bca"/><ellipse data-name="Ellipse 66" cx="135.803" cy="42.306" rx="135.803" ry="42.306" transform="translate(16.859 209.885)" fill="#fff" opacity=".5"/><path data-name="Path 4010" d="M141.19 65.651S110.414 62 90.165 77.796s-37.663 81.796-37.263 113.411 12.157 47.386 41.715 60.334 84.624 8.1 115.4-1.618 40.9-43.712 40.5-61.953-20.651-39.282-27.539-43.712-26.322-13.763-36.033-28.354-23.899-46.205-45.755-50.253Z" fill="#478bca"/><g data-name="Group 932" transform="translate(52.897 65.282)" clip-path="url(#a)"><path data-name="Path 4011" d="M162.769 182.455c-11.637-1.571-25.436-4.726-35.879-11.07-22.057-13.385-27.562-38.6-35.442-48.048s-22.057-8.66-28.354-18.9 3.934-85.841-14.177-90.567a41.219 41.219 0 0 0-11.306-1.619c-.106.095-.236.165-.343.26C17.019 28.311-.395 94.311.006 125.926s12.157 47.386 41.715 60.334 84.624 8.1 115.4-1.619a48.589 48.589 0 0 0 5.648-2.186Z" opacity=".13"/></g><path data-name="Path 4013" d="M141.19 65.651S110.414 62 90.165 77.796s-37.663 81.796-37.263 113.411 12.157 47.386 41.715 60.334 84.624 8.1 115.4-1.618 40.9-43.712 40.5-61.953-20.651-39.282-27.539-43.712-26.322-13.763-36.033-28.354-23.899-46.205-45.755-50.253Z" fill="none" stroke="#263238" stroke-linecap="round" stroke-linejoin="round"/><path data-name="Path 4014" d="M129.069 79.919s-20.084 3.84-23.628 7.384-18.312 59.07-18.312 59.07a21.974 21.974 0 0 1 12.4.591c5.907 2.363 6.5 8.565 7.088 11.519a105.705 105.705 0 0 1 .886 10.633s59.7-5.328 72.4-8.27 32.028-4.312 32.028-4.312-32.652-73.65-37.672-76.308-25.991-2.954-28.944-2.363-16.246 2.056-16.246 2.056Z" fill="#263238" stroke="#263238" stroke-linecap="round" stroke-linejoin="round"/><path data-name="Line 150" fill="none" stroke="#fff" stroke-linecap="round" stroke-linejoin="round" d="m109.28 148.145 5.021-41.054"/><path data-name="Line 151" fill="none" stroke="#fff" stroke-linecap="round" stroke-linejoin="round" d="m113.12 118.019 6.793-8.861"/><path data-name="Path 4015" d="M133.499 123.335s19.2-6.2 31.9-6.2" fill="none" stroke="#fff" stroke-linecap="round" stroke-linejoin="round"/><path data-name="Path 4016" d="m151.622 106.406-1.288 9.841s3.249 0 3.544 1.477a3.922 3.922 0 0 1-1.181 2.954s9.156 5.021 10.337 10.928" fill="none" stroke="#fff" stroke-linecap="round" stroke-linejoin="round"/><path data-name="Path 4017" d="M140.091 68.908s-11.023 3.544-12.606 6.3-.39 22.057-.39 24.42 1.382-1.382 2.564-4.135 5.316-6.9 6.687-6.5 2.174 1.961 2.174 4.525 3.143 6.108 5.907 8.069 5.316 3.946 5.316 3.946 5.706-8.27 7.088-10.444 1.181-6.687 1.37-8.27 3.745 4.336 4.537 2.764-1.772-2.954-4.537-7.289-1.961-8.861-6.1-12.015-8.856-2.174-12.01-1.371Z" fill="#fff"/><g data-name="Group 933" transform="translate(126.664 68.105)" clip-path="url(#b)"><path data-name="Path 4018" d="M.821 7.088C-.219 8.931-.053 18.122.183 24.809c2.516-3.237 7.7-9.357 10.7-8.2 3.828 1.477 5.293 12.358 5.293 12.358L13.592.803h-.165S2.404 4.347.821 7.088Z" fill="#478bca"/><path data-name="Path 4019" d="M.821 7.088C-.219 8.931-.053 18.122.183 24.809c2.516-3.237 7.7-9.357 10.7-8.2 3.828 1.477 5.293 12.358 5.293 12.358L13.592.803h-.165S2.404 4.347.821 7.088Z" fill="#fff" opacity=".5"/></g><path data-name="Path 4021" d="M140.091 68.908s-11.023 3.544-12.606 6.3-.39 22.057-.39 24.42 1.382-1.382 2.564-4.135 5.316-6.9 6.687-6.5 2.174 1.961 2.174 4.525 3.143 6.108 5.907 8.069 5.316 3.946 5.316 3.946 5.706-8.27 7.088-10.444 1.181-6.687 1.37-8.27 3.745 4.336 4.537 2.764-1.772-2.954-4.537-7.289-1.961-8.861-6.1-12.015-8.856-2.174-12.01-1.371Z" fill="none" stroke="#263238" stroke-linecap="round" stroke-linejoin="round"/><path data-name="Path 4022" d="M114.006 148.736s-6.793-9.747-15.063-10.633-18.312 5.907-18.607 8.27-2.363 15.063-.886 16.835 7.088 3.249 18.016-.3 15.359-7.97 16.54-14.172Z" fill="#fff"/><g data-name="Group 934" transform="translate(78.923 138.024)" clip-path="url(#c)"><path data-name="Path 4023" d="M7.45 24.877s-2.363-6.758-1.181-9.109 5.907-5.907 8.825-9.451-6.888 2-7.36 0C7.368 4.71 12.92 1.497 15.106.304 8.23 1.627 1.65 6.412 1.413 8.314c-.3 2.363-2.363 15.063-.886 16.835.756.91 2.635 1.749 5.765 1.855.709-1.217 1.158-2.127 1.158-2.127Z" fill="#478bca"/><path data-name="Path 4024" d="M7.45 24.877s-2.363-6.758-1.181-9.109 5.907-5.907 8.825-9.451-6.888 2-7.36 0C7.368 4.71 12.92 1.497 15.106.304 8.23 1.627 1.65 6.412 1.413 8.314c-.3 2.363-2.363 15.063-.886 16.835.756.91 2.635 1.749 5.765 1.855.709-1.217 1.158-2.127 1.158-2.127Z" fill="#fff" opacity=".5"/></g><path data-name="Path 4026" d="M114.006 148.736s-6.793-9.747-15.063-10.633-18.312 5.907-18.607 8.27-2.363 15.063-.886 16.835 7.088 3.249 18.016-.3 15.359-7.97 16.54-14.172Z" fill="none" stroke="#263238" stroke-linecap="round" stroke-linejoin="round"/><path data-name="Path 4027" d="M90.969 151.394s-11.082 4.395-11.519 13c-.248 4.726 7.679 6.793 15.949 6.793s20.084-10.337 27.763-14.768 25.4-14.768 27.468-15.654 9.156 1.477 12.109 2.363a39.94 39.94 0 0 0 8.565.886s4.135 6.5 6.2 6.5-4.43-9.747-5.316-11.814-15.358-6.793-17.13-6.793-43.121 10.337-49.324 12.7-14.765 6.787-14.765 6.787Z" fill="#fff"/><g data-name="Group 935" transform="translate(79.444 131.901)" clip-path="url(#d)"><path data-name="Path 4028" d="M34.692 18.265C51.574 9.818 75.616 0 75.616 0c-1.772 0-43.121 10.337-49.324 12.7s-14.768 6.793-14.768 6.793-11.082 4.395-11.519 13c-.248 4.726 7.679 6.793 15.949 6.793s20.084-10.337 27.763-14.768l4.655-2.694c-11.282 1.426-26.368 2.773-13.68-3.559Z" fill="#478bca"/><path data-name="Path 4029" d="M34.692 18.265C51.574 9.818 75.616 0 75.616 0c-1.772 0-43.121 10.337-49.324 12.7s-14.768 6.793-14.768 6.793-11.082 4.395-11.519 13c-.248 4.726 7.679 6.793 15.949 6.793s20.084-10.337 27.763-14.768l4.655-2.694c-11.282 1.426-26.368 2.773-13.68-3.559Z" fill="#fff" opacity=".5"/></g><path data-name="Path 4031" d="M90.969 151.394s-11.082 4.395-11.519 13c-.248 4.726 7.679 6.793 15.949 6.793s20.084-10.337 27.763-14.768 25.4-14.768 27.468-15.654 9.156 1.477 12.109 2.363a39.94 39.94 0 0 0 8.565.886s4.135 6.5 6.2 6.5-4.43-9.747-5.316-11.814-15.358-6.793-17.13-6.793-43.121 10.337-49.324 12.7-14.765 6.787-14.765 6.787Z" fill="none" stroke="#263238" stroke-linecap="round" stroke-linejoin="round"/><path data-name="Path 4032" d="m177.352 85.708-9 50.623 64.977.3 9.664-48.012a2.989 2.989 0 0 0-2.835-3.544l-59.779-1.8a2.977 2.977 0 0 0-3.024 2.434Z" fill="#fff" stroke="#263238" stroke-linecap="round" stroke-linejoin="round"/><path data-name="Path 4033" d="m168.35 136.331-31.638 22.376 72.361-2.067 24.254-20.013Z" fill="#fff"/><g data-name="Group 936" transform="translate(136.712 136.331)" clip-path="url(#e)"><path data-name="Path 4034" d="M31.638 0 0 22.376l72.361-2.067L96.615.296Z" fill="#478bca"/><path data-name="Path 4035" d="M31.638 0 0 22.376l72.361-2.067L96.615.296Z" fill="#fff" opacity=".5"/></g><path data-name="Path 4037" d="m168.35 136.331-31.638 22.376 72.361-2.067 24.254-20.013Z" fill="none" stroke="#263238" stroke-linecap="round" stroke-linejoin="round"/><path data-name="Path 4038" d="M192.274 158.482s25.991-22.742 51.687-30.421 31.012-6.5 30.421 5.021-13 71.77-21.265 87.129-18.608 43.416-18.313 48.731 10.337 20.97 19.2 26.582 7.974 12.4 2.363 13.586-12.109 3.249-31.307-9.156-27.172-30.126-25.991-34.556 13.586-10.337 18.607-19.2 13.291-41.94 13.882-57a89.5 89.5 0 0 1 5.907-27.763s-32.489 5.907-41.94 11.814Z" fill="#fff"/><g data-name="Group 937" transform="translate(192.274 123.184)" clip-path="url(#f)"><path data-name="Path 4039" d="M0 35.298S25.991 12.556 51.687 4.877s31.012-6.5 30.421 5.021-13 71.77-21.265 87.129-18.608 43.416-18.313 48.731 10.337 20.97 19.2 26.582 7.974 12.4 2.363 13.586-12.109 3.249-31.307-9.156-27.172-30.126-25.991-34.556 13.586-10.337 18.607-19.2 13.291-41.94 13.882-57a89.5 89.5 0 0 1 5.907-27.763s-32.489 5.907-41.94 11.814Z" fill="#478bca"/><path data-name="Path 4040" d="M0 35.298S25.991 12.556 51.687 4.877s31.012-6.5 30.421 5.021-13 71.77-21.265 87.129-18.608 43.416-18.313 48.731 10.337 20.97 19.2 26.582 7.974 12.4 2.363 13.586-12.109 3.249-31.307-9.156-27.172-30.126-25.991-34.556 13.586-10.337 18.607-19.2 13.291-41.94 13.882-57a89.5 89.5 0 0 1 5.907-27.763s-32.489 5.907-41.94 11.814Z" fill="#fff" opacity=".5"/></g><path data-name="Path 4042" d="M192.274 158.482s25.991-22.742 51.687-30.421 31.012-6.5 30.421 5.021-13 71.77-21.265 87.129-18.608 43.416-18.313 48.731 10.337 20.97 19.2 26.582 7.974 12.4 2.363 13.586-12.109 3.249-31.307-9.156-27.172-30.126-25.991-34.556 13.586-10.337 18.607-19.2 13.291-41.94 13.882-57a89.5 89.5 0 0 1 5.907-27.763s-32.489 5.907-41.94 11.814Z" fill="none" stroke="#263238" stroke-linecap="round" stroke-linejoin="round"/><path data-name="Path 4043" d="M217.674 246.202c-.378.662-.8 1.3-1.252 1.938a30.351 30.351 0 0 1 16.611 6.923 52.19 52.19 0 0 1 4.04 3.91 258.328 258.328 0 0 1 16.044-38.762c8.27-15.358 20.675-75.61 21.265-87.129s-4.726-12.7-30.421-5.021-51.687 30.421-51.687 30.421l3.249 14.768c9.451-5.907 41.94-11.814 41.94-11.814a89.5 89.5 0 0 0-5.907 27.763c-.591 15.063-8.861 48.143-13.882 57.003Z" fill="#fff" stroke="#263238" stroke-linecap="round" stroke-linejoin="round"/><path data-name="Path 4044" d="M217.674 246.202c-.378.662-.8 1.3-1.252 1.938a30.351 30.351 0 0 1 16.611 6.923 52.19 52.19 0 0 1 4.04 3.91c5.659-7.608 12.027-31.6 19.21-41.479 18.56-25.507 17.508-72.893 18.1-84.411s-4.726-12.7-30.421-5.021-51.688 30.42-51.688 30.42l3.249 14.768c9.451-5.907 41.94-11.814 41.94-11.814a89.5 89.5 0 0 0-5.907 27.763c-.591 15.063-8.861 48.143-13.882 57.003Z" fill="#263238"/><g data-name="Group 938" transform="translate(192.274 123.184)" clip-path="url(#g)"><path data-name="Path 4045" d="M25.4 123.018c-.378.662-.8 1.3-1.252 1.938a30.351 30.351 0 0 1 16.611 6.923 52.19 52.19 0 0 1 4.04 3.91c5.659-7.608 12.027-31.6 19.21-41.479 18.56-25.507 17.508-72.893 18.1-84.411s-4.726-12.7-30.421-5.021S0 35.298 0 35.298l3.249 14.768c9.451-5.907 41.94-11.814 41.94-11.814a89.5 89.5 0 0 0-5.907 27.763c-.591 15.063-8.861 48.143-13.882 57.003Z" fill="#fff" opacity=".53"/><path data-name="Path 4046" d="M69.62 8.339c-.461-4.194-46.146 15.146-65.414 23.486C1.536 33.951 0 35.298 0 35.298l3.249 14.768c9.451-5.907 41.94-11.817 41.94-11.817a89.5 89.5 0 0 0-5.907 27.763c-.591 15.063-8.861 48.142-13.882 57-.378.662-.8 1.3-1.252 1.938a33.458 33.458 0 0 1 9.451 2.445c7.077-15.1 14.7-32.666 18.3-46.406 6.498-24.803 18.312-67.333 17.721-72.65Z" opacity=".14"/><path data-name="Path 4047" d="M45.189 38.252s8.861-18.016 16.54-25.4" fill="none" stroke="#263238" stroke-linecap="round" stroke-linejoin="round"/></g><path data-name="Path 4049" d="M217.674 246.202c-.378.662-.8 1.3-1.252 1.938a30.351 30.351 0 0 1 16.611 6.923 52.19 52.19 0 0 1 4.04 3.91c5.659-7.608 12.027-31.6 19.21-41.479 18.56-25.507 17.508-72.893 18.1-84.411s-4.726-12.7-30.421-5.021-51.688 30.42-51.688 30.42l3.249 14.768c9.451-5.907 41.94-11.814 41.94-11.814a89.5 89.5 0 0 0-5.907 27.763c-.591 15.063-8.861 48.143-13.882 57.003Z" fill="none" stroke="#263238" stroke-linecap="round" stroke-linejoin="round"/><path data-name="Path 4050" d="M153.335 182.323a101.6 101.6 0 0 0 27.94-5.257c13.362-4.867-10.94-13.775-20.249-8.908a13.834 13.834 0 0 0-7.691 14.165Z" fill="#263238" stroke="#263238" stroke-linecap="round" stroke-linejoin="round"/><path data-name="Path 4051" d="M114.892 163.208s-9.451 5.316-12.7 11.223 10.727 15.748 25.495 15.157 41.845-16.634 41.845-16.634.3 25.991 5.316 35.442 28.058 32.489 37.214 38.4 39.872 28.058 44.6 31.6 13.586 10.042 15.654 10.337 23.628-25.991 28.649-34.852 9.451-27.468 7.679-31.6-5.316-.591-8.861 2.363-36.034 24.512-38.984 25.988a32.416 32.416 0 0 1-5.021 2.067s-26.582-25.4-40.759-44.893-15.358-44.6-20.675-54.049-13-13.586-24.514-12.4-35.445 7.379-54.938 21.851Z" fill="#fff"/><g data-name="Group 939" transform="translate(101.717 141.155)" clip-path="url(#h)"><path data-name="Path 4052" d="M138.144 125.048c7.892 5.647 14.756 10.633 16.8 12.168 4.726 3.544 13.586 10.042 15.654 10.337.732.106 3.922-3.143 7.951-7.762l-33.825-21.761Z" fill="#478bca"/><path data-name="Path 4053" d="M138.144 125.048c7.892 5.647 14.756 10.633 16.8 12.168 4.726 3.544 13.586 10.042 15.654 10.337.732.106 3.922-3.143 7.951-7.762l-33.825-21.761Z" fill="#fff" opacity=".5"/></g><path data-name="Path 4055" d="M114.892 163.208s-9.451 5.316-12.7 11.223 10.727 15.748 25.495 15.157 41.845-16.634 41.845-16.634.3 25.991 5.316 35.442 28.058 32.489 37.214 38.4 39.872 28.058 44.6 31.6 13.586 10.042 15.654 10.337 23.628-25.991 28.649-34.852 9.451-27.468 7.679-31.6-5.316-.591-8.861 2.363-36.034 24.512-38.984 25.988a32.416 32.416 0 0 1-5.021 2.067s-26.582-25.4-40.759-44.893-15.358-44.6-20.675-54.049-13-13.586-24.514-12.4-35.445 7.379-54.938 21.851Z" fill="none" stroke="#263238" stroke-linecap="round" stroke-linejoin="round"/><path data-name="Path 4056" d="M253.943 250.927c-6.25-6.1-29.677-37.533-38.927-55.609-13.551-26.487-15.016-35.513-20.332-44.964s-13.338-10.184-24.81-9-32.134 3.32-57.416 17.662c0 0-10.633 5.765-13.87 11.672s8.589 20.781 29.145 18.9c14.72-1.347 41.845-16.634 41.845-16.634s.3 25.991 5.316 35.442 28.058 32.489 37.214 38.4c5.8 3.745 20.273 14.023 31.3 21.939 2.714-9.892 7.594-15.303 10.535-17.808Z" fill="#263238"/><g data-name="Group 940" transform="translate(98.058 140.922)" clip-path="url(#i)"><path data-name="Path 4057" d="M155.885 110.004c-6.25-6.1-29.677-37.533-38.927-55.609-13.551-26.487-15.016-35.513-20.332-44.964s-13.338-10.184-24.81-9S39.682 3.751 14.4 18.093c0 0-10.633 5.765-13.87 11.672s8.589 20.781 29.145 18.9c14.72-1.347 41.845-16.634 41.845-16.634s.3 25.991 5.316 35.442 28.058 32.489 37.214 38.4c5.8 3.745 20.273 14.023 31.3 21.939 2.714-9.892 7.594-15.303 10.535-17.808Z" fill="#fff" opacity=".53"/><path data-name="Path 4058" d="M96.496 67.983C87.635 45.536 92.952.643 68.142 6.55 50.066 10.85 16.928 26.138.282 34.112c1.973 6.781 12.842 16.067 29.346 14.555 14.72-1.347 41.845-16.634 41.845-16.634s.3 25.991 5.316 35.442 28.059 32.493 37.215 38.393c5.8 3.745 20.273 14.023 31.3 21.939a42.223 42.223 0 0 1 4.123-9.888c-22.005-16.266-47.981-37.402-52.931-49.936Z" opacity=".14"/><path data-name="Line 152" fill="none" stroke="#263238" stroke-linecap="round" stroke-linejoin="round" d="m71.473 32.032-.886-15.358"/></g><path data-name="Path 4060" d="M253.943 250.927c-6.25-6.1-29.677-37.533-38.927-55.609-13.551-26.487-15.016-35.513-20.332-44.964s-13.338-10.184-24.81-9-32.134 3.32-57.416 17.662c0 0-10.633 5.765-13.87 11.672s8.589 20.781 29.145 18.9c14.72-1.347 41.845-16.634 41.845-16.634s.3 25.991 5.316 35.442 28.058 32.489 37.214 38.4c5.8 3.745 20.273 14.023 31.3 21.939 2.714-9.892 7.594-15.303 10.535-17.808Z" fill="none" stroke="#263238" stroke-linecap="round" stroke-linejoin="round"/><path data-name="Path 4061" d="M256.66 278.395c4.726 3.544 13.586 10.042 15.654 10.337s23.628-25.991 28.649-34.852 9.451-27.468 7.679-31.6-5.316-.591-8.861 2.363-36.033 24.514-38.986 25.991c-.78.39-1.489.709-2.115.981-.851 1.619-1.89 4.123-1.181 5.813 1.181 2.658 6.2 6.2 6.2 6.2l-8.943 13.4Z" fill="#263238" stroke="#263238" stroke-linecap="round" stroke-linejoin="round"/><path data-name="Path 4062" d="M300.963 253.88c5.021-8.861 9.451-27.468 7.679-31.6-1.028-2.363-2.646-2.209-4.525-1.051 1.24 5.517 0 16.162-6.108 27.633-5.446 10.231-22.269 28.354-30.717 37.12a19.827 19.827 0 0 0 5.045 2.753c2.044.292 23.605-25.994 28.626-34.855Z" fill="#fff"/><g data-name="Group 941" transform="translate(267.293 220.41)" clip-path="url(#j)"><path data-name="Path 4063" d="m5.319 68.239.26-.13.071-.059a2.529 2.529 0 0 0 .4-.284l.142-.118.343-.284.189-.177.461-.425.284-.272.39-.378.331-.331.331-.331.839-.886.142-.142.52-.567.213-.224c.614-.673 1.276-1.406 1.961-2.186v-.059l.732-.827-5.163-3.32a489.562 489.562 0 0 1-7.833 8.329l.792.52.118.071.732.461 1.181.673.331.189.331.177.378.189.248.118a3.058 3.058 0 0 0 .366.154l.177.071a1.8 1.8 0 0 0 .425.118.448.448 0 0 0 .224 0Z" fill="#478bca"/><path data-name="Path 4064" d="m5.319 68.239.26-.13.071-.059a2.529 2.529 0 0 0 .4-.284l.142-.118.343-.284.189-.177.461-.425.284-.272.39-.378.331-.331.331-.331.839-.886.142-.142.52-.567.213-.224c.614-.673 1.276-1.406 1.961-2.186v-.059l.732-.827-5.163-3.32a489.562 489.562 0 0 1-7.833 8.329l.792.52.118.071.732.461 1.181.673.331.189.331.177.378.189.248.118a3.058 3.058 0 0 0 .366.154l.177.071a1.8 1.8 0 0 0 .425.118.448.448 0 0 0 .224 0Z" fill="#fff" opacity=".5"/></g><path data-name="Path 4066" d="M300.963 253.88c5.021-8.861 9.451-27.468 7.679-31.6-1.028-2.363-2.646-2.209-4.525-1.051 1.24 5.517 0 16.162-6.108 27.633-5.446 10.231-22.269 28.354-30.717 37.12a19.827 19.827 0 0 0 5.045 2.753c2.044.292 23.605-25.994 28.626-34.855Z" fill="none" stroke="#263238" stroke-linecap="round" stroke-linejoin="round"/><path data-name="Path 4067" d="M254.002 295.53c-8.861-5.612-18.9-21.265-19.2-26.582a8.392 8.392 0 0 1 .142-1.737 8.447 8.447 0 0 0-4.867 1.737 112.91 112.91 0 0 0-11.519-9.156 24.125 24.125 0 0 0-10.634-3.182c-4.289 3.544-8.27 6.38-8.9 8.79-1.181 4.43 6.793 22.151 25.991 34.556s25.7 10.337 31.307 9.156 6.541-7.975-2.32-13.582Z" fill="#263238" stroke="#263238" stroke-linecap="round" stroke-linejoin="round"/><path data-name="Path 4068" d="M254.002 295.525a38.6 38.6 0 0 1-7.868-7.088c-6.1-2.6-14.236-5.907-21.372-10.349-7.679-4.726-5.907-7.679-10.337-12.109-3.4-3.4-10.089-3.84-13-3.863a8.163 8.163 0 0 0-2.363 3.272c-1.181 4.43 6.793 22.151 25.991 34.556s25.7 10.337 31.307 9.156 6.502-7.963-2.358-13.575Z" fill="#fff"/><g data-name="Group 942" transform="translate(198.953 262.115)" clip-path="url(#k)"><path data-name="Path 4069" d="M55.049 33.41a38.6 38.6 0 0 1-7.868-7.088c-6.1-2.6-14.236-5.907-21.372-10.349-7.679-4.726-5.907-7.679-10.337-12.109-3.4-3.4-10.089-3.84-13-3.863A8.163 8.163 0 0 0 .109 3.273C-1.072 7.703 6.902 25.424 26.1 37.829s25.7 10.337 31.307 9.156 6.502-7.963-2.358-13.575Z" fill="#478bca"/><path data-name="Path 4070" d="M55.049 33.41a38.6 38.6 0 0 1-7.868-7.088c-6.1-2.6-14.236-5.907-21.372-10.349-7.679-4.726-5.907-7.679-10.337-12.109-3.4-3.4-10.089-3.84-13-3.863A8.163 8.163 0 0 0 .109 3.273C-1.072 7.703 6.902 25.424 26.1 37.829s25.7 10.337 31.307 9.156 6.502-7.963-2.358-13.575Z" fill="#fff" opacity=".5"/></g><path data-name="Path 4072" d="M254.002 295.525a38.6 38.6 0 0 1-7.868-7.088c-6.1-2.6-14.236-5.907-21.372-10.349-7.679-4.726-5.907-7.679-10.337-12.109-3.4-3.4-10.089-3.84-13-3.863a8.163 8.163 0 0 0-2.363 3.272c-1.181 4.43 6.793 22.151 25.991 34.556s25.7 10.337 31.307 9.156 6.502-7.963-2.358-13.575Z" fill="none" stroke="#263238" stroke-linecap="round" stroke-linejoin="round"/><path data-name="Path 4073" d="M255.48 297.593c-7.679-4.43-23.333-7.384-33.375-14.177s-7.384-12.7-14.768-17.426a7.5 7.5 0 0 0-8.27-.473c-1.028 4.607 6.97 22.128 25.991 34.438s25.7 10.337 31.307 9.156c3.733-.792 5.352-4.052 3.426-7.8a16.115 16.115 0 0 0-4.311-3.718Z" fill="#263238"/><g data-name="Group 943" transform="translate(198.98 264.497)" clip-path="url(#l)"><path data-name="Path 4074" d="M56.5 33.096c-7.679-4.43-23.333-7.384-33.375-14.177S15.741 6.219 8.357 1.493a7.5 7.5 0 0 0-8.27-.473c-1.028 4.607 6.97 22.128 25.991 34.438s25.7 10.337 31.307 9.156c3.733-.792 5.352-4.052 3.426-7.8a16.115 16.115 0 0 0-4.311-3.718Z" fill="#fff" opacity=".53"/></g><path data-name="Path 4076" d="M255.48 297.593c-7.679-4.43-23.333-7.384-33.375-14.177s-7.384-12.7-14.768-17.426a7.5 7.5 0 0 0-8.27-.473c-1.028 4.607 6.97 22.128 25.991 34.438s25.7 10.337 31.307 9.156c3.733-.792 5.352-4.052 3.426-7.8a16.115 16.115 0 0 0-4.311-3.718Z" fill="none" stroke="#263238" stroke-linecap="round" stroke-linejoin="round"/><path data-name="Path 4077" d="M108.299 241.095s5.671-6.888 6.474-1.618-.4 14.98-4.454 18.619-6.072-2.02-6.072-2.02l2.434-3.237s2.02 4.052 3.639-2.434-3.237-5.671-3.237-5.671Z" fill="#fff" stroke="#263238" stroke-linecap="round" stroke-linejoin="round"/><path data-name="Path 4078" d="M103.964 267.02c-3.355 2.481-14.3 2.481-17.638 0-7.088-5.257-5.907-30.658-5.907-30.658h29.37s1.275 25.398-5.825 30.658Z" fill="#fff" stroke="#263238" stroke-linecap="round" stroke-linejoin="round"/><path data-name="Path 4079" d="M83.632 231.374c0-3.19 2.965-3.19 2.965-6.391s-2.965-3.2-2.965-6.391 2.965-3.2 2.965-6.4-2.965-3.2-2.965-6.4 2.965-3.2 2.965-6.4" fill="none" stroke="#263238" stroke-linecap="round" stroke-linejoin="round"/><path data-name="Path 4080" d="M93.78 231.375c0-2.363 2.965-2.363 2.965-4.856s-2.965-2.422-2.965-4.856 2.965-2.422 2.965-4.856-2.965-2.434-2.965-4.867 2.965-2.422 2.965-4.856" fill="none" stroke="#263238" stroke-linecap="round" stroke-linejoin="round"/><path data-name="Path 4081" d="M104.944 231.374c0-3.19 2.954-3.19 2.954-6.391s-2.954-3.2-2.954-6.391 2.954-3.2 2.954-6.4-2.954-3.2-2.954-6.4 2.954-3.2 2.954-6.4" fill="none" stroke="#263238" stroke-linecap="round" stroke-linejoin="round"/><path data-name="Path 4082" d="M109.812 236.36c0 .744-6.569 1.335-14.685 1.335s-14.685-.591-14.685-1.335 6.569-1.335 14.685-1.335 14.685.59 14.685 1.335Z" fill="#fff" stroke="#263238" stroke-linecap="round" stroke-linejoin="round"/><path data-name="Path 4083" d="M136.925 53.55s1.382 14.921 1.961 19.635 1.89 18.253 3.249 22.73 8.766 12.263 9.451 10.467 4.371-13.976 2.906-21.265-1.914-13.515-1-15.358 4.182-3.91 4.182-3.91a118.643 118.643 0 0 1-11.093-6.462c-5.226-3.474-8.924-7.409-9.656-5.837Z" fill="#fff"/><g data-name="Group 944" transform="translate(136.925 53.194)" clip-path="url(#m)"><path data-name="Path 4084" d="m18.962 13.458-1.178-2.292c-2.174-1.181-5.2-2.93-8.069-4.856C4.458 2.766.76-1.216.027.403c0 0 1.382 14.921 1.961 19.635s1.89 18.253 3.249 22.73a15.276 15.276 0 0 0 1.9 3.686c-1.43-8.908.118-25 .118-25Z" fill="#478bca"/><path data-name="Path 4085" d="m18.962 13.458-1.178-2.292c-2.174-1.181-5.2-2.93-8.069-4.856C4.458 2.766.76-1.216.027.403c0 0 1.382 14.921 1.961 19.635s1.89 18.253 3.249 22.73a15.276 15.276 0 0 0 1.9 3.686c-1.43-8.908.118-25 .118-25Z" fill="#fff" opacity=".5"/></g><path data-name="Path 4087" d="M136.925 53.55s1.382 14.921 1.961 19.635 1.89 18.253 3.249 22.73 8.766 12.263 9.451 10.467 4.371-13.976 2.906-21.265-1.914-13.515-1-15.358 4.182-3.91 4.182-3.91a118.643 118.643 0 0 1-11.093-6.462c-5.226-3.474-8.924-7.409-9.656-5.837Z" fill="none" stroke="#263238" stroke-linecap="round" stroke-linejoin="round"/><path data-name="Path 4088" d="M136.381 55.712s8.506 7.088 15.027 9.688 16.54 2.434 17.969-.957-2.481-30.244-5.848-37.309-6.958-7.183-12.9-7.726-17.827 4.3-19.919 10.042.3 13.87 2.02 18.69a35.44 35.44 0 0 0 3.651 7.572Z" fill="#fff"/><g data-name="Group 945" transform="translate(129.895 19.365)" clip-path="url(#n)"><path data-name="Path 4089" d="M21.762 36.028c-3.013-8.931-3.769-22.99-3.769-26.735 0-2.894 7.537-6.072 10.975-7.372C26.712.527 24.089.35 20.698.043 14.791-.489 2.871 4.343.779 10.085s.3 13.87 2.02 18.69a35.442 35.442 0 0 0 3.651 7.573s8.506 7.088 15.027 9.688a27.066 27.066 0 0 0 14.177 1.359c-4.665-1.759-11.883-5.401-13.892-11.367Z" fill="#478bca"/><path data-name="Path 4090" d="M21.762 36.028c-3.013-8.931-3.769-22.99-3.769-26.735 0-2.894 7.537-6.072 10.975-7.372C26.712.527 24.089.35 20.698.043 14.791-.489 2.871 4.343.779 10.085s.3 13.87 2.02 18.69a35.442 35.442 0 0 0 3.651 7.573s8.506 7.088 15.027 9.688a27.066 27.066 0 0 0 14.177 1.359c-4.665-1.759-11.883-5.401-13.892-11.367Z" fill="#fff" opacity=".5"/></g><path data-name="Path 4092" d="M136.381 55.712s8.506 7.088 15.027 9.688 16.54 2.434 17.969-.957-2.481-30.244-5.848-37.309-6.958-7.183-12.9-7.726-17.827 4.3-19.919 10.042.3 13.87 2.02 18.69a35.44 35.44 0 0 0 3.651 7.572Z" fill="none" stroke="#263238" stroke-linecap="round" stroke-linejoin="round"/><path data-name="Path 4093" d="M164.168 38.191c.142 3.4-2 6.25-4.726 6.356s-5.116-2.552-5.245-5.907 2-6.25 4.726-6.368 5.115 2.482 5.245 5.919Z" fill="none" stroke="#263238" stroke-linecap="round" stroke-linejoin="round"/><path data-name="Path 4094" d="M170.855 36.868c.142 3.4-.957 6.2-2.446 6.261s-2.812-2.646-2.942-6.049.969-6.214 2.457-6.273 2.801 2.658 2.931 6.061Z" fill="none" stroke="#263238" stroke-linecap="round" stroke-linejoin="round"/><path data-name="Path 4095" d="M164.523 36.939s9.758 1.855 8.813 4.206-7.537 4.891-7.537 4.891" fill="#fff" stroke="#263238" stroke-linecap="round" stroke-linejoin="round"/><path data-name="Path 4096" d="M163.92 35.824s.142-1.181 1.642-.437" fill="none" stroke="#263238" stroke-linecap="round" stroke-linejoin="round"/><path data-name="Line 153" fill="none" stroke="#263238" stroke-linecap="round" stroke-linejoin="round" d="m153.89 39.113-17.745 6.982"/><path data-name="Path 4097" d="M154.126 33.372a4.5 4.5 0 0 1 4.418-2.67" fill="none" stroke="#263238" stroke-linecap="round" stroke-linejoin="round" stroke-width="2"/><path data-name="Line 154" fill="none" stroke="#263238" stroke-linecap="round" stroke-linejoin="round" stroke-width="2" d="m165.94 30.784-2.729 1.028"/><path data-name="Path 4098" d="M157.505 50.596s3.544-.921 5.553 1.181" fill="none" stroke="#263238" stroke-linecap="round" stroke-linejoin="round"/><path data-name="Path 4099" d="M159.785 38.805c.165 1.181 0 2.2-.484 2.256s-.91-.851-1.075-2.044.059-2.186.5-2.245.905.852 1.059 2.033Z" fill="#263238"/><path data-name="Path 4100" d="M137.799 46.142s-1.181 2.363 2.15 2.481 5.6-1.5 3.981-3.544-4.017-3.958-1.548-6.628 7.266-4.915 4.572-7.892-12.606-.272-10.125-2.682 13.941-4.926 19.092-4.607 14.768-3.674 16.882-8.9-.839-14.874-7.762-14.354-12.086 6.651-15.157 7.088-9.369-2.977-14.649 0-5.458 11.531-5.907 12.582-7.608 2.611-8.872 9.853a19.3 19.3 0 0 0 4.986 16.315c2.965 3.225 4.3 4.454 4.3 4.454Z" fill="#263238" stroke="#263238" stroke-linecap="round" stroke-linejoin="round"/><path data-name="Path 4101" d="M122.771 33.052a5.612 5.612 0 0 0 .756 3.143" fill="none" stroke="#fff" stroke-linecap="round" stroke-linejoin="round" stroke-width=".75"/><path data-name="Path 4102" d="M152.886 14.35s-2.575-5.635 3.993-5.635 7.514 8.27.709 11.271-21.608 3.757-29.594 7.289a10.385 10.385 0 0 0-4.064 2.871" fill="none" stroke="#fff" stroke-linecap="round" stroke-linejoin="round" stroke-width=".75"/><path data-name="Path 4103" d="M140.989 34.364c-2.363.851-5.423 2.032-8.53 3.473-6.58 3.06-5.175 6.108-5.175 6.108" fill="none" stroke="#fff" stroke-linecap="round" stroke-linejoin="round" stroke-width=".75"/><path data-name="Path 4104" d="M145.372 32.911s-.579.165-1.559.484" fill="none" stroke="#fff" stroke-linecap="round" stroke-linejoin="round" stroke-width=".75"/><path data-name="Path 4105" d="M138.921 48.67s-3.816-5.505-7.833-3.3-.9 10.066 1.524 12.795 7.088-2.363 7.573-3.639" fill="#fff"/><g data-name="Group 946" transform="translate(129.158 44.851)" clip-path="url(#o)"><path data-name="Path 4106" d="M9.764 3.819S5.948-1.686 1.931.519s-.9 10.066 1.524 12.795 7.088-2.363 7.573-3.639" fill="#478bca"/><path data-name="Path 4107" d="M9.764 3.819S5.948-1.686 1.931.519s-.9 10.066 1.524 12.795 7.088-2.363 7.573-3.639" fill="#fff" opacity=".5"/></g><path data-name="Path 4109" d="M138.921 48.67s-3.816-5.505-7.833-3.3-.9 10.066 1.524 12.795 7.088-2.363 7.573-3.639" fill="none" stroke="#263238" stroke-linecap="round" stroke-linejoin="round"/><rect data-name="Rectangle 2550" width="96.781" height="74.003" rx="5.12" transform="translate(0 43.649)" fill="#fff" stroke="#263238" stroke-linecap="round" stroke-linejoin="round"/><path data-name="Path 4110" d="m94.938 96.883 56.708 14.768-56.708-27.763" fill="#fff" stroke="#263238" stroke-linecap="round" stroke-linejoin="round"/><path data-name="Rectangle 2551" fill="#478bca" stroke="#263238" stroke-linecap="round" stroke-linejoin="round" d="M7.821 50.762h22.766v59.779H7.821z"/><path data-name="Rectangle 2552" fill="#478bca" stroke="#263238" stroke-linecap="round" stroke-linejoin="round" d="M88.913 50.762h2.847v59.779h-2.847z"/><path data-name="Rectangle 2553" fill="#263238" stroke="#263238" stroke-linecap="round" stroke-linejoin="round" d="M88.913 78.087h2.847v5.104h-2.847z"/><path data-name="Line 155" fill="#fff" stroke="#263238" stroke-linecap="round" stroke-linejoin="round" d="M37.71 52.179h44.834"/><path data-name="Line 156" fill="#fff" stroke="#263238" stroke-linecap="round" stroke-linejoin="round" d="M37.71 58.582h44.834"/><path data-name="Line 157" fill="#fff" stroke="#263238" stroke-linecap="round" stroke-linejoin="round" d="M37.71 64.998h44.834"/><path data-name="Line 158" fill="#fff" stroke="#263238" stroke-linecap="round" stroke-linejoin="round" d="M37.71 71.401h44.834"/><path data-name="Line 159" fill="#fff" stroke="#263238" stroke-linecap="round" stroke-linejoin="round" d="M37.71 87.054h44.834"/><path data-name="Line 160" fill="#fff" stroke="#263238" stroke-linecap="round" stroke-linejoin="round" d="M37.71 92.749h44.834"/><path data-name="Line 161" fill="#fff" stroke="#263238" stroke-linecap="round" stroke-linejoin="round" d="M37.71 98.443h44.834"/><path data-name="Line 162" fill="#fff" stroke="#263238" stroke-linecap="round" stroke-linejoin="round" d="M37.71 110.257h44.834"/><path data-name="Line 163" fill="none" stroke="#263238" stroke-linecap="round" stroke-linejoin="round" d="m7.821 110.529 22.778-59.767"/></g><g transform="translate(352.474 237.424)"><ellipse data-name="Ellipse 67" cx="19.765" cy="8.861" rx="19.765" ry="8.861" transform="translate(7.803 145.899)" fill="#478bca"/><ellipse data-name="Ellipse 68" cx="19.765" cy="8.861" rx="19.765" ry="8.861" transform="translate(7.803 145.899)" fill="#fff" opacity=".5"/><path data-name="Path 4111" d="M4.448 23.647c2.115.921 7.289.8 7.289.8s-1.111-3.391-1.181-3.544c-1.181-2.363-4.726-6.3-7.644-5.907a3.544 3.544 0 0 0-2.8 4.371c.437 1.988 2.528 3.488 4.336 4.28Z" fill="#263238"/><path data-name="Path 4112" d="M72.213 6.036c-2.93-.307-6.415 3.7-7.49 6.108-.094.213-1.181 3.627-1.111 3.627h.059c-.555.626-1.181 1.311-1.76 2.067a64.878 64.878 0 0 0-3.71 4.844 60.8 60.8 0 0 0-3.84 6.12 45.454 45.454 0 0 0-3.284 7.4.223.223 0 0 0 0 .094v-3.473c-.343-2.6-2.528-7.455-5.434-7.986a3.544 3.544 0 0 0-4.017 3.284c-.165 2.067 1.335 4.147 2.8 5.458 1.654 1.477 6.238 2.906 6.6 3.013a63.929 63.929 0 0 0-1.937 8.01c-.284 1.583-.508 3.178-.733 4.785v-1.521c-.343-2.611-2.528-7.455-5.423-7.986a3.544 3.544 0 0 0-4.029 3.272c-.165 2.079 1.335 4.147 2.8 5.458s5.375 2.635 6.415 2.965c-.071.614-.154 1.181-.236 1.843-.354 2.953-.685 5.907-1.111 8.8-.154 1.016-.331 2.008-.508 3v-1.3c-.343-2.611-2.528-7.455-5.434-8a3.544 3.544 0 0 0-4.017 3.284c-.165 2.079 1.335 4.147 2.8 5.458s5 2.5 6.226 2.894a75.98 75.98 0 0 1-.685 3.013c-.189.662-.331 1.311-.555 1.961s-.414 1.3-.626 1.938c-.437 1.181-.886 2.481-1.347 3.651-.319.827-.638 1.607-.945 2.363.154-1.016.425-3 .425-3.166a13.539 13.539 0 0 0-1.807-6.592 5.589 5.589 0 0 0 0-.768 3.544 3.544 0 0 0-4.265-2.953c-2.847.756-4.655 5.753-4.8 8.376 0 .165.094 1.855.177 2.918-.142-.614-.272-1.181-.425-1.855a189.56 189.56 0 0 0-.992-3.851c-.2-.65-.39-1.3-.591-1.949s-.461-1.323-.685-2a58.774 58.774 0 0 0-1.9-4.607c1.111-.26 5.009-1.252 6.58-2.457s3.213-3.154 3.19-5.234a3.473 3.473 0 0 0-3.757-3.544c-2.942.319-5.482 4.986-6.013 7.561 0 .165-.2 2.056-.284 3.1a96.653 96.653 0 0 0-1.276-2.753c-1.311-2.635-2.717-5.257-4.111-7.892-.437-.8-.851-1.607-1.264-2.422.39-.083 5.056-1.181 6.8-2.516 1.559-1.181 3.213-3.154 3.2-5.234a3.544 3.544 0 0 0-3.769-3.544c-2.93.319-5.47 4.986-6 7.561 0 .189-.284 2.918-.319 3.615-.921-1.784-1.819-3.544-2.646-5.352a61.836 61.836 0 0 1-2.871-7.419c.177 0 5.056-1.181 6.852-2.528 1.559-1.181 3.213-3.154 3.2-5.234a3.544 3.544 0 0 0-3.769-3.544c-2.93.319-5.47 4.986-6 7.561 0 .213-.307 3.143-.319 3.674a1.685 1.685 0 0 0-.154-.449 44.617 44.617 0 0 1-1.489-7.845c-.165-1.453-.236-2.871-.284-4.241.933-.106 5.163-.673 6.923-1.737s3.544-2.776 3.757-4.856a3.544 3.544 0 0 0-3.355-3.958c-2.953 0-5.99 4.359-6.8 6.852 0 .142-.331 1.571-.532 2.623v-1.855c0-2.221.142-4.265.284-6.072.094-1.028.189-1.949.3-2.824.851-.579 4.253-2.989 5.3-4.726s1.867-4.1 1.1-6.025a3.473 3.473 0 0 0-4.8-1.973c-2.623 1.347-3.308 6.616-2.883 9.215 0 .224 1.028 3.662 1.075 3.639-.106.827-.224 1.725-.331 2.694-.177 1.808-.366 3.851-.414 6.1a62.92 62.92 0 0 0 .165 7.218 45.745 45.745 0 0 0 1.347 7.974.225.225 0 0 0 0 .094c-.461-.721-1.831-2.717-1.949-2.859-1.725-2-6.214-4.82-8.931-3.674a3.544 3.544 0 0 0-1.548 4.95c1 1.831 3.4 2.729 5.352 3.013 2.186.319 6.8-1.016 7.171-1.122a62.847 62.847 0 0 0 2.8 7.738 104.89 104.89 0 0 0 2.032 4.395 9.316 9.316 0 0 0-.862-1.181c-1.725-1.985-6.226-4.82-8.931-3.674a3.544 3.544 0 0 0-1.548 4.962c1 1.819 3.4 2.729 5.34 3.013s5.907-.78 6.982-1.075c.272.555.543 1.111.827 1.666 1.335 2.67 2.682 5.316 3.922 7.951.437.933.827 1.867 1.181 2.8-.366-.555-.685-1-.744-1.075-1.725-1.985-6.226-4.82-8.931-3.674a3.544 3.544 0 0 0-1.548 4.962c1 1.819 3.4 2.717 5.34 3s5.553-.673 6.793-1.016c.378.969.768 1.938 1.087 2.894.213.65.461 1.264.626 1.938s.366 1.311.555 1.961c.3 1.264.614 2.564.886 3.792.189.862.354 1.678.52 2.5a95.383 95.383 0 0 0-1.382-2.871c-1.406-2.233-5.423-5.718-8.27-4.986a3.473 3.473 0 0 0-2.28 4.667c.709 1.949 2.942 3.2 4.82 3.781 2.079.626 6.663 0 7.23 0 .272 1.37.532 2.705.744 3.97.78 4.371 1.252 8.045 1.548 10.633a9.631 9.631 0 0 0 .142 1.252h-8.872l2.847 55.644a7.963 7.963 0 0 0 7.951 7.549 7.95 7.95 0 0 0 7.939-7.548l2.859-55.646h-8.27c.059-.13.118-.248.189-.378 1.181-2.363 2.705-5.765 4.407-9.912a162.447 162.447 0 0 0 1.63-4.182c.555.118 5.092 1.04 7.207.555 1.926-.425 4.241-1.512 5.1-3.4a3.544 3.544 0 0 0-1.926-4.832c-2.8-.933-7.089 2.245-8.624 4.359-.095.118-.933 1.595-1.453 2.528.213-.6.437-1.181.662-1.8.449-1.181.851-2.434 1.3-3.757.189-.638.39-1.288.579-1.949s.354-1.359.532-2.044a71.44 71.44 0 0 0 .957-4.879c1.063.39 4.867 1.713 6.84 1.571s4.418-.862 5.553-2.6a3.544 3.544 0 0 0-1.181-5.056c-2.623-1.359-7.313 1.181-9.18 2.989-.118.118-1.311 1.607-1.949 2.434.165-1 .319-2 .449-3 .366-2.93.638-5.907.921-8.861l.284-2.705c.378.142 4.867 1.808 7.088 1.654 1.961-.142 4.418-.862 5.553-2.6a3.544 3.544 0 0 0-1.181-5.056c-2.623-1.359-7.325 1.181-9.18 2.989-.142.142-1.855 2.28-2.256 2.847.2-2 .437-3.981.744-5.907a62.235 62.235 0 0 1 1.689-7.785c.177.071 4.856 1.831 7.088 1.666 1.961-.13 4.418-.851 5.553-2.6a3.544 3.544 0 0 0-1.181-5.056c-2.623-1.347-7.313 1.181-9.18 3-.142.142-1.985 2.446-2.28 2.883a1.579 1.579 0 0 1 .118-.449 44.654 44.654 0 0 1 3.083-7.372c.662-1.311 1.382-2.528 2.1-3.686.839.413 4.726 2.28 6.734 2.363s4.478-.366 5.8-1.973a3.544 3.544 0 0 0-.6-5.163c-2.457-1.63-7.4.331-9.451 1.973-.106.094-1.181 1.181-1.89 1.89l.992-1.571c1.24-1.855 2.481-3.473 3.544-4.9.638-.815 1.24-1.524 1.8-2.2 1.04 0 5.21-.142 7.029-.992s3.816-2.363 4.253-4.43a3.544 3.544 0 0 0-2.942-4.489ZM39.76 84.765a178.167 178.167 0 0 1-4.572 9.711l-.636 1.26h-.2c-.059-.449-.118-.945-.2-1.5-.354-2.6-.91-6.3-1.784-10.633-.284-1.394-.6-2.883-.945-4.395a41.677 41.677 0 0 0 4.04-1.89 24.989 24.989 0 0 0 5.907 3.781c-.571 1.237-1.09 2.493-1.61 3.662Z" fill="#263238"/><path data-name="Path 4113" d="M56.773 24.781s.933-3.438.969-3.662c.366-2.611-.473-7.856-3.119-9.144a3.544 3.544 0 0 0-4.726 2.1c-.709 1.961.189 4.359 1.264 6.013 1.227 1.944 5.6 4.693 5.612 4.693Z" fill="#263238"/></g></svg>