<svg xmlns="http://www.w3.org/2000/svg" viewBox="0 0 100 100" width="25" height="25" baseProfile="basic"><path fill="#3070b7" d="M83.105 15h-66.21l5.842 66.211L50 89l27.263-7.789L83.105 15z"/><path fill="#1f212b" d="M50 90a.976.976 0 0 1-.274-.039l-27.263-7.79a1 1 0 0 1-.722-.874l-5.843-66.21A1 1 0 0 1 16.895 14h66.211a.999.999 0 0 1 .996 1.088l-5.843 66.21a1 1 0 0 1-.722.874l-27.263 7.79A1.012 1.012 0 0 1 50 90zm-26.327-9.562L50 87.96l26.327-7.522L82.014 16H17.986l5.687 64.438z"/><path fill="#09ace3" d="M50 20.5v62.463l21.811-6.231L76.709 20.5z"/><path fill="#fefdef" d="M67.721 30.579H50L49 34l1 4.368h9.542l-.584 7.79H50L49 50l1 3.947h8.568l-.584 8.764L50 65.437 49 70l1 3.616 15.384-5.063 1.363-22.395z"/><path fill="#eeecd9" d="M50 30.579v7.789H32.668l-.584-7.789H50zm-8.958 15.579.389 7.789H50v-7.789h-8.958zm.779 11.684h-7.789l.584 10.711L50 73.616v-8.179l-7.984-2.726-.195-4.869z"/><path fill="#1f212b" d="M50 31.079a.5.5 0 0 1-.5-.5V20.5a.5.5 0 0 1 .5-.5h3.5a.5.5 0 0 1 0 1h-3v9.579a.5.5 0 0 1-.5.5zM60.5 21h-4a.5.5 0 0 1 0-1h4a.5.5 0 0 1 0 1zM50 83.463a.503.503 0 0 1-.5-.5V76.5a.5.5 0 0 1 1 0v5.8l20.843-5.955L76.163 21H63.5a.5.5 0 0 1 0-1h13.209a.499.499 0 0 1 .498.543l-4.898 56.231a.501.501 0 0 1-.36.438l-21.811 6.232a.505.505 0 0 1-.138.019zM50 65.937a.5.5 0 0 1-.5-.5v-8.49a.5.5 0 0 1 1 0v8.49a.5.5 0 0 1-.5.5zM50 46.658a.5.5 0 0 1-.5-.5v-4.789a.5.5 0 0 1 1 0v4.789a.5.5 0 0 1-.5.5z"/><path fill="#1f212b" d="M50 74.116a.49.49 0 0 1-.156-.025L34.46 69.028a.5.5 0 0 1-.343-.448l-.585-10.71a.5.5 0 0 1 .499-.527h7.79a.5.5 0 0 1 .5.48l.181 4.526L50 64.909l7.508-2.564.526-7.897H41.432a.5.5 0 0 1-.499-.475l-.39-7.79a.497.497 0 0 1 .499-.525h17.452l.509-6.789H32.668a.5.5 0 0 1-.499-.462l-.584-7.79a.498.498 0 0 1 .499-.537h35.637a.502.502 0 0 1 .499.532l-2.337 37.973a.5.5 0 0 1-.343.445l-15.384 5.063a.589.589 0 0 1-.156.023zm-14.903-5.931L50 73.089l14.905-4.906 2.283-37.104H32.623l.509 6.79h26.41a.5.5 0 0 1 .499.537l-.584 7.789a.5.5 0 0 1-.499.462H41.567l.34 6.79h16.661a.498.498 0 0 1 .499.533l-.584 8.763a.5.5 0 0 1-.338.44l-7.984 2.727a.494.494 0 0 1-.322 0l-7.984-2.727a.502.502 0 0 1-.339-.453l-.175-4.388H34.56l.537 9.843z"/></svg>