<svg xmlns="http://www.w3.org/2000/svg" width="24" height="24" style="shape-rendering:geometricPrecision;text-rendering:geometricPrecision;image-rendering:optimizeQuality;fill-rule:evenodd;clip-rule:evenodd"><path style="opacity:1" fill="#5b5b5b" d="M8.5-.5h6c.61.891.943 1.891 1 3-2.957-1.525-3.624-.858-2 2-2.12-.175-4.12.159-6 1a19.24 19.24 0 0 1 1-6Z"/><path style="opacity:1" fill="#edb844" d="M13.5 4.5v3c-1.542.8-3.209 1.134-5 1 0-.667-.333-1-1-1v-2c1.88-.841 3.88-1.175 6-1Z"/><path style="opacity:1" fill="#f6f6f5" d="M13.5 7.5c1.429 2.808 2.095 5.808 2 9-.934 1.068-1.268 2.401-1 4-1.542.8-3.209 1.134-5 1l-4-6c.435-2.657 1.435-4.99 3-7 1.791.134 3.458-.2 5-1Z"/><path style="opacity:.976" fill="#333230" d="M15.5 2.5a595.237 595.237 0 0 1 4 13c-.744 3.384-2.077 3.718-4 1 .095-3.192-.571-6.192-2-9v-3c-1.624-2.858-.957-3.525 2-2Z"/><path style="opacity:.976" fill="#4c4c4c" d="M7.5 7.5c.667 0 1 .333 1 1-1.565 2.01-2.565 4.343-3 7h-1c-.085-3.149.915-5.816 3-8Z"/><path style="opacity:.988" fill="#f7be3c" d="M4.5 15.5h1l4 6v2h-5c-.709-.904-1.709-1.237-3-1-.52-3.136.48-5.47 3-7Z"/><path style="opacity:1" fill="#f2b01e" d="M19.5 15.5c.934 1.273 1.601 2.773 2 4.5a122.796 122.796 0 0 0-3 3.5h-4v-3c-.268-1.599.066-2.932 1-4 1.923 2.718 3.256 2.384 4-1Z"/><path style="opacity:1" fill="#2f2f2f" d="M14.5 20.5v2c-1.291-.237-2.291.096-3 1h-2v-2c1.791.134 3.458-.2 5-1Z"/></svg>