<svg xmlns="http://www.w3.org/2000/svg" viewBox="0 0 48 48" width="25" height="25"><path fill="#0883d9" d="M36.232 23.985c0-5.865 4.766-8.51 4.966-8.636-2.596-3.993-6.79-4.467-8.362-4.468-3.643 0-6.863 2.022-8.585 2.022-1.797 0-4.418-2.121-7.363-2.022-3.843.075-7.363 2.346-9.334 5.691-1.397 2.396-1.947 5.217-1.896 8.087.002.113.017.228.02.341H36.32a10.858 10.858 0 0 1-.088-1.015zM30.565 7.063A9.77 9.77 0 0 0 33.06 0c-2.346 0-5.066 1.372-6.788 3.394-1.348 1.672-2.795 4.293-2.271 6.913 2.421.3 5.042-1.222 6.564-3.244z"/><path fill="#0370c8" d="M17.511 45c2.771 0 3.794-1.848 7.413-1.848 3.37 0 4.418 1.848 7.338 1.848 3.07 0 5.092-2.795 6.913-5.567 2.295-3.218 3.07-6.288 3.169-6.414-.094 0-5.287-2.112-6.026-8.019H5.678c.157 5.311 2.228 10.79 4.671 14.309C12.27 42.055 14.441 45 17.511 45z"/></svg>